0
SECTION
2
HEADER
9
$INSUNITS
70
4
9
$ACADVER
1
AC1014
9
$HANDSEED
5
FFFF
0
ENDSEC
0
SECTION
2
TABLES
0
TABLE
2
VPORT
5
8
100
AcDbSymbolTable
0
ENDTAB
0
TABLE
2
LTYPE
5
5
100
AcDbSymbolTable
0
LTYPE
5
14
100
AcDbSymbolTableRecord
100
AcDbLinetypeTableRecord
2
BYBLOCK
70
0
0
LTYPE
5
15
100
AcDbSymbolTableRecord
100
AcDbLinetypeTableRecord
2
BYLAYER
70
0
0
ENDTAB
0
TABLE
2
LAYER
5
2
100
AcDbSymbolTable
70
2
0
LAYER
5
50
100
AcDbSymbolTableRecord
100
AcDbLayerTableRecord
2
0
70
0
6
CONTINUOUS
0
ENDTAB
0
TABLE
2
STYLE
5
3
100
AcDbSymbolTable
70
1
0
STYLE
5
11
100
AcDbSymbolTableRecord
100
AcDbTextStyleTableRecord
2
STANDARD
70
0
0
ENDTAB
0
TABLE
2
VIEW
5
6
100
AcDbSymbolTable
70
0
0
ENDTAB
0
TABLE
2
UCS
5
7
100
AcDbSymbolTable
70
0
0
ENDTAB
0
TABLE
2
APPID
5
9
100
AcDbSymbolTable
70
2
0
APPID
5
12
100
AcDbSymbolTableRecord
100
AcDbRegAppTableRecord
2
ACAD
70
0
0
ENDTAB
0
TABLE
2
DIMSTYLE
5
A
100
AcDbSymbolTable
70
1
0
ENDTAB
0
TABLE
2
BLOCK_RECORD
5
1
100
AcDbSymbolTable
70
1
0
BLOCK_RECORD
5
1F
100
AcDbSymbolTableRecord
100
AcDbBlockTableRecord
2
*MODEL_SPACE
0
BLOCK_RECORD
5
1B
100
AcDbSymbolTableRecord
100
AcDbBlockTableRecord
2
*PAPER_SPACE
0
ENDTAB
0
ENDSEC
0
SECTION
2
BLOCKS
0
BLOCK
5
20
100
AcDbEntity
100
AcDbBlockBegin
2
*MODEL_SPACE
0
ENDBLK
5
21
100
AcDbEntity
100
AcDbBlockEnd
0
BLOCK
5
1C
100
AcDbEntity
100
AcDbBlockBegin
2
*PAPER_SPACE
0
ENDBLK
5
1D
100
AcDbEntity
100
AcDbBlockEnd
0
ENDSEC
0
SECTION
2
ENTITIES
0
LWPOLYLINE
5
100
100
AcDbEntity
8
0
100
AcDbPolyline
90
54
70
1
43
0.0
10
122.30000000000352
20
67.331221017810435
10
106.30000000000339
20
67.331221017810975
42
-0.19922975918517796
10
104.884060493128
20
67.918735508905016
42
0.19922975918519079
10
103.4681209862525
20
68.506249999999142
10
-161.30624999999958
20
68.50625000000116
42
0.41421356237309503
10
-162.30624999999961
20
67.506250000001188
10
-162.30624999999961
20
62.506250000001344
42
0.41421356237309503
10
-161.30624999999958
20
61.506250000001295
10
-132.80624999999952
20
61.506250000001081
42
-0.99999999999999989
10
-132.80624999999964
20
59.506250000000982
10
-170.39203643762704
20
59.50625000000133
42
0.19891236737966295
10
-171.09914321881362
20
59.213356781187876
10
-173.51335678118659
20
56.79914321881482
42
0.19891236737966778
10
-173.80625000000009
20
56.092036437628252
10
-173.80625000000009
20
16.143749999998786
42
0.41421356237309537
10
-171.80625000000006
20
14.143749999998789
10
-171.54375000000016
20
14.14374999999886
42
-0.41421356237309503
10
-170.54375000000007
20
13.143749999998775
10
-170.54375000000016
20
1.1437499999987466
42
-0.41421356237309503
10
-171.54375000000016
20
0.14374999999873239
10
-171.80625000000006
20
0.14374999999873961
42
0.41421356237309503
10
-173.80625000000009
20
-1.8562500000012605
10
-173.80624999999998
20
-56.092036437628174
42
0.19891236737965379
10
-173.51335678118659
20
-56.799143218814727
10
-171.09914321881359
20
-59.213356781187834
42
0.19891236737967763
10
-170.39203643762698
20
-59.506250000001302
10
-132.80624999999992
20
-59.506250000001302
42
-0.99999999999999989
10
-132.80625000000009
20
-61.50625000000133
10
-161.30625000000009
20
-61.506250000001387
42
0.41421356237309503
10
-162.30625000000018
20
-62.50625000000138
10
-162.30625000000018
20
-67.50625000000116
42
0.41421356237310542
10
-161.30625000000012
20
-68.506250000001145
10
161.30625000000006
20
-68.50625000000116
42
0.41421356237309503
10
162.30625000000003
20
-67.50625000000116
10
162.30625000000003
20
-62.506250000001202
42
0.41421356237309503
10
161.30625000000006
20
-61.506250000001202
10
132.80625000000003
20
-61.506250000001174
42
-0.99999999999999989
10
132.80625000000003
20
-59.506250000001174
10
170.39203643762693
20
-59.50625000000116
42
0.19891236737965801
10
171.09914321881348
20
-59.213356781187692
10
173.51335678118656
20
-56.799143218814677
42
0.19891236737965473
10
173.80625000000003
20
-56.092036437628146
10
173.80625000000003
20
56.092036437625481
42
0.19891236737964493
10
173.51335678118659
20
56.799143218811992
10
171.09914321881354
20
59.213356781185091
42
0.19891236737966617
10
170.39203643762698
20
59.506249999998559
10
132.80625000000049
20
59.506249999998872
42
-0.99999999999999989
10
132.80625000000049
20
61.506249999998857
10
161.30625000000055
20
61.506249999998658
42
0.41421356237309503
10
162.30625000000003
20
62.50624999999868
10
162.30625000000003
20
67.506249999998602
42
0.41421356237307422
10
161.30625000000055
20
68.50624999999863
10
125.13187901375488
20
68.506249999998886
42
0.1992297591852184
10
123.71593950687924
20
67.91873550890466
42
-0.19922975918522529
0
LINE
5
101
100
AcDbEntity
8
0
100
AcDbLine
10
105.07266822901897
20
13.058856599625459
30
0
11
106.01237203804409
21
13.058856599625539
31
0
0
ARC
5
102
100
AcDbEntity
8
0
100
AcDbCircle
10
106.01237203804416
20
12.058856599625535
30
0
40
1.0000000000000142
210
0
220
-0
230
1
100
AcDbArc
50
0
51
90.000000000004079
0
ARC
5
103
100
AcDbEntity
8
0
100
AcDbCircle
10
106.01237203804708
20
-19.868250025144057
30
0
40
1.0000000000000164
210
0
220
0
230
1
100
AcDbArc
50
-90
51
0
0
LINE
5
104
100
AcDbEntity
8
0
100
AcDbLine
10
107.01237203804418
20
12.058856599625649
30
0
11
107.01237203804709
21
-19.868250025143968
31
0
0
LINE
5
105
100
AcDbEntity
8
0
100
AcDbLine
10
100.09186969918396
20
-20.868250025144093
30
0
11
106.01237203804708
21
-20.868250025144075
31
0
0
ARC
5
106
100
AcDbEntity
8
0
100
AcDbCircle
10
98.791869699183934
20
-19.206250000005483
30
0
40
0.30000000000001137
210
0
220
-0
230
1
100
AcDbArc
50
0
51
90
0
LINE
5
107
100
AcDbEntity
8
0
100
AcDbLine
10
99.091869699183945
20
-19.206250000005483
30
0
11
99.091869699183945
21
-19.868250025144079
31
0
0
ARC
5
108
100
AcDbEntity
8
0
100
AcDbCircle
10
100.09186969918396
20
-19.868250025144071
30
0
40
1.0000000000000142
210
0
220
0
230
1
100
AcDbArc
50
180
51
270
0
ARC
5
109
100
AcDbEntity
8
0
100
AcDbCircle
10
82.170670563821062
20
-19.206250000005483
30
0
40
0.29999999999999805
210
0
220
-0
230
1
100
AcDbArc
50
90
51
180
0
LINE
5
110
100
AcDbEntity
8
0
100
AcDbLine
10
82.170670563821062
20
-18.906250000005485
30
0
11
98.791869699183934
21
-18.906250000005485
31
0
0
LINE
5
111
100
AcDbEntity
8
0
100
AcDbLine
10
81.870670563821051
20
-19.868250025144079
30
0
11
81.870670563821051
21
-19.206250000005483
31
0
0
ARC
5
112
100
AcDbEntity
8
0
100
AcDbCircle
10
80.870670563821037
20
-19.868250025144071
30
0
40
1.0000000000000053
210
0
220
0
230
1
100
AcDbArc
50
270
51
360
0
LINE
5
113
100
AcDbEntity
8
0
100
AcDbLine
10
75.215870563821099
20
-20.868250025144093
30
0
11
80.870670563821037
21
-20.868250025144075
31
0
0
LINE
5
114
100
AcDbEntity
8
0
100
AcDbLine
10
74.215870563821085
20
-3.9442499748698623
30
0
11
74.215870563821085
21
-19.868250025144079
31
0
0
LINE
5
115
100
AcDbEntity
8
0
100
AcDbLine
10
80.863170695323632
20
-2.9442499748698481
30
0
11
75.215870563821099
21
-2.9442499748698481
31
0
0
ARC
5
116
100
AcDbEntity
8
0
100
AcDbCircle
10
75.215870563821099
20
-3.9442499748698614
30
0
40
1.0000000000000131
210
0
220
-0
230
1
100
AcDbArc
50
90
51
180
0
ARC
5
117
100
AcDbEntity
8
0
100
AcDbCircle
10
82.163170695323657
20
-4.6062500000053319
30
0
40
0.30000000000001137
210
0
220
0
230
1
100
AcDbArc
50
180
51
270
0
ARC
5
118
100
AcDbEntity
8
0
100
AcDbCircle
10
80.863170695323632
20
-3.94424997486988
30
0
40
1.0000000000000142
210
0
220
-0
230
1
100
AcDbArc
50
0
51
90
0
LINE
5
119
100
AcDbEntity
8
0
100
AcDbLine
10
81.863170695323646
20
-4.6062500000053319
30
0
11
81.863170695323646
21
-3.9442499748698623
31
0
0
ARC
5
120
100
AcDbEntity
8
0
100
AcDbCircle
10
92.012506103497458
20
-3.9062744140752059
30
0
40
1.000000000000014
210
-0
220
0
230
1
100
AcDbArc
50
-89.599632702524161
51
0
0
LINE
5
121
100
AcDbEntity
8
0
100
AcDbLine
10
93.012506103497472
20
-3.9062744140751349
30
0
11
93.012506103497259
21
-0.85627441407396532
31
0
0
LINE
5
122
100
AcDbEntity
8
0
100
AcDbLine
10
90.631249999999923
20
1.1437499999987821
30
0
11
90.631249999999923
21
13.143749999998811
31
0
0
ARC
5
123
100
AcDbEntity
8
0
100
AcDbCircle
10
91.631249999999937
20
1.1437499999988003
30
0
40
1.0000000000000142
210
0
220
0
230
1
100
AcDbArc
50
180
51
270
0
LINE
5
124
100
AcDbEntity
8
0
100
AcDbLine
10
91.631249999999937
20
0.14374999999878624
30
0
11
92.012506103497174
21
0.14374999999875016
31
0
0
ARC
5
125
100
AcDbEntity
8
0
100
AcDbCircle
10
92.012506103497316
20
-0.8562744140740719
30
0
40
0.99999999999994316
210
0
220
-0
230
1
100
AcDbArc
50
0
51
90.000000000004079
0
LINE
5
126
100
AcDbEntity
8
0
100
AcDbLine
10
103.63125000000008
20
14.143750000000566
30
0
11
91.631249999999937
21
14.143750000000566
31
0
0
ARC
5
127
100
AcDbEntity
8
0
100
AcDbCircle
10
91.631249999999937
20
13.143749999998793
30
0
40
1.0000000000017728
210
0
220
-0
230
1
100
AcDbArc
50
90
51
180
0
ARC
5
128
100
AcDbEntity
8
0
100
AcDbCircle
10
103.63125000000005
20
13.143750000000534
30
0
40
1.0000000000000284
210
0
220
-0
230
1
100
AcDbArc
50
16.065598512933239
51
89.99999999999838
0
ARC
5
129
100
AcDbEntity
8
0
100
AcDbCircle
10
105.07266822901894
20
13.558856599625457
30
0
40
0.50000000000000444
210
0
220
0
230
1
100
AcDbArc
50
196.06559851293321
51
270.00000000000324
0
LWPOLYLINE
5
130
100
AcDbEntity
8
0
100
AcDbPolyline
90
4
70
1
43
0.0
10
128.60624999999516
20
-4.8562500000012676
10
133.70624999999993
20
-4.8562500000011255
42
-0.99999999999999989
10
133.70624999999993
20
-7.8562500000012392
10
128.60624999999521
20
-7.8562500000012436
42
-0.93555309188857705
0
LWPOLYLINE
5
131
100
AcDbEntity
8
0
100
AcDbPolyline
90
4
70
1
43
0.0
10
117.60624999999514
20
-9.8562500000011077
10
133.70624999999993
20
-9.8562500000011077
42
-0.99999999999999989
10
133.70624999999993
20
-12.856250000000973
10
117.60624999999521
20
-12.856250000001118
42
-0.93555309188857705
0
LWPOLYLINE
5
132
100
AcDbEntity
8
0
100
AcDbPolyline
90
8
70
1
43
0.0
10
96.393750000000082
20
43.006249999999483
42
-0.41421356237308982
10
95.393750000000068
20
44.006249999999483
10
95.393750000000068
20
56.006249999998204
42
-0.41421356237311324
10
96.393750000000182
20
57.006249999998388
10
108.39374999999961
20
57.006249999998488
42
-0.41421356237310281
10
109.39374999999981
20
56.006249999998232
10
109.39374999999976
20
44.006249999999305
42
-0.41421356237311063
10
108.39375000000001
20
43.00624999999954
0
LWPOLYLINE
5
133
100
AcDbEntity
8
0
100
AcDbPolyline
90
4
70
1
43
0.0
10
113.41875000000005
20
1.1437499999997414
42
-0.99999999999999989
10
110.41875000000002
20
1.1437499999997414
10
110.41875000000005
20
13.14374999999977
42
-0.99999999999999989
10
113.41875000000002
20
13.14374999999977
0
LWPOLYLINE
5
134
100
AcDbEntity
8
0
100
AcDbPolyline
90
4
70
1
43
0.0
10
172.18750000131905
20
-27.956250000005589
10
172.18750000131917
20
-33.956250000005568
42
-0.99999999999999989
10
169.18750000131911
20
-33.956250000005639
10
169.18750000131899
20
-27.956250000005589
42
-0.99999999999999989
0
LWPOLYLINE
5
135
100
AcDbEntity
8
0
100
AcDbPolyline
90
8
70
1
43
0.0
10
-76.343749999999886
20
44.006249999998879
42
-0.41421356237309503
10
-77.343749999999716
20
43.006249999999042
10
-89.343750000000028
20
43.006249999999028
42
-0.41421356237308982
10
-90.343750000000043
20
44.006249999999021
10
-90.343749999999943
20
56.006249999998452
42
-0.41421356237308982
10
-89.343749999999815
20
57.006249999998602
10
-77.343749999999929
20
57.006249999998602
42
-0.41421356237309503
10
-76.343749999999915
20
56.006249999998587
0
LWPOLYLINE
5
136
100
AcDbEntity
8
0
100
AcDbPolyline
90
4
70
1
43
0.0
10
115.7995631436319
20
20.193749999994459
42
-0.99999999999999989
10
112.79956314363187
20
20.193749999994459
10
112.7995631436319
20
32.193749999994488
42
-0.99999999999999989
10
115.79956314363187
20
32.193749999994488
0
LWPOLYLINE
5
137
100
AcDbEntity
8
0
100
AcDbPolyline
90
8
70
1
43
0.0
10
15.431249999999963
20
-18.906250000006061
42
-0.4142135623730937
10
14.431249999999963
20
-17.906250000006061
10
14.431249999999885
20
-5.9062500000063167
42
-0.41421356237309503
10
15.431249999999608
20
-4.9062500000065938
10
27.431249999999849
20
-4.9062500000050244
42
-0.41421356237311291
10
28.431249999999935
20
-5.9062500000050377
10
28.431250000000485
20
-17.90625000000524
42
-0.41421356237311324
10
27.431249999999565
20
-18.906250000006093
0
LWPOLYLINE
5
138
100
AcDbEntity
8
0
100
AcDbPolyline
90
4
70
1
43
0.0
10
157.18750000131905
20
-33.956250000005852
10
157.18750000131899
20
-27.956250000005802
42
-0.99999999999999989
10
160.18750000131902
20
-27.956250000005802
10
160.18750000131917
20
-33.956250000005781
42
-0.99999999999999989
0
LWPOLYLINE
5
139
100
AcDbEntity
8
0
100
AcDbPolyline
90
8
70
1
43
0.0
10
-65.531250000000298
20
0.14374999999872434
42
-0.41421356237310264
10
-66.531250000000242
20
1.1437499999987111
10
-66.531250000000057
20
13.143749999998988
42
-0.41421356237307877
10
-65.531250000000227
20
14.143749999998787
10
-53.531250000000199
20
14.143750000000392
42
-0.41421356237311713
10
-52.531250000000043
20
13.143750000000427
10
-52.531249999999723
20
1.1437499999991023
42
-0.41421356237314705
10
-53.531250000000199
20
0.14374999999873239
0
LWPOLYLINE
5
140
100
AcDbEntity
8
0
100
AcDbPolyline
90
8
70
1
43
0.0
10
-169.92373000000015
20
-44.006250000001153
10
-169.92373000000015
20
-56.006250000001145
42
0.41421356237310542
10
-168.92373000000006
20
-57.006250000001124
10
-152.5437500000001
20
-57.006250000001195
42
0.41421356237309764
10
-151.54375000000013
20
-56.00625000000111
10
-151.54375000000019
20
-44.006250000001117
42
0.41421356237309764
10
-152.54375000000016
20
-43.006250000001103
10
-168.92373000000006
20
-43.00625000000116
42
0.41421356237310542
0
LWPOLYLINE
5
141
100
AcDbEntity
8
0
100
AcDbPolyline
90
8
70
1
43
0.0
10
-149.16122999999999
20
-17.906250000006096
10
-149.16122999999999
20
-5.906250000006068
42
0.41421356237308399
10
-150.16122999999999
20
-4.9062500000060734
10
-168.92373000000006
20
-4.9062500000060005
42
0.41421356237310542
10
-169.92373000000012
20
-5.906250000006068
10
-169.92373000000009
20
-17.906250000006096
42
0.41421356237310542
10
-168.92373000000006
20
-18.906250000006111
10
-150.16123000000007
20
-18.906250000006096
42
0.41421356237309631
0
LWPOLYLINE
5
142
100
AcDbEntity
8
0
100
AcDbPolyline
90
8
70
1
43
0.0
10
-52.243749999999807
20
-24.956250000006293
10
-52.24375000000002
20
-36.956250000000885
42
0.41421356237310802
10
-51.243750000000077
20
-37.956250000000928
10
-39.243749999999977
20
-37.956250000000935
42
0.41421356237308593
10
-38.243750000000041
20
-36.956250000001027
10
-38.243749999999835
20
-24.956250000006115
42
0.41421356237311063
10
-39.243749999999835
20
-23.956250000006065
10
-51.243749999999864
20
-23.956250000006332
42
0.4142135623730937
0
LWPOLYLINE
5
143
100
AcDbEntity
8
0
100
AcDbPolyline
90
4
70
1
43
0.0
10
-76.343749999999844
20
36.599999999996569
10
-109.39375000000005
20
36.59999999999652
42
-0.99999999999999989
10
-109.39375000000005
20
39.599999999996562
10
-76.343749999999844
20
39.599999999996655
42
-0.99999999999999989
0
LWPOLYLINE
5
144
100
AcDbEntity
8
0
100
AcDbPolyline
90
4
70
1
43
0.0
10
4.6187500000002046
20
36.599999999996591
10
-28.431250000000006
20
36.599999999996555
42
-0.99999999999999989
10
-28.431250000000006
20
39.599999999996598
10
4.6187500000002046
20
39.599999999996705
42
-0.99999999999999989
0
LWPOLYLINE
5
145
100
AcDbEntity
8
0
100
AcDbPolyline
90
8
70
1
43
0.0
10
170.05625000000003
20
-3.4787892798780229
42
-0.41421356237311563
10
171.25624999999999
20
-4.6787892798780106
10
171.25624999999999
20
-4.7787892798779552
42
-0.41421356237311541
10
170.05625000000003
20
-5.9787892798779563
10
159.45625000000004
20
-5.9787892798779882
42
-0.41421356237309204
10
158.25625000000002
20
-4.7787892798779907
10
158.25624999999997
20
-4.6787892798780462
42
-0.41421356237309248
10
159.45625000000004
20
-3.4787892798780007
0
LWPOLYLINE
5
146
100
AcDbEntity
8
0
100
AcDbPolyline
90
8
70
1
43
0.0
10
171.30625000000006
20
-56.006250000001145
42
-0.4142135623730846
10
170.30624999999998
20
-57.006250000001195
10
158.30625000000001
20
-57.006250000001103
42
-0.41421356237308982
10
157.30625000000001
20
-56.00625000000111
10
157.30624999999998
20
-44.006250000001081
42
-0.41421356237308982
10
158.30625000000001
20
-43.006250000001067
10
170.30625000000001
20
-43.006250000001103
42
-0.41421356237310542
10
171.30625000000003
20
-44.006250000001081
0
LWPOLYLINE
5
147
100
AcDbEntity
8
0
100
AcDbPolyline
90
8
70
1
43
0.0
10
10.668749999999818
20
14.143750000000592
10
22.66875000000006
20
14.143750000000496
42
-0.41421356237309825
10
23.668750000000003
20
13.143750000000551
10
23.668749999999999
20
1.1437500000007361
42
-0.41421356237309503
10
22.668749999999775
20
0.14375000000051319
10
10.668750000000031
20
0.14374999999873225
42
-0.41421356237309509
10
9.6687500000000171
20
1.1437499999987466
10
9.6687499999982496
20
13.143749999999024
42
-0.4142135623730937
0
LWPOLYLINE
5
148
100
AcDbEntity
8
0
100
AcDbPolyline
90
8
70
1
43
0.0
10
34.481250000000117
20
57.006249999998587
10
46.481250000000429
20
57.006249999998587
42
-0.41421356237309503
10
47.481250000000429
20
56.006249999998587
10
47.481250000000429
20
44.006249999999383
42
-0.41421356237307683
10
46.481250000000536
20
43.006249999999554
10
34.481249999999982
20
43.006249999999504
42
-0.41421356237310802
10
33.48124999999996
20
44.00624999999954
10
33.481250000000003
20
56.006249999998474
42
-0.41421356237310025
0
LWPOLYLINE
5
149
100
AcDbEntity
8
0
100
AcDbPolyline
90
8
70
1
43
0.0
10
-89.343749999999957
20
-37.956250000000921
42
-0.41421356237309115
10
-90.343749999999972
20
-36.956250000000885
10
-90.343749999999659
20
-24.956250000006186
42
-0.41421356237308982
10
-89.343749999999602
20
-23.956250000006165
10
-77.343749999999858
20
-23.956250000005994
42
-0.41421356237312101
10
-76.343749999999773
20
-24.956250000006133
10
-76.343750000000057
20
-36.956250000001027
42
-0.41421356237308332
10
-77.34375
20
-37.956250000000935
0
LWPOLYLINE
5
150
100
AcDbEntity
8
0
100
AcDbPolyline
90
8
70
1
43
0.0
10
-133.49374999999995
20
44.006249999998772
42
-0.41421356237310281
10
-134.49374999999989
20
43.006249999998829
10
-146.49374999999998
20
43.006249999998801
42
-0.41421356237310281
10
-147.49375000000003
20
44.006249999998843
10
-147.49375000000012
20
56.00624999999846
42
-0.41421356237310802
10
-146.49374999999998
20
57.006249999998602
10
-134.49375000000003
20
57.006249999998609
42
-0.41421356237310281
10
-133.49375000000003
20
56.006249999998573
0
LWPOLYLINE
5
151
100
AcDbEntity
8
0
100
AcDbPolyline
90
8
70
1
43
0.0
10
-101.15625000000016
20
19.193749999998886
10
-113.15625000000082
20
19.193749999998865
42
-0.41421356237309115
10
-114.15624999999999
20
20.193749999998047
10
-114.15624999999991
20
32.193749999993884
42
-0.41421356237310414
10
-113.15624999999997
20
33.193749999993827
10
-101.15625000000009
20
33.193749999994381
42
-0.41421356237308854
10
-100.15625
20
32.193749999994317
10
-100.15624999999986
20
20.193749999999042
42
-0.41421356237314838
0
LWPOLYLINE
5
152
100
AcDbEntity
8
0
100
AcDbPolyline
90
8
70
1
43
0.0
10
-22.668749999999989
20
-18.906250000006111
10
-10.668750000000244
20
-18.906250000006093
42
0.4142135623730957
10
-9.6687500000000188
20
-17.906250000005457
10
-9.6687500000000171
20
-5.906250000005322
42
0.41421356237309503
10
-10.668750000000102
20
-4.9062500000053211
10
-22.668750000000131
20
-4.9062500000064313
42
0.41421356237309209
10
-23.668750000000003
20
-5.9062500000062101
10
-23.668749999999989
20
-17.906250000006096
42
0.41421356237309698
0
LWPOLYLINE
5
153
100
AcDbEntity
8
0
100
AcDbPolyline
90
8
70
1
43
0.0
10
-109.39374999999967
20
-24.956250000006115
42
-0.41421356237308982
10
-108.39374999999961
20
-23.956250000006094
10
-96.393749999999798
20
-23.956250000006083
42
-0.41421356237310153
10
-95.393749999999784
20
-24.956250000006118
10
-95.393750000000068
20
-36.956250000001049
42
-0.4142135623730781
10
-96.393750000000011
20
-37.956250000000935
10
-108.39374999999997
20
-37.956250000000921
42
-0.41421356237309115
10
-109.39374999999998
20
-36.956250000000885
0
LWPOLYLINE
5
154
100
AcDbEntity
8
0
100
AcDbPolyline
90
8
70
1
43
0.0
10
-9.3812499999999943
20
1.1437499999987466
10
-9.381249999999973
20
13.143749999999024
42
-0.41421356237309404
10
-8.3812500000001933
20
14.143749999998803
10
3.6187499999999062
20
14.143750000000644
42
-0.4142135623730962
10
4.6187499999999631
20
13.143750000000587
10
4.6187500000017501
20
1.1437500000007363
42
-0.41421356237309537
10
3.618749999999765
20
0.14374999999875016
10
-8.3812499999999783
20
0.14374999999873295
42
-0.41421356237309587
0
LWPOLYLINE
5
155
100
AcDbEntity
8
0
100
AcDbPolyline
90
8
70
1
43
0.0
10
-98.868750000000034
20
-18.906250000006111
10
-86.868750000000148
20
-18.906250000006111
42
0.41421356237310025
10
-85.868750000000091
20
-17.906250000005951
10
-85.868750000000063
20
-5.9062500000057838
42
0.41421356237308948
10
-86.868750000000148
20
-4.9062500000057883
10
-98.868750000000176
20
-4.9062500000061586
42
0.41421356237309664
10
-99.868750000000048
20
-5.9062500000061036
10
-99.868750000000048
20
-17.906250000006096
42
0.41421356237308982
0
LWPOLYLINE
5
156
100
AcDbEntity
8
0
100
AcDbPolyline
90
4
70
1
43
0.0
10
85.581250000000111
20
36.599999999996541
10
52.531249999999901
20
36.599999999996484
42
-0.99999999999999989
10
52.531249999999901
20
39.599999999996527
10
85.581250000000111
20
39.599999999996612
42
-0.99999999999999989
0
LWPOLYLINE
5
157
100
AcDbEntity
8
0
100
AcDbPolyline
90
8
70
1
43
0.0
10
170.30625000000001
20
14.143749999998825
42
-0.41421356237310542
10
171.30625000000003
20
13.143749999998846
10
171.30625000000006
20
1.1437499999987468
42
-0.41421356237308271
10
170.30624999999998
20
0.14374999999869006
10
158.30625000000001
20
0.14374999999878624
42
-0.41421356237308971
10
157.30624999999998
20
1.1437499999988177
10
157.30624999999975
20
13.143749999998631
42
-0.41421356237309764
10
158.30624999999995
20
14.143749999998825
0
LWPOLYLINE
5
158
100
AcDbEntity
8
0
100
AcDbPolyline
90
8
70
1
43
0.0
10
-145.11123000000012
20
-57.006250000001117
42
-0.41421356237309764
10
-146.11123000000012
20
-56.00625000000111
10
-146.11123000000003
20
-44.006250000001117
42
-0.41421356237309764
10
-145.11123000000003
20
-43.006250000001117
10
-128.73125000000016
20
-43.006250000001131
42
-0.41421356237308721
10
-127.73125000000014
20
-44.006250000001153
10
-127.7312500000001
20
-56.00625000000111
42
-0.41421356237309764
10
-128.73125000000016
20
-57.00625000000116
0
LWPOLYLINE
5
159
100
AcDbEntity
8
0
100
AcDbPolyline
90
8
70
1
43
0.0
10
37.653124999999932
20
-60.506250000001174
10
37.653124999999932
20
-59.506250000001195
42
-0.41421356237309503
10
38.653124999999946
20
-58.506250000001181
10
42.653124999999932
20
-58.506250000001181
42
-0.4142135623730846
10
43.653124999999875
20
-59.506250000001231
10
43.65312499999991
20
-60.506250000001174
42
-0.41421356237310542
10
42.653124999999932
20
-61.506250000001188
10
38.653124999999946
20
-61.506250000001188
42
-0.41421356237313667
0
LWPOLYLINE
5
160
100
AcDbEntity
8
0
100
AcDbPolyline
90
4
70
1
43
0.0
10
-131.29604008465691
20
-36.956250000000921
42
-0.99999999999999989
10
-133.29604008465694
20
-36.956250000000921
10
-133.29604008465685
20
-24.956250000000892
42
-0.99999999999999989
10
-131.29604008465697
20
-24.956250000000892
0
LWPOLYLINE
5
161
100
AcDbEntity
8
0
100
AcDbPolyline
90
8
70
1
43
0.0
10
-166.54374999999999
20
13.143749999998775
42
-0.41421356237310542
10
-165.54374999999993
20
14.143749999998775
10
-153.54375000000019
20
14.143749999998771
42
-0.41421356237308982
10
-152.54375000000016
20
13.143749999998775
10
-152.54375000000016
20
1.1437499999987468
42
-0.41421356237308976
10
-153.54375000000019
20
0.14374999999873239
10
-165.54374999999993
20
0.14374999999876847
42
-0.4142135623731053
10
-166.54374999999993
20
1.1437499999987466
0
LWPOLYLINE
5
162
100
AcDbEntity
8
0
100
AcDbPolyline
90
8
70
1
43
0.0
10
-60.768750000000011
20
-18.906250000006111
10
-48.768750000000196
20
-18.906250000006111
42
0.41421356237308787
10
-47.768750000000026
20
-17.906250000005667
10
-47.76875000000004
20
-5.9062500000055351
42
0.41421356237309537
10
-48.768750000000125
20
-4.9062500000055378
10
-60.768750000000153
20
-4.9062500000062848
42
0.4142135623730947
10
-61.768750000000026
20
-5.9062500000061746
10
-61.768750000000011
20
-17.906250000006096
42
0.41421356237309503
0
LWPOLYLINE
5
163
100
AcDbEntity
8
0
100
AcDbPolyline
90
8
70
1
43
0.0
10
23.956250000000239
20
-24.956250000006612
10
23.956250000000026
20
-36.95625000000085
42
0.41421356237310936
10
24.956249999999972
20
-37.956250000000892
10
36.956249999999926
20
-37.956250000000921
42
0.41421356237308982
10
37.956249999999926
20
-36.956250000000949
10
37.956250000000281
20
-24.956250000006118
42
0.41421356237310542
10
36.956250000000281
20
-23.956250000006065
10
24.956250000000324
20
-23.956250000006591
42
0.41421356237307944
0
LWPOLYLINE
5
164
100
AcDbEntity
8
0
100
AcDbPolyline
90
8
70
1
43
0.0
10
-46.481249999999932
20
0.14374999999874877
42
-0.41421356237309548
10
-47.481249999999932
20
1.1437499999987466
10
-47.481249999999982
20
13.143749999998988
42
-0.41421356237309437
10
-46.481250000000145
20
14.143749999998825
10
-34.481250000000188
20
14.14375000000039
42
-0.41421356237313728
10
-33.481250000000102
20
13.143750000000445
10
-33.481249999999818
20
1.1437500000000258
42
-0.41421356237313611
10
-34.481250000001253
20
0.14374999999873239
0
LWPOLYLINE
5
165
100
AcDbEntity
8
0
100
AcDbPolyline
90
8
70
1
43
0.0
10
-41.71875
20
-18.906250000006111
10
-29.718750000000185
20
-18.906250000006111
42
0.41421356237310025
10
-28.718750000000021
20
-17.906250000005524
10
-28.718750000000028
20
-5.9062500000054641
42
0.41421356237309503
10
-29.718750000000117
20
-4.9062500000054632
10
-41.718750000000142
20
-4.9062500000063753
42
0.41421356237309404
10
-42.718750000000014
20
-5.9062500000062101
10
-42.71875
20
-17.906250000006096
42
0.41421356237309503
0
LWPOLYLINE
5
166
100
AcDbEntity
8
0
100
AcDbPolyline
90
4
70
1
43
0.0
10
-157.30625000000003
20
36.599999999996271
10
-171.30625000000003
20
36.599999999996271
42
-0.99999999999999989
10
-171.30625000000003
20
39.599999999996314
10
-157.30625000000003
20
39.599999999996314
42
-0.99999999999999989
0
LWPOLYLINE
5
167
100
AcDbEntity
8
0
100
AcDbPolyline
90
8
70
1
43
0.0
10
-157.30625000000003
20
20.1937499999989
10
-157.30625000000003
20
32.193749999993955
42
0.41421356237309115
10
-158.30625000000012
20
33.193749999993955
10
-170.3062500000002
20
33.193749999994026
42
0.41421356237310802
10
-171.30625000000023
20
32.193749999994019
10
-171.30625000000023
20
20.1937499999989
42
0.41421356237310542
10
-170.3062500000002
20
19.193749999998879
10
-158.30625000000003
20
19.1937499999989
42
0.41421356237308982
0
LWPOLYLINE
5
168
100
AcDbEntity
8
0
100
AcDbPolyline
90
8
70
1
43
0.0
10
-53.531249999999631
20
43.006249999999199
10
-65.531249999999801
20
43.006249999999149
42
-0.41421356237311063
10
-66.531249999999858
20
44.006249999999199
10
-66.531249999999972
20
56.006249999998516
42
-0.4142135623730846
10
-65.531249999999801
20
57.006249999998658
10
-53.531249999999773
20
57.006249999998566
42
-0.4142135623730846
10
-52.531249999999829
20
56.006249999998658
10
-52.531249999999773
20
44.006249999999056
42
-0.41421356237309503
0
LWPOLYLINE
5
169
100
AcDbEntity
8
0
100
AcDbPolyline
90
8
70
1
43
0.0
10
-28.431250000000006
20
44.006249999999412
10
-28.431249999999977
20
56.006249999998658
42
-0.41421356237308721
10
-27.43124999999992
20
57.006249999998673
10
-15.43124999999975
20
57.006249999998658
42
-0.41421356237309503
10
-14.43124999999975
20
56.006249999998658
10
-14.431249999999658
20
44.006249999999305
42
-0.41421356237309698
10
-15.431249999999608
20
43.006249999999362
10
-27.43124999999992
20
43.006249999999298
42
-0.41421356237310802
0
LWPOLYLINE
5
170
100
AcDbEntity
8
0
100
AcDbPolyline
90
8
70
1
43
0.0
10
42.653125000000642
20
61.506249999998204
42
-0.41421356237310542
10
43.653125000000585
20
60.506249999998225
10
43.653125000000585
20
59.506249999998282
42
-0.4142135623730846
10
42.653125000000642
20
58.506249999998232
10
38.653125000000657
20
58.506249999998303
42
-0.41421356237309503
10
37.653125000000642
20
59.506249999998317
10
37.653125000000607
20
60.506249999998332
42
-0.41421356237312623
10
38.653125000000657
20
61.506249999998346
0
LWPOLYLINE
5
171
100
AcDbEntity
8
0
100
AcDbPolyline
90
8
70
1
43
0.0
10
-117.91875000000005
20
-18.906250000006111
10
-105.91875000000016
20
-18.906250000006111
42
0.41421356237310025
10
-104.9187500000001
20
-17.906250000005986
10
-104.91875000000007
20
-5.906250000005997
42
0.41421356237308948
10
-105.91875000000016
20
-4.9062500000060014
10
-117.91875000000005
20
-4.9062500000061027
42
0.41421356237308982
10
-118.91875000000006
20
-5.9062500000061036
10
-118.91875000000006
20
-17.906250000006096
42
0.41421356237308982
0
LWPOLYLINE
5
172
100
AcDbEntity
8
0
100
AcDbPolyline
90
8
70
1
43
0.0
10
-123.68124999999999
20
13.143749999998846
10
-123.68124999999999
20
1.1437499999987466
42
0.41421356237308971
10
-122.68124999999998
20
0.14374999999875071
10
-110.68125000000009
20
0.14374999999873239
42
0.41421356237308909
10
-109.68125000000003
20
1.1437499999988177
10
-109.68125000000001
20
13.143749999998846
42
0.41421356237308982
10
-110.68125000000002
20
14.14374999999886
10
-122.68124999999998
20
14.143749999998789
42
0.41421356237309698
0
LWPOLYLINE
5
173
100
AcDbEntity
8
0
100
AcDbPolyline
90
8
70
1
43
0.0
10
-17.906250000000128
20
19.193749999998932
42
-0.41421356237309437
10
-18.906250000000128
20
20.193749999998936
10
-18.906250000000064
20
32.193749999993706
42
-0.41421356237309503
10
-17.906250000000341
20
33.193749999993429
10
-5.9062500000000284
20
33.193749999994928
42
-0.4142135623731103
10
-4.9062500000000142
20
32.193749999995006
10
-4.9062499999982103
20
20.193750000000783
42
-0.41421356237309276
10
-5.9062500000000995
20
19.193749999998893
0
LWPOLYLINE
5
174
100
AcDbEntity
8
0
100
AcDbPolyline
90
4
70
1
43
0.0
10
-75.318750000000065
20
45.006249999998289
10
-75.318749999999994
20
55.006249999998396
42
-0.99999999999999989
10
-72.318750000000023
20
55.006249999998396
10
-72.318749999999952
20
45.006249999998502
42
-0.99999999999999989
0
LWPOLYLINE
5
175
100
AcDbEntity
8
0
100
AcDbPolyline
90
8
70
1
43
0.0
10
56.006250000000222
20
-23.956250000006072
42
-0.41421356237310936
10
57.006250000000222
20
-24.956250000006118
10
57.006249999999937
20
-36.956250000000978
42
-0.41421356237307683
10
56.006249999999937
20
-37.956250000000928
10
44.00624999999998
20
-37.956250000000907
42
-0.41421356237310675
10
43.006249999999966
20
-36.95625000000085
10
43.006249999999639
20
-24.956250000006683
42
-0.41421356237309243
10
44.006250000000335
20
-23.956250000006012
0
LWPOLYLINE
5
176
100
AcDbEntity
8
0
100
AcDbPolyline
90
4
70
1
43
0.0
10
-145.56499000000008
20
-5.906250000006068
42
-0.99999999999999989
10
-142.56499000000014
20
-5.906250000006068
10
-142.56499000000005
20
-17.906250000006096
42
-0.99999999999999989
10
-145.56499000000017
20
-17.906250000006096
0
LWPOLYLINE
5
177
100
AcDbEntity
8
0
100
AcDbPolyline
90
8
70
1
43
0.0
10
42.006249999999881
20
-44.006250000001153
10
42.006249999999881
20
-56.006250000001145
42
0.41421356237309503
10
43.006249999999895
20
-57.006250000001145
10
61.76874999999999
20
-57.006250000000747
42
0.41421356237309503
10
62.768749999999983
20
-56.006250000001145
10
62.768749999999955
20
-44.006250000001117
42
0.41421356237309503
10
61.768749999999955
20
-43.006250000001067
10
43.006249999999966
20
-43.006250000001096
42
0.41421356237309503
0
LWPOLYLINE
5
178
100
AcDbEntity
8
0
100
AcDbPolyline
90
8
70
1
43
0.0
10
-57.006250000000023
20
32.193749999993813
10
-57.006250000000094
20
20.1937499999989
42
0.41421356237309503
10
-56.006250000000151
20
19.193749999998904
10
-44.006250000000122
20
19.193749999998893
42
0.4142135623730937
10
-43.006249999999895
20
20.193750000000819
10
-43.006250000000051
20
32.193749999994701
42
0.41421356237309503
10
-44.006250000000051
20
33.193749999994722
10
-56.006250000000222
20
33.193749999993599
42
0.4142135623730937
0
LWPOLYLINE
5
179
100
AcDbEntity
8
0
100
AcDbPolyline
90
8
70
1
43
0.0
10
-38.653124999999307
20
61.506249999999305
42
-0.41421356237312623
10
-37.653124999999363
20
60.506249999999255
10
-37.653124999999363
20
59.506249999999312
42
-0.41421356237309503
10
-38.653124999999378
20
58.506249999999298
10
-42.653124999999363
20
58.506249999999298
42
-0.41421356237309503
10
-43.653124999999449
20
59.506249999999383
10
-43.653124999999449
20
60.506249999999397
42
-0.41421356237311585
10
-42.653124999999434
20
61.506249999999341
0
LWPOLYLINE
5
180
100
AcDbEntity
8
0
100
AcDbPolyline
90
8
70
1
43
0.0
10
-119.80625000000011
20
-61.50625000000133
10
-123.80625000000009
20
-61.506250000001295
42
-0.41421356237310542
10
-124.80625000000003
20
-60.506250000001316
10
-124.80625000000003
20
-59.506250000001373
42
-0.41421356237310542
10
-123.80625000000002
20
-58.506250000001323
10
-119.80625000000011
20
-58.506250000001323
42
-0.41421356237309503
10
-118.80625000000009
20
-59.506250000001337
10
-118.80625000000009
20
-60.506250000001316
42
-0.41421356237313667
0
LWPOLYLINE
5
181
100
AcDbEntity
8
0
100
AcDbPolyline
90
24
70
1
43
0.0
10
-161.02432930467637
20
-38.256250000000946
42
-0.41421356237309503
10
-160.72432930467636
20
-37.956250000000942
10
-144.10313016931369
20
-37.956250000000935
42
-0.41421356237309503
10
-143.80313016931368
20
-38.256250000000946
10
-143.80313016931368
20
-38.918250025142243
42
0.41421356237309115
10
-142.80313016931365
20
-39.918250025142278
10
-137.14833016931365
20
-39.918250025142271
42
0.41421356237309115
10
-136.14833016931362
20
-38.918250025142278
10
-136.14833016931362
20
-22.9942499748595
42
0.41421356237309115
10
-137.14833016931365
20
-21.9942499748595
10
-142.80313016931359
20
-21.994249974859539
42
0.41421356237309115
10
-143.80313016931359
20
-22.994249974859535
10
-143.80313016931888
20
-23.656250000006054
42
-0.41421356237309503
10
-144.10313016931369
20
-23.956250000000878
10
-160.72432930467636
20
-23.956250000005994
42
-0.41421356237309503
10
-161.02432930467637
20
-23.656250000005983
10
-161.02432930467637
20
-22.994249974859358
42
0.41421356237310675
10
-162.02432930467637
20
-21.994249974859375
10
-167.67912930467645
20
-21.994249974859397
42
0.41421356237310675
10
-168.67912930467634
20
-22.994249974859393
10
-168.67912930467645
20
-38.918250025142385
42
0.41421356237310675
10
-167.67912930467645
20
-39.91825002514237
10
-162.02432930467637
20
-39.918250025142413
42
0.41421356237310675
10
-161.02432930467637
20
-38.91825002514242
0
LWPOLYLINE
5
182
100
AcDbEntity
8
0
100
AcDbPolyline
90
8
70
1
43
0.0
10
42.718750000000014
20
1.1437500000007361
10
42.718750000000014
20
13.143750000000551
42
0.41421356237309503
10
41.71875
20
14.143750000000548
10
29.718749999999545
20
14.143750000000566
42
0.41421356237309698
10
28.718749999999822
20
13.143749999999093
10
28.718749999999829
20
1.1437499999987821
42
0.4142135623730967
10
29.718749999999829
20
0.14374999999875016
10
41.718749999999716
20
0.14375000000045796
42
0.41421356237309026
0
LWPOLYLINE
5
183
100
AcDbEntity
8
0
100
AcDbPolyline
90
4
70
1
43
0.0
10
-149.13749999999999
20
13.143749999998846
42
-0.99999999999999989
10
-146.13750000000005
20
13.143749999998846
10
-146.13749999999996
20
1.1437499999988177
42
-0.99999999999999989
10
-149.13750000000007
20
1.1437499999988177
0
LWPOLYLINE
5
184
100
AcDbEntity
8
0
100
AcDbPolyline
90
8
70
1
43
0.0
10
-23.956249999999812
20
-43.005770000152893
42
-0.41421356237309503
10
-22.956249999999812
20
-44.005770000152893
10
-22.956249999999816
20
-56.005769999997668
42
-0.41421356237309503
10
-23.956249999999812
20
-57.005769999997668
10
-49.886629999999101
20
-57.005769999997682
42
-0.41421356237309503
10
-50.886629999999116
20
-56.005769999997668
10
-50.886629999999116
20
-44.005770000152893
42
-0.41421356237309503
10
-49.886629999999101
20
-43.005770000152879
0
ARC
5
185
100
AcDbEntity
8
0
100
AcDbCircle
10
-17.956249999999869
20
-49.00576999999771
30
0
40
1.5000000000000204
210
0
220
0
230
1
100
AcDbArc
50
125.41008924313016
51
305.41008924313013
0
LINE
5
186
100
AcDbEntity
8
0
100
AcDbLine
10
-13.255609451646393
20
-43.82352011772609
30
0
11
-18.825387049447002
21
-47.783231334237648
31
0
0
LINE
5
187
100
AcDbEntity
8
0
100
AcDbLine
10
-17.087112950552736
20
-50.228308665757773
30
0
11
-11.517335334534877
21
-46.268597436295181
31
0
0
ARC
5
188
100
AcDbEntity
8
0
100
AcDbCircle
10
-12.38647238398201
20
-45.046058770535069
30
0
40
1.5000000000000637
210
-0
220
0
230
1
100
AcDbArc
50
-54.589910756870964
51
125.41009009690242
0
LWPOLYLINE
5
189
100
AcDbEntity
8
0
100
AcDbPolyline
90
8
70
1
43
0.0
10
139.25624999999985
20
-57.006250000001032
42
-0.41421356237308982
10
138.25624999999985
20
-56.006250000001039
10
138.25624999999997
20
-44.006250000001117
42
-0.41421356237308982
10
139.25624999999997
20
-43.006250000001117
10
151.25624999999997
20
-43.006250000001117
42
-0.41421356237308982
10
152.25624999999994
20
-44.006250000001081
10
152.25624999999997
20
-56.00625000000111
42
-0.41421356237308982
10
151.25624999999997
20
-57.006250000001089
0
LWPOLYLINE
5
190
100
AcDbEntity
8
0
100
AcDbPolyline
90
4
70
1
43
0.0
10
162.39375000000013
20
36.599999999996562
10
129.34374999999991
20
36.59999999999652
42
-0.99999999999999989
10
129.34374999999991
20
39.599999999996562
10
162.39375000000013
20
39.599999999996662
42
-0.99999999999999989
0
LWPOLYLINE
5
191
100
AcDbEntity
8
0
100
AcDbPolyline
90
8
70
1
43
0.0
10
139.45625000000004
20
-10.97878927987799
42
-0.41421356237309237
10
138.25625000000002
20
-9.7787892798779907
10
138.25625000000002
20
-9.6787892798780462
42
-0.41421356237309237
10
139.45625000000004
20
-8.4787892798780469
10
170.05625000000003
20
-8.478789279878022
42
-0.41421356237311563
10
171.25624999999999
20
-9.6787892798780106
10
171.25625000000008
20
-9.7787892798779552
42
-0.41421356237311541
10
170.05625000000003
20
-10.978789279878001
0
LWPOLYLINE
5
192
100
AcDbEntity
8
0
100
AcDbPolyline
90
8
70
1
43
0.0
10
-79.818750000000165
20
-4.9062500000058584
10
-67.818750000000136
20
-4.9062500000057154
42
-0.41421356237309537
10
-66.818750000000136
20
-5.9062500000057128
10
-66.818750000000037
20
-17.906250000005741
42
-0.41421356237309115
10
-67.818750000000136
20
-18.906250000005855
10
-79.818750000000037
20
-18.906250000006104
42
-0.41421356237308005
10
-80.818750000000037
20
-17.906250000006096
10
-80.818750000000477
20
-5.9062500000061746
42
-0.41421356237309664
0
LWPOLYLINE
5
193
100
AcDbEntity
8
0
100
AcDbPolyline
90
8
70
1
43
0.0
10
119.20624999999998
20
20.193749999998758
10
119.20624999999998
20
32.193749999994168
42
-0.41421356237310414
10
120.20624999999993
20
33.193749999994111
10
132.20625000000007
20
33.193749999994161
42
-0.41421356237308982
10
133.20625000000007
20
32.193749999994161
10
133.20624999999976
20
20.193749999998793
42
-0.41421356237308721
10
132.20624999999987
20
19.193749999998914
10
120.20624999999993
20
19.193749999998808
42
-0.41421356237309764
0
LWPOLYLINE
5
194
100
AcDbEntity
8
0
100
AcDbPolyline
90
32
70
1
43
0.0
10
95.321869830686268
20
-39.918250025142385
42
-0.41421356237309115
10
94.321869830686254
20
-38.918250025142385
10
94.321869830686254
20
-38.256250000000982
42
0.41421356237309503
10
94.021869830686242
20
-37.956250000000978
10
77.400670695323655
20
-37.956250000000978
42
0.41421356237309503
10
77.100670695323657
20
-38.256250000000982
10
77.100670695323629
20
-38.918250025142314
42
-0.41421356237311063
10
76.100670695323629
20
-39.918250025142342
10
70.445870695323549
20
-39.918250025142385
42
-0.41421356237309631
10
69.445870695323549
20
-38.918250025142385
10
69.445870695323549
20
-22.994249974859429
42
-0.41421356237309631
10
70.445870695323549
20
-21.994249974859432
10
76.100670695323487
20
-21.994249974859429
42
-0.41421356237309631
10
77.100670695323487
20
-22.994249974859429
10
77.100670695323515
20
-23.656250000006054
42
0.41421356237309503
10
77.400670695323512
20
-23.956250000006058
10
94.021869830686384
20
-23.956250000006058
42
0.41421356237309503
10
94.321869830686353
20
-23.656250000006054
10
94.321869830686396
20
-22.994249974859429
42
-0.41421356237309115
10
95.32186983068641
20
-21.994249974859432
10
100.97666983068635
20
-21.994249974859429
42
-0.41421356237309115
10
101.97666983068636
20
-22.994249974859429
10
101.97666983068636
20
-23.656250000006054
42
0.41421356237309503
10
102.27666983068637
20
-23.956250000006058
10
109.39374999736248
20
-23.956250000006062
42
-0.41421356237309631
10
110.39374999736251
20
-24.956250000006079
10
110.39374999736248
20
-36.956250000006214
42
-0.41421356237309631
10
109.39374999736248
20
-37.956250000006214
10
102.27666983068637
20
-37.9562500000062
42
0.41421356237309503
10
101.97666983068636
20
-38.256250000006204
10
101.97666983068636
20
-38.918250025142385
42
-0.41421356237309115
10
100.97666983068635
20
-39.918250025142385
0
LWPOLYLINE
5
195
100
AcDbEntity
8
0
100
AcDbPolyline
90
8
70
1
43
0.0
10
-42.653125000000145
20
-61.506250000001259
42
-0.41421356237312623
10
-43.653125000000159
20
-60.50625000000128
10
-43.653125000000124
20
-59.506250000001266
42
-0.4142135623730846
10
-42.653125000000074
20
-58.506250000001252
10
-38.653125000000088
20
-58.506250000001252
42
-0.41421356237309503
10
-37.653125000000074
20
-59.506250000001266
10
-37.653125000000074
20
-60.506250000001245
42
-0.41421356237313667
10
-38.653125000000088
20
-61.506250000001259
0
LWPOLYLINE
5
196
100
AcDbEntity
8
0
100
AcDbPolyline
90
8
70
1
43
0.0
10
15.431249999999963
20
43.006249999999454
42
-0.41421356237309503
10
14.431249999999963
20
44.006249999999447
10
14.431249999999897
20
56.006249999998516
42
-0.41421356237310997
10
15.431249999999963
20
57.006249999998602
10
27.431250000000347
20
57.006249999998559
42
-0.41421356237312362
10
28.431250000000361
20
56.00624999999846
10
28.431250000000453
20
44.006249999999447
42
-0.41421356237310153
10
27.431250000000489
20
43.006249999999483
0
LWPOLYLINE
5
197
100
AcDbEntity
8
0
100
AcDbPolyline
90
8
70
1
43
0.0
10
-8.3812499999999091
20
57.006249999998658
10
3.6187500000002615
20
57.006249999998658
42
-0.41421356237309537
10
4.6187500000002624
20
56.006249999998658
10
4.6187500000003521
20
44.006249999999426
42
-0.41421356237311224
10
3.6187500000004036
20
43.006249999999433
10
-8.3812499999999091
20
43.006249999999383
42
-0.41421356237310936
10
-9.3812499999999943
20
44.006249999999483
10
-9.3812499999999552
20
56.006249999998623
42
-0.41421356237309892
0
LWPOLYLINE
5
198
100
AcDbEntity
8
0
100
AcDbPolyline
90
4
70
1
43
0.0
10
87.225000000000037
20
1.1437500000007006
42
-0.99999999999999989
10
84.224999999999994
20
1.1437500000007006
10
84.224999999999966
20
13.143750000000729
42
-0.99999999999999989
10
87.22500000000008
20
13.143750000000729
0
LWPOLYLINE
5
199
100
AcDbEntity
8
0
100
AcDbPolyline
90
8
70
1
43
0.0
10
66.818749999999909
20
13.143749999999166
10
66.818749999999909
20
1.1437499999987821
42
0.41421356237309548
10
67.818749999999966
20
0.14374999999878429
10
79.81874999999971
20
0.14374999999875016
42
0.41421356237307738
10
80.818750000000122
20
1.1437500000008782
10
80.818750000000108
20
13.143750000000871
42
0.41421356237309631
10
79.818750000000477
20
14.143750000000495
10
67.818749999999568
20
14.143749999998834
42
0.41421356237309631
0
LWPOLYLINE
5
200
100
AcDbEntity
8
0
100
AcDbPolyline
90
36
70
1
43
0.0
10
76.312875062954163
20
19.194254116860428
42
-0.40494331022248631
10
75.344623757362484
20
20.193749999995205
10
75.344623757362484
20
32.193749999994807
42
-0.40494331022248753
10
76.312875062954149
20
33.193245883129585
42
0.40494331022249686
10
76.603350454631681
20
33.493094648070034
10
76.603350454631695
20
34.155750025141742
42
-0.41421356237309631
10
77.603350454631681
20
35.155750025141742
10
83.258150454631618
20
35.155750025141778
42
-0.41421356237309115
10
84.258150454631647
20
34.155750025141778
10
84.258150454631647
20
33.493749999994691
42
0.41421356237312978
10
84.558150454631686
20
33.193749999994687
10
101.17934958999456
20
33.193749999992981
42
0.41421356237306034
10
101.47934958999454
20
33.493749999995686
10
101.47934958999454
20
34.155750025141742
42
-0.41421356237309115
10
102.47934958999454
20
35.155750025141742
10
108.13414958999448
20
35.155750025141778
42
-0.41421356237309115
10
109.13414958999451
20
34.155750025141778
10
109.13414958999451
20
33.493094648070034
42
0.40494331022249658
10
109.42462498167203
20
33.193245883129606
42
-0.40494331022248631
10
110.3928762872637
20
32.193749999994807
10
110.39287628726369
20
20.193749999995205
42
-0.40494331022248509
10
109.42462498167203
20
19.194254116860424
42
0.40494331022249663
10
109.13414958999451
20
18.894405351919978
10
109.13414958999451
20
18.231749974857436
42
-0.41421356237308982
10
108.13414958999448
20
17.231749974857436
10
102.47934958999451
20
17.23174997485744
42
-0.41421356237308982
10
101.4793495899945
20
18.231749974857436
10
101.47934958999454
20
18.893750000000544
42
0.41421356237309503
10
101.17934958999453
20
19.193749999998914
10
84.558150454631658
20
19.193750000000506
42
0.41421356237309503
10
84.258150454631647
20
18.893750000000509
10
84.258150454631647
20
18.231749974857436
42
-0.41421356237308982
10
83.258150454631618
20
17.231749974857436
10
77.603350454631681
20
17.231749974857369
42
-0.41421356237309503
10
76.603350454631695
20
18.231749974857365
10
76.603350454631681
20
18.894405351919978
42
0.4049433102224882
0
LWPOLYLINE
5
201
100
AcDbEntity
8
0
100
AcDbPolyline
90
8
70
1
43
0.0
10
-104.63124999999998
20
13.143749999998846
10
-104.63124999999998
20
1.1437499999987821
42
0.41421356237308909
10
-103.63124999999989
20
0.14374999999871713
10
-91.63125000000008
20
0.14374999999873239
42
0.41421356237308227
10
-90.631249999999966
20
1.1437499999988887
10
-90.631249999999923
20
13.143749999998846
42
0.41421356237309698
10
-91.631249999999866
20
14.143749999998798
10
-103.63124999999997
20
14.143749999998789
42
0.41421356237309698
0
LWPOLYLINE
5
202
100
AcDbEntity
8
0
100
AcDbPolyline
90
8
70
1
43
0.0
10
1.1437499999998126
20
19.193749999998918
42
-0.41421356237309492
10
0.14374999999986732
20
20.193749999998865
10
0.1437499999999485
20
32.193749999993635
42
-0.4142135623730952
10
1.1437499999996703
20
33.193749999993358
10
13.143749999999912
20
33.193749999995077
42
-0.41421356237309631
10
14.143749999999926
20
32.193749999995177
10
14.143750000001933
20
20.193750000000961
42
-0.41421356237310542
10
13.143749999999912
20
19.193749999998904
0
LWPOLYLINE
5
203
100
AcDbEntity
8
0
100
AcDbPolyline
90
8
70
1
43
0.0
10
-3.6187500000000483
20
-18.906250000006096
42
-0.41421356237309492
10
-4.6187500000000492
20
-17.906250000006096
10
-4.6187500000001265
20
-5.9062500000062457
42
-0.41421356237309437
10
-3.6187500000004036
20
-4.9062500000065228
10
8.381249999999838
20
-4.9062500000051656
42
-0.41421356237311519
10
9.3812499999999233
20
-5.9062500000051799
10
9.3812500000004011
20
-17.906250000005311
42
-0.41421356237311452
10
8.3812499999995538
20
-18.906250000006093
0
LWPOLYLINE
5
204
100
AcDbEntity
8
0
100
AcDbPolyline
90
8
70
1
43
0.0
10
72.581250000000068
20
43.006249999999667
42
-0.41421356237309503
10
71.581250000000068
20
44.00624999999966
10
71.581250000000054
20
56.006249999998381
42
-0.41421356237309764
10
72.581250000000182
20
57.006249999998566
10
84.581249999999599
20
57.006249999998666
42
-0.41421356237310281
10
85.581249999999784
20
56.00624999999841
10
85.581249999999741
20
44.006249999999483
42
-0.41421356237311063
10
84.581249999999983
20
43.006249999999717
0
LWPOLYLINE
5
205
100
AcDbEntity
8
0
100
AcDbPolyline
90
4
70
1
43
0.0
10
166.68750000131894
20
-24.956250000005689
10
166.68750000131919
20
-36.956250000005681
42
-0.99999999999999989
10
162.68750000131914
20
-36.956250000005753
10
162.68750000131894
20
-24.956250000005689
42
-0.99999999999999989
0
LWPOLYLINE
5
206
100
AcDbEntity
8
0
100
AcDbPolyline
90
8
70
1
43
0.0
10
-72.581249999999926
20
14.143749999998914
42
-0.41421356237309503
10
-71.581249999999926
20
13.143749999998917
10
-71.581249999999898
20
1.1437499999989955
42
-0.41421356237309148
10
-72.581249999999997
20
0.14374999999888352
10
-84.581249999999955
20
0.14374999999875071
42
-0.41421356237308971
10
-85.581249999999969
20
1.1437499999987466
10
-85.581250000000111
20
13.143749999998917
42
-0.4142135623730866
10
-84.581250000000097
20
14.143749999998931
0
LWPOLYLINE
5
207
100
AcDbEntity
8
0
100
AcDbPolyline
90
8
70
1
43
0.0
10
157.30625000000003
20
56.006249999998587
42
-0.41421356237310281
10
158.30625000000009
20
57.006249999998637
10
170.30625000000001
20
57.006249999998602
42
-0.41421356237310542
10
171.30625000000003
20
56.006249999998623
10
171.30625000000003
20
44.006249999999945
42
-0.41421356237309764
10
170.30625000000009
20
43.006250000000001
10
158.30624999999998
20
43.006249999999973
42
-0.41421356237310281
10
157.30625000000003
20
44.006249999999909
0
LWPOLYLINE
5
208
100
AcDbEntity
8
0
100
AcDbPolyline
90
8
70
1
43
0.0
10
139.25625000000002
20
-37.956250000000885
42
-0.41421356237309115
10
138.25625000000002
20
-36.956250000000885
10
138.25625000000014
20
-24.956250000006079
42
-0.41421356237309115
10
139.25625000000014
20
-23.956250000006083
10
151.25625000000008
20
-23.956250000006044
42
-0.41421356237309631
10
152.25625000000011
20
-24.956250000006097
10
152.25624999999991
20
-36.956250000000885
42
-0.41421356237310025
10
151.25624999999991
20
-37.9562500000009
0
LWPOLYLINE
5
209
100
AcDbEntity
8
0
100
AcDbPolyline
90
8
70
1
43
0.0
10
-108.39375000000018
20
43.006249999998943
42
-0.41421356237310281
10
-109.39375000000013
20
44.006249999998879
10
-109.3937500000001
20
56.00624999999846
42
-0.41421356237310802
10
-108.39374999999997
20
57.006249999998595
10
-96.393749999999869
20
57.006249999998609
42
-0.41421356237309764
10
-95.393749999999855
20
56.006249999998587
10
-95.393749999999756
20
44.006249999998808
42
-0.41421356237309243
10
-96.393749999999585
20
43.006249999998971
0
LWPOLYLINE
5
210
100
AcDbEntity
8
0
100
AcDbPolyline
90
4
70
1
43
0.0
10
-33.48124999999996
20
36.599999999996456
10
-66.531250000000028
20
36.599999999996378
42
-0.99999999999999989
10
-66.531250000000028
20
39.59999999999642
10
-33.48124999999996
20
39.599999999996555
42
-0.99999999999999989
0
LWPOLYLINE
5
211
100
AcDbEntity
8
0
100
AcDbPolyline
90
8
70
1
43
0.0
10
-94.106250000000102
20
19.193749999998879
42
-0.41421356237309764
10
-95.106250000000045
20
20.193749999998829
10
-95.106250000000074
20
32.193749999993884
42
-0.41421356237310281
10
-94.106250000000173
20
33.19374999999377
10
-82.106250000000003
20
33.193749999994516
42
-0.41421356237308332
10
-81.106249999999989
20
32.193749999994537
10
-81.106249999999775
20
20.193749999999113
42
-0.41421356237313928
10
-82.106250000000145
20
19.193749999998886
0
LWPOLYLINE
5
212
100
AcDbEntity
8
0
100
AcDbPolyline
90
8
70
1
43
0.0
10
151.25625000000008
20
33.193749999994026
42
-0.41421356237309115
10
152.25625000000008
20
32.193749999994026
10
152.25625000000002
20
20.193749999998857
42
-0.41421356237307944
10
151.25624999999988
20
19.193749999998751
10
139.25625000000002
20
19.193749999998744
42
-0.41421356237309503
10
138.25624999999999
20
20.193749999998793
10
138.25625000000133
20
32.193749999994274
42
-0.41421356237310414
10
139.25624999999991
20
33.193749999992839
0
LWPOLYLINE
5
213
100
AcDbEntity
8
0
100
AcDbPolyline
90
8
70
1
43
0.0
10
170.05625000000003
20
-13.478789279878022
42
-0.41421356237311563
10
171.25624999999999
20
-14.678789279878011
10
171.25624999999999
20
-14.778789279877955
42
-0.41421356237311563
10
170.05625000000003
20
-15.978789279877956
10
159.45625000000004
20
-15.97878927987799
42
-0.41421356237309237
10
158.25625000000002
20
-14.778789279877991
10
158.25624999999997
20
-14.678789279878046
42
-0.41421356237309237
10
159.45625000000004
20
-13.478789279878001
0
LWPOLYLINE
5
214
100
AcDbEntity
8
0
100
AcDbPolyline
90
8
70
1
43
0.0
10
-128.44374999999991
20
44.0062499999989
10
-128.44374999999997
20
56.00624999999846
42
-0.41421356237310802
10
-127.44374999999984
20
57.006249999998595
10
-115.44374999999995
20
57.006249999998587
42
-0.41421356237308982
10
-114.44374999999994
20
56.006249999998587
10
-114.44375000000001
20
44.006249999998772
42
-0.41421356237308721
10
-115.44374999999988
20
43.006249999998886
10
-127.44374999999991
20
43.006249999998907
42
-0.41421356237309764
0
LWPOLYLINE
5
215
100
AcDbEntity
8
0
100
AcDbPolyline
90
8
70
1
43
0.0
10
5.9062499999999574
20
-37.956250000000921
42
-0.41421356237310641
10
4.9062499999999565
20
-36.956250000000878
10
4.9062500000002585
20
-24.956250000006541
42
-0.41421356237308332
10
5.9062500000003126
20
-23.95625000000652
10
17.906250000000199
20
-23.956250000006069
42
-0.41421356237311452
10
18.906250000000213
20
-24.956250000006133
10
18.906249999999837
20
-36.95625000000102
42
-0.4142135623730846
10
17.906249999999915
20
-37.956250000000921
0
LWPOLYLINE
5
216
100
AcDbEntity
8
0
100
AcDbPolyline
90
8
70
1
43
0.0
10
53.531250000000057
20
43.006249999999625
42
-0.41421356237309503
10
52.531250000000057
20
44.006249999999625
10
52.531250000000028
20
56.006249999998481
42
-0.41421356237308982
10
53.531250000000128
20
57.006249999998602
10
65.531249999999872
20
57.006249999998602
42
-0.41421356237310542
10
66.531249999999886
20
56.006249999998552
10
66.531249999999872
20
44.006249999999518
42
-0.41421356237309503
10
65.531249999999972
20
43.006249999999625
0
LWPOLYLINE
5
217
100
AcDbEntity
8
0
100
AcDbPolyline
90
8
70
1
43
0.0
10
33.193750000000222
20
20.193750000000836
10
33.193749999999937
20
32.193749999995319
42
0.41421356237309503
10
32.193749999999923
20
33.193749999995276
10
20.193749999999682
20
33.193749999994694
42
0.41421356237309503
10
19.193750000000016
20
32.193749999993635
10
19.193749999999824
20
20.193749999998936
42
0.41421356237309503
10
20.193749999999824
20
19.193749999998904
10
32.193749999999923
20
19.193750000000449
42
0.41421356237310802
0
LWPOLYLINE
5
218
100
AcDbEntity
8
0
100
AcDbPolyline
90
4
70
1
43
0.0
10
62.726060347661736
20
-24.956250000000892
42
-0.99999999999999989
10
65.726060347661786
20
-24.956250000000892
10
65.726060347661814
20
-36.956250000000921
42
-0.99999999999999989
10
62.726060347661701
20
-36.956250000000921
0
LWPOLYLINE
5
219
100
AcDbEntity
8
0
100
AcDbPolyline
90
24
70
1
43
0.0
10
29.506149830685157
20
-57.506250000001167
42
-0.41421356237309764
10
30.00614983068516
20
-57.006250000001167
10
37.95624999999994
20
-57.006250000001145
42
0.41421356237309503
10
38.95624999999994
20
-56.006250000001145
10
38.956249999999955
20
-44.006250000001117
42
0.41421356237309503
10
37.95624999999994
20
-43.006250000001117
10
30.00614983068516
20
-43.006250000001067
42
-0.41421356237310281
10
29.506149830685189
20
-42.506250000001096
10
29.50614983068526
20
-42.006249999996328
42
0.41421356237315748
10
28.506149830685246
20
-41.006249999996101
10
23.851349830685038
20
-41.006249999996101
42
0.41421356237304302
10
22.851349830685024
20
-42.006249999995937
10
22.85134983068491
20
-42.506250000001096
42
-0.41421356237310025
10
22.35134983068491
20
-43.006250000001103
10
21.576269999999909
20
-43.006250000001096
42
0.41421356237308982
10
20.576269999999894
20
-44.006250000001153
10
20.576269999999909
20
-56.006250000001145
42
0.41421356237309503
10
21.576269999999909
20
-57.006250000001145
10
22.35134983068491
20
-57.006250000001174
42
-0.41421356237309764
10
22.85134983068491
20
-57.506250000001167
10
22.85134983068497
20
-57.706250000006314
42
0.41421356237304691
10
23.851349830684967
20
-58.706250000006136
10
28.506149830685246
20
-58.706250000006136
42
0.41421356237315876
10
29.506149830685246
20
-57.706250000005923
0
LWPOLYLINE
5
220
100
AcDbEntity
8
0
100
AcDbPolyline
90
4
70
1
43
0.0
10
123.82499999868128
20
-24.956250000006008
42
-0.99999999999999989
10
127.82499999868134
20
-24.956250000006079
10
127.82499999868129
20
-36.956250000006072
42
-0.99999999999999989
10
123.82499999868131
20
-36.956250000006072
0
LWPOLYLINE
5
221
100
AcDbEntity
8
0
100
AcDbPolyline
90
8
70
1
43
0.0
10
126.80625000000077
20
61.50624999999728
42
-0.4142135623730846
10
127.80625000000074
20
60.506249999997266
10
127.80625000000074
20
59.506249999997287
42
-0.41421356237307422
10
126.80625000000074
20
58.506249999997273
10
122.80625000000074
20
58.50624999999738
42
-0.41421356237307422
10
121.80625000000077
20
59.506249999997358
10
121.80625000000074
20
60.506249999997337
42
-0.41421356237310542
10
122.80625000000079
20
61.506249999997351
0
LWPOLYLINE
5
222
100
AcDbEntity
8
0
100
AcDbPolyline
90
8
70
1
43
0.0
10
2.6287498306852966
20
-42.006101724443354
42
-0.41421356237309537
10
3.6287498306852939
20
-41.006101724443354
10
14.628749830685166
20
-41.006101724443354
42
-0.41421356237309503
10
15.628749830685166
20
-42.006101724443354
10
15.62874983068518
20
-57.706101724443393
42
-0.41421356237309503
10
14.628749830685166
20
-58.706101724443407
10
3.6287498306852943
20
-58.706101724443371
42
-0.41421356237309553
10
2.6287498306852797
20
-57.706101724443357
0
LWPOLYLINE
5
223
100
AcDbEntity
8
0
100
AcDbPolyline
90
8
70
1
43
0.0
10
-124.80624999999935
20
60.506250000000392
42
-0.41421356237310542
10
-123.80624999999938
20
61.506250000000406
10
-119.80624999999932
20
61.506250000000335
42
-0.41421356237311585
10
-118.80624999999938
20
60.506250000000321
10
-118.80624999999938
20
59.506250000000342
42
-0.4142135623730846
10
-119.80624999999939
20
58.506250000000357
10
-123.80624999999938
20
58.506250000000399
42
-0.4142135623730846
10
-124.80624999999932
20
59.506250000000449
0
LWPOLYLINE
5
224
100
AcDbEntity
8
0
100
AcDbPolyline
90
8
70
1
43
0.0
10
-34.481249999999768
20
57.006249999998616
42
-0.41421356237310281
10
-33.481249999999761
20
56.006249999998623
10
-33.481249999999726
20
44.006249999999199
42
-0.41421356237310675
10
-34.481249999999619
20
43.00624999999927
10
-46.481249999999932
20
43.006249999999255
42
-0.41421356237311063
10
-47.481249999999875
20
44.006249999999234
10
-47.48125000000006
20
56.006249999998516
42
-0.41421356237308982
10
-46.481249999999932
20
57.006249999998644
0
LWPOLYLINE
5
225
100
AcDbEntity
8
0
100
AcDbPolyline
90
8
70
1
43
0.0
10
-75.502499736996015
20
-57.706250000006136
42
-0.41421356237309503
10
-76.502499736996015
20
-58.706250000006136
10
-79.502499736995986
20
-58.706250000006143
42
-0.41421356237308204
10
-80.502499736996
20
-57.706250000006136
10
-80.502499736996
20
-42.00625000000116
42
-0.41421356237308204
10
-79.502499736995986
20
-41.006250000001145
10
-76.502499736996015
20
-41.006250000001074
42
-0.41421356237309503
10
-75.502499736995929
20
-42.00625000000116
0
LWPOLYLINE
5
226
100
AcDbEntity
8
0
100
AcDbPolyline
90
8
70
1
43
0.0
10
-24.956250000000182
20
19.193749999998893
10
-36.956250000000139
20
19.1937499999989
42
-0.41421356237309764
10
-37.956250000000139
20
20.1937499999989
10
-37.956250000000075
20
32.193749999993777
42
-0.41421356237309503
10
-36.956250000000352
20
33.1937499999935
10
-24.956250000000114
20
33.19374999999485
42
-0.41421356237311063
10
-23.956250000000026
20
32.193749999994864
10
-23.956249999998292
20
20.193750000000783
42
-0.41421356237309243
0
LWPOLYLINE
5
227
100
AcDbEntity
8
0
100
AcDbPolyline
90
8
70
1
43
0.0
10
-98.502499736995972
20
-42.00625000000116
42
-0.41421356237308982
10
-97.502499736995958
20
-41.00625000000116
10
-83.502499736995972
20
-41.00625000000116
42
-0.41421356237308982
10
-82.502499736995958
20
-42.00625000000116
10
-82.502499736995944
20
-57.706250000006136
42
-0.41421356237308982
10
-83.502499736995972
20
-58.70625000000615
10
-97.502499736995958
20
-58.706250000006207
42
-0.41421356237308982
10
-98.502499736996043
20
-57.706250000006136
0
LWPOLYLINE
5
228
100
AcDbEntity
8
0
100
AcDbPolyline
90
4
70
1
43
0.0
10
-5.9999999999995879
20
63.506249999999937
10
-75.306249999999508
20
63.506250000000563
42
-0.99999999999999989
10
-75.30624999999965
20
65.506250000000549
10
-5.9999999999994369
20
65.506249999999966
42
-0.99999999999999989
0
LWPOLYLINE
5
229
100
AcDbEntity
8
0
100
AcDbPolyline
90
8
70
1
43
0.0
10
132.2062499999999
20
14.143749999998771
42
-0.41421356237308982
10
133.20624999999993
20
13.143749999998775
10
133.20624999999993
20
1.1437499999988534
42
-0.41421356237308904
10
132.20624999999987
20
0.14374999999879678
10
120.20624999999993
20
0.14374999999879845
42
-0.41421356237309653
10
119.20624999999998
20
1.1437499999987466
10
119.20625000000003
20
13.143749999998915
42
-0.41421356237309764
10
120.20624999999993
20
14.143749999998816
0
LWPOLYLINE
5
230
100
AcDbEntity
8
0
100
AcDbPolyline
90
8
70
1
43
0.0
10
170.30625000000001
20
33.19374999999394
42
-0.41421356237310675
10
171.30625000000003
20
32.193749999993955
10
171.30625000000009
20
20.193749999998758
42
-0.41421356237308204
10
170.30624999999998
20
19.193749999998701
10
158.30624999999995
20
19.193749999998666
42
-0.41421356237309764
10
157.30625000000001
20
20.193749999998616
10
157.30625000000165
20
32.193749999994374
42
-0.41421356237309243
10
158.30625000000003
20
33.193749999992768
0
LWPOLYLINE
5
231
100
AcDbEntity
8
0
100
AcDbPolyline
90
8
70
1
43
0.0
10
170.05625000000003
20
-18.478789279878022
42
-0.41421356237311563
10
171.25624999999999
20
-19.678789279878011
10
171.25624999999999
20
-19.778789279877955
42
-0.41421356237311618
10
170.05625000000003
20
-20.978789279877958
10
139.45625000000004
20
-20.978789279877994
42
-0.41421356237309237
10
138.25625000000002
20
-19.778789279877991
10
138.25624999999997
20
-19.678789279878046
42
-0.41421356237309237
10
139.45625000000004
20
-18.478789279878001
0
LWPOLYLINE
5
232
100
AcDbEntity
8
0
100
AcDbPolyline
90
4
70
1
43
0.0
10
-156.30625000000006
20
-65.506250000001302
42
-0.99999999999999989
10
-156.30625000000015
20
-63.506250000001302
10
-87.306249999999963
20
-63.506250000001273
42
-0.99999999999999989
10
-87.306250000000105
20
-65.506250000001259
0
LWPOLYLINE
5
233
100
AcDbEntity
8
0
100
AcDbPolyline
90
8
70
1
43
0.0
10
151.25624999999988
20
0.14374999999876792
10
139.25625000000002
20
0.14374999999882176
42
-0.41421356237308971
10
138.25625000000002
20
1.1437499999988177
10
138.25624999999999
20
13.143749999998882
42
-0.41421356237309176
10
139.25624999999991
20
14.143749999998771
10
151.25624999999991
20
14.143749999998878
42
-0.41421356237308982
10
152.25624999999997
20
13.143749999998846
10
152.25624999999991
20
1.1437499999988179
42
-0.41421356237308915
0
LWPOLYLINE
5
234
100
AcDbEntity
8
0
100
AcDbPolyline
90
4
70
1
43
0.0
10
-147.49375000000009
20
39.599999999996378
10
-114.44374999999994
20
39.599999999996491
42
-0.99999999999999989
10
-114.44374999999994
20
36.599999999996449
10
-147.49375000000009
20
36.599999999996349
42
-0.99999999999999989
0
LWPOLYLINE
5
235
100
AcDbEntity
8
0
100
AcDbPolyline
90
12
70
1
43
0.0
10
151.30625000000052
20
65.506249999998701
42
-0.99999999999999989
10
151.30625000000052
20
63.506249999998715
10
120.29186140586273
20
63.506249999998886
42
0.41421356237309503
10
119.2918614058627
20
62.506249999998893
10
119.2918614058627
20
60.006249999993919
42
-0.41421356237309503
10
117.29186140586272
20
58.006249999993926
10
111.29721659413732
20
58.006249999993926
42
-0.41421356237309503
10
109.29721659413732
20
60.006249999993919
10
109.2972165941373
20
62.506249999999035
42
0.41421356237309503
10
108.29721659413732
20
63.506249999999028
10
87.306250000000574
20
63.506249999999227
42
-0.99999999999999989
10
87.306250000000489
20
65.506249999999199
0
LWPOLYLINE
5
236
100
AcDbEntity
8
0
100
AcDbPolyline
90
12
70
1
43
0.0
10
-2.9999999999999716
20
63.00624999999993
10
-2.9999999999999813
20
63.999999999998813
42
-0.41421356237309359
10
-1.4999999999999858
20
65.49999999999882
10
1.4999999999999147
20
65.49999999999882
42
-0.4142135623730917
10
2.9999999999999156
20
63.999999999998813
10
2.9999999999999716
20
63.006249999999788
42
0.41421356237309503
10
4.4999999999999574
20
61.506249999999781
10
29.653125000000465
20
61.506249999999589
42
-0.99999999999999989
10
29.653125000000458
20
59.506249999999632
10
-29.653124999999747
20
59.50625000000008
42
-0.99999999999999989
10
-29.653124999999605
20
61.506250000000065
10
-4.4999999999999574
20
61.506249999999923
42
0.41421356237309503
0
LWPOLYLINE
5
237
100
AcDbEntity
8
0
100
AcDbPolyline
90
4
70
1
43
0.0
10
47.481250000000017
20
36.599999999996385
10
14.431249999999878
20
36.599999999996307
42
-0.99999999999999989
10
14.431249999999878
20
39.599999999996349
10
47.481250000000017
20
39.599999999996484
42
-0.99999999999999989
0
LWPOLYLINE
5
238
100
AcDbEntity
8
0
100
AcDbPolyline
90
4
70
1
43
0.0
10
-75.306249999999935
20
-65.506250000001259
42
-0.99999999999999989
10
-75.306249999999935
20
-63.506250000001273
10
-6.0000000000000764
20
-63.506250000001181
42
-0.99999999999999989
10
-6.0000000000000853
20
-65.506250000001216
0
LWPOLYLINE
5
239
100
AcDbEntity
8
0
100
AcDbPolyline
90
4
70
1
43
0.0
10
75.306250000000432
20
65.506249999999298
10
6.0000000000004405
20
65.506249999999838
42
0.99999999999999989
10
6.0000000000005027
20
63.506249999999852
10
75.30625000000046
20
63.506249999999284
42
0.99999999999999989
0
ARC
5
240
100
AcDbEntity
8
0
100
AcDbCircle
10
-61.456407616016833
20
-45.046058770535069
30
0
40
1.5000000000000204
210
0
220
-0
230
1
100
AcDbArc
50
54.589910756869862
51
234.58991075686984
0
LINE
5
241
100
AcDbEntity
8
0
100
AcDbLine
10
-55.017492924788769
20
-47.783231352553329
30
0
11
-60.5872705665697
21
-43.823520104775007
31
0
0
LINE
5
242
100
AcDbEntity
8
0
100
AcDbLine
10
-62.325544665463966
20
-46.268597436295131
30
0
11
-56.755767049446106
21
-50.228308665757794
31
0
0
ARC
5
243
100
AcDbEntity
8
0
100
AcDbCircle
10
-55.886629999998974
20
-49.00576999999771
30
0
40
1.5000000000000349
210
0
220
0
230
1
100
AcDbArc
50
-125.41008924312965
51
54.589909549451995
0
LWPOLYLINE
5
244
100
AcDbEntity
8
0
100
AcDbPolyline
90
8
70
1
43
0.0
10
-58.293749999999847
20
-23.956250000006065
10
-70.293749999999733
20
-23.956250000006012
42
0.41421356237309503
10
-71.293749999999733
20
-24.956250000006225
10
-71.29374999999996
20
-36.956250000000885
42
0.41421356237311585
10
-70.293749999999946
20
-37.956250000000921
10
-58.29375000000006
20
-37.956250000000935
42
0.4142135623730781
10
-57.293750000000117
20
-36.956250000001049
10
-57.293749999999847
20
-24.956250000006115
42
0.41421356237311585
0
LINE
5
245
100
AcDbEntity
8
0
100
AcDbLine
10
-72.803079264297565
20
-46.43330155506824
30
0
11
-57.045479399261794
21
-57.635821554344453
31
0
0
ARC
5
246
100
AcDbEntity
8
0
100
AcDbCircle
10
-71.644229830683912
20
-44.803250025142454
30
0
40
2.0000000000000133
210
0
220
-0
230
1
100
AcDbArc
50
54.589910756870424
51
234.58990954944997
0
ARC
5
247
100
AcDbEntity
8
0
100
AcDbCircle
10
-55.886629999998974
20
-56.005769999997703
30
0
40
2.0000000000000133
210
0
220
0
230
1
100
AcDbArc
50
-125.41008924312959
51
54.58991075686793
0
LINE
5
248
100
AcDbEntity
8
0
100
AcDbLine
10
-54.727780600736082
20
-54.375718445651003
30
0
11
-70.485380431421092
21
-43.173198470795704
31
0
0
ARC
5
249
100
AcDbEntity
8
0
100
AcDbCircle
10
-71.644229830683912
20
-51.803250025142447
30
0
40
1.5000000000000204
210
0
220
-0
230
1
100
AcDbArc
50
54.589910756869862
51
234.5899095494517
0
LINE
5
250
100
AcDbEntity
8
0
100
AcDbLine
10
-65.20531514700167
20
-54.540422601796124
30
0
11
-70.775092781236779
21
-50.580711359382384
31
0
0
LINE
5
251
100
AcDbEntity
8
0
100
AcDbLine
10
-72.513366905894117
20
-53.025788672586813
30
0
11
-66.943589264113186
21
-56.98549992036515
31
0
0
ARC
5
252
100
AcDbEntity
8
0
100
AcDbCircle
10
-66.074452214666053
20
-55.762961254605088
30
0
40
1.5000000000000204
210
0
220
0
230
1
100
AcDbArc
50
-125.41008924313016
51
54.589909903097265
0
LWPOLYLINE
5
253
100
AcDbEntity
8
0
100
AcDbPolyline
90
8
70
1
43
0.0
10
65.818749999999895
20
-44.006250000001153
10
65.818749999999895
20
-56.006250000001145
42
0.41421356237309503
10
66.818749999999881
20
-57.006250000001202
10
83.198729999999983
20
-57.006250000000819
42
0.41421356237308721
10
84.198730000000026
20
-56.00625000000111
10
84.198730000000012
20
-44.006250000001117
42
0.41421356237309764
10
83.198730000000012
20
-43.006250000001067
10
66.818749999999909
20
-43.006250000001096
42
0.41421356237309503
0
LWPOLYLINE
5
254
100
AcDbEntity
8
0
100
AcDbPolyline
90
4
70
1
43
0.0
10
115.79999999999991
20
45.006249999998431
42
-0.99999999999999989
10
112.79999999999987
20
45.006249999998431
10
112.79999999999984
20
55.006249999998431
42
-0.99999999999999989
10
115.79999999999995
20
55.006249999998431
0
LWPOLYLINE
5
255
100
AcDbEntity
8
0
100
AcDbPolyline
90
4
70
1
43
0.0
10
-19.115099399262689
20
-54.375718445650989
10
-3.3574995685777509
20
-43.173198470795704
42
-0.99999999999999989
10
-1.0398007700521106
20
-46.433301579489203
10
-16.797400600737049
20
-57.635821554344417
42
-0.99999999999999989
0
LWPOLYLINE
5
256
100
AcDbEntity
8
0
100
AcDbPolyline
90
8
70
1
43
0.0
10
51.24374999999997
20
33.193749999995347
42
-0.41421356237310281
10
52.243750000000006
20
32.193749999995376
10
52.243750000000304
20
20.193750000000989
42
-0.41421356237312756
10
51.243749999999935
20
19.193750000000591
10
39.243749999999977
20
19.193749999998882
42
-0.41421356237309631
10
38.243749999999963
20
20.1937499999989
10
38.243749999998435
20
32.193749999993528
42
-0.41421356237309503
10
39.243749999999622
20
33.193749999994715
0
LWPOLYLINE
5
257
100
AcDbEntity
8
0
100
AcDbPolyline
90
8
70
1
43
0.0
10
-157.30625000000003
20
44.006249999998701
42
-0.41421356237308982
10
-158.30625000000003
20
43.006249999998701
10
-170.30625000000001
20
43.006249999998616
42
-0.4142135623730846
10
-171.30625000000009
20
44.006249999998666
10
-171.30625000000009
20
56.006249999998552
42
-0.4142135623730846
10
-170.30625000000001
20
57.006249999998595
10
-158.30625000000003
20
57.006249999998609
42
-0.41421356237309764
10
-157.30625000000003
20
56.006249999998587
0
LWPOLYLINE
5
258
100
AcDbEntity
8
0
100
AcDbPolyline
90
4
70
1
43
0.0
10
130.32499999868134
20
-33.956250000006101
10
130.32499999868128
20
-27.956250000006015
42
-0.99999999999999989
10
133.32499999868134
20
-27.956250000006015
10
133.32499999868136
20
-33.956250000005959
42
-0.99999999999999989
0
LWPOLYLINE
5
259
100
AcDbEntity
8
0
100
AcDbPolyline
90
8
70
1
43
0.0
10
53.531249999999986
20
-18.906250000006057
42
-0.41421356237309503
10
52.531249999999986
20
-17.906250000006061
10
52.531249999999964
20
-5.9062500000063878
42
-0.4142135623730957
10
53.531249999999631
20
-4.90625000000672
10
65.531249999999915
20
-4.9062500000047349
42
-0.41421356237311197
10
66.531249999999957
20
-5.9062500000047535
10
66.531250000000753
20
-17.90625000000496
42
-0.41421356237310153
10
65.531249999999588
20
-18.906250000006093
0
LWPOLYLINE
5
260
100
AcDbEntity
8
0
100
AcDbPolyline
90
8
70
1
43
0.0
10
70.293749999999946
20
19.193749999998904
10
58.29375000000006
20
19.193749999998904
42
-0.41421356237309503
10
57.29375000000006
20
20.1937499999989
10
57.293750000000031
20
32.193749999993528
42
-0.41421356237310281
10
58.293749999999633
20
33.193749999993145
10
70.293749999999946
20
33.193749999995539
42
-0.41421356237309892
10
71.293750000000031
20
32.193749999995582
10
71.293750000002078
20
20.193750000001067
42
-0.41421356237310675
0
LWPOLYLINE
5
261
100
AcDbEntity
8
0
100
AcDbPolyline
90
4
70
1
43
0.0
10
118.32499999868131
20
-33.956250000006101
10
118.32499999868126
20
-27.956250000006015
42
-0.99999999999999989
10
121.32499999868131
20
-27.956250000006015
10
121.32499999868134
20
-33.956250000005959
42
-0.99999999999999989
0
LWPOLYLINE
5
262
100
AcDbEntity
8
0
100
AcDbPolyline
90
8
70
1
43
0.0
10
90.631249999999923
20
-57.006250000001224
42
-0.41421356237309764
10
89.631249999999923
20
-56.006250000001216
10
89.631249999999937
20
-44.006250000001117
42
-0.41421356237309764
10
90.631249999999923
20
-43.006250000001117
10
107.01123000000007
20
-43.006250000001074
42
-0.41421356237310281
10
108.01123000000004
20
-44.006250000001046
10
108.01122999999978
20
-56.006250000001145
42
-0.41421356237308721
10
107.01123000000003
20
-57.006250000000932
0
LWPOLYLINE
5
263
100
AcDbEntity
8
0
100
AcDbPolyline
90
8
70
1
43
0.0
10
-120.20625000000017
20
33.193749999994239
42
-0.41421356237309115
10
-119.20625000000015
20
32.193749999994239
10
-119.20625000000004
20
20.193749999998872
42
-0.41421356237310153
10
-120.2062500000001
20
19.193749999998808
10
-132.20625000000018
20
19.19374999999895
42
-0.41421356237309764
10
-133.20625000000007
20
20.193749999998829
10
-133.20625000000032
20
32.193749999993955
42
-0.41421356237310414
10
-132.20625000000013
20
33.193749999994147
0
LWPOLYLINE
5
264
100
AcDbEntity
8
0
100
AcDbPolyline
90
8
70
1
43
0.0
10
47.768749999999756
20
13.143749999999166
10
47.768749999999756
20
1.1437499999987821
42
0.41421356237309548
10
48.768749999999734
20
0.14374999999878429
10
60.768749999999621
20
0.14374999999875016
42
0.41421356237309875
10
61.768749999999962
20
1.1437500000008782
10
61.76874999999994
20
13.14375000000048
42
0.41421356237309503
10
60.76874999999994
20
14.143750000000495
10
48.768749999999415
20
14.143749999998834
42
0.41421356237309631
0
LWPOLYLINE
5
265
100
AcDbEntity
8
0
100
AcDbPolyline
90
8
70
1
43
0.0
10
-62.056249999999878
20
20.193750000000719
42
-0.41421356237309243
10
-63.056249999999991
20
19.193750000000598
10
-75.056250000000091
20
19.193749999998879
42
-0.41421356237309764
10
-76.056250000000034
20
20.193749999998829
10
-76.056250000000688
20
32.193749999993848
42
-0.4142135623730937
10
-75.056250000000233
20
33.193749999994296
10
-63.056250000000063
20
33.193749999994644
42
-0.41421356237309243
10
-62.056249999999977
20
32.193749999994566
0
LWPOLYLINE
5
266
100
AcDbEntity
8
0
100
AcDbPolyline
90
4
70
1
43
0.0
10
69.86981034766174
20
-17.906250000004746
10
69.86981034766174
20
-5.906250000004718
42
-0.99999999999999989
10
72.869810347661783
20
-5.906250000004718
10
72.869810347661783
20
-17.906250000004746
42
-0.99999999999999989
0
LWPOLYLINE
5
267
100
AcDbEntity
8
0
100
AcDbPolyline
90
8
70
1
43
0.0
10
150.05625000000003
20
-5.9787892798780007
10
139.45625000000004
20
-5.9787892798779882
42
-0.41421356237309193
10
138.25625000000002
20
-4.7787892798779916
10
138.25625000000002
20
-4.6787892798780462
42
-0.41421356237309248
10
139.45625000000004
20
-3.478789279878046
10
150.05625000000003
20
-3.4787892798780469
42
-0.41421356237309248
10
151.25624999999999
20
-4.6787892798780106
10
151.25625000000008
20
-4.7787892798779552
42
-0.4142135623730922
0
LWPOLYLINE
5
268
100
AcDbEntity
8
0
100
AcDbPolyline
90
8
70
1
43
0.0
10
-28.431249999999935
20
1.1437499999987466
10
-28.431249999999913
20
13.14374999999977
42
-0.4142135623730937
10
-27.431250000000915
20
14.143749999998771
10
-15.431250000000247
20
14.143750000000445
42
-0.41421356237313667
10
-14.431250000000105
20
13.143750000000445
10
-14.43124999999986
20
1.1437499999999903
42
-0.41421356237313561
10
-15.431250000001242
20
0.14374999999875016
10
-27.431249999999917
20
0.14374999999873558
42
-0.41421356237309803
0
LWPOLYLINE
5
269
100
AcDbEntity
8
0
100
AcDbPolyline
90
4
70
1
43
0.0
10
11.025000000000063
20
55.006249999998715
10
11.025000000000134
20
45.006249999998644
42
-0.99999999999999989
10
8.025000000000162
20
45.006249999998644
10
8.0250000000002331
20
55.006249999998573
42
-0.99999999999999989
0
LWPOLYLINE
5
270
100
AcDbEntity
8
0
100
AcDbPolyline
90
8
70
1
43
0.0
10
120.20624999999998
20
43.006249999999838
42
-0.41421356237308982
10
119.20624999999998
20
44.006249999999838
10
119.20624999999998
20
56.006249999998445
42
-0.41421356237309243
10
120.20625000000013
20
57.006249999998616
10
132.20624999999995
20
57.006249999998587
42
-0.41421356237308982
10
133.20624999999993
20
56.006249999998623
10
133.20624999999993
20
44.006249999999696
42
-0.41421356237309243
10
132.20625000000007
20
43.006249999999838
0
LWPOLYLINE
5
271
100
AcDbEntity
8
0
100
AcDbPolyline
90
8
70
1
43
0.0
10
151.25624999999997
20
57.006249999998616
42
-0.41421356237308982
10
152.25624999999997
20
56.006249999998623
10
152.25624999999994
20
44.006249999999802
42
-0.41421356237309243
10
151.25625000000005
20
43.006249999999909
10
139.25624999999994
20
43.006249999999909
42
-0.41421356237308982
10
138.25624999999991
20
44.006249999999909
10
138.25624999999988
20
56.006249999998509
42
-0.4142135623730846
10
139.25624999999999
20
57.006249999998637
0
LWPOLYLINE
5
272
100
AcDbEntity
8
0
100
AcDbPolyline
90
8
70
1
43
0.0
10
150.05625000000003
20
-15.978789279878001
10
139.45625000000004
20
-15.97878927987799
42
-0.41421356237309237
10
138.25625000000002
20
-14.778789279877991
10
138.25625000000002
20
-14.678789279878046
42
-0.41421356237309237
10
139.45625000000004
20
-13.478789279878045
10
150.05625000000003
20
-13.478789279878047
42
-0.41421356237309237
10
151.25624999999999
20
-14.678789279878011
10
151.25625000000008
20
-14.778789279877955
42
-0.41421356237309237
0
LWPOLYLINE
5
273
100
AcDbEntity
8
0
100
AcDbPolyline
90
8
70
1
43
0.0
10
-127.44374999999998
20
-37.956250000000921
42
-0.41421356237309115
10
-128.44374999999999
20
-36.956250000000885
10
-128.44374999999974
20
-24.956250000006008
42
-0.41421356237308982
10
-127.4437499999997
20
-23.956250000005987
10
-115.44374999999981
20
-23.956250000006083
42
-0.41421356237310542
10
-114.4437499999998
20
-24.956250000006133
10
-114.44375000000008
20
-36.956250000001027
42
-0.41421356237308332
10
-115.44375000000002
20
-37.956250000000935
0
LWPOLYLINE
5
274
100
AcDbEntity
8
0
100
AcDbPolyline
90
8
70
1
43
0.0
10
-13.143750000000054
20
-37.956250000000928
42
-0.41421356237310608
10
-14.143750000000054
20
-36.956250000000878
10
-14.143749999999756
20
-24.95625000000647
42
-0.41421356237308138
10
-13.143749999999699
20
-23.956250000006449
10
-1.1437499999998124
20
-23.956250000006069
42
-0.41421356237311424
10
-0.14374999999979821
20
-24.956250000006133
10
-0.14375000000010241
20
-36.956250000001027
42
-0.41421356237308915
10
-1.1437500000000256
20
-37.956250000000921
0
LWPOLYLINE
5
275
100
AcDbEntity
8
0
100
AcDbPolyline
90
8
70
1
43
0.0
10
-33.193749999999767
20
-24.956250000006399
42
-0.41421356237307944
10
-32.19374999999971
20
-23.956250000006378
10
-20.193749999999824
20
-23.956250000006083
42
-0.41421356237310936
10
-19.193749999999824
20
-24.956250000006115
10
-19.193750000000094
20
-36.956250000001049
42
-0.41421356237308204
10
-20.193750000000037
20
-37.956250000000935
10
-32.193750000000058
20
-37.956250000000857
42
-0.41421356237310542
10
-33.193750000000009
20
-36.956250000000885
0
LWPOLYLINE
5
276
100
AcDbEntity
8
0
100
AcDbPolyline
90
8
70
1
43
0.0
10
-136.96875
20
-18.906250000006111
10
-124.96875000000003
20
-18.906250000006111
42
0.41421356237308982
10
-123.96875000000001
20
-17.906250000006096
10
-123.96875000000001
20
-5.906250000006068
42
0.41421356237308948
10
-124.96875000000003
20
-4.9062500000060725
10
-136.96875000000006
20
-4.9062500000059961
42
0.41421356237308982
10
-137.96875000000006
20
-5.906250000005997
10
-137.96875
20
-17.906250000006096
42
0.41421356237308982
0
LWPOLYLINE
5
277
100
AcDbEntity
8
0
100
AcDbPolyline
90
8
70
1
43
0.0
10
124.80625000000003
20
-59.506250000001195
10
124.80625000000003
20
-60.506250000001174
42
-0.41421356237309503
10
123.80625000000002
20
-61.506250000001188
10
119.80625000000003
20
-61.506250000001188
42
-0.41421356237309503
10
118.80625000000002
20
-60.506250000001174
10
118.80625000000006
20
-59.506250000001195
42
-0.41421356237307422
10
119.80625000000003
20
-58.506250000001216
10
123.80625000000002
20
-58.506250000001181
42
-0.41421356237307422
0
LWPOLYLINE
5
278
100
AcDbEntity
8
0
100
AcDbPolyline
90
4
70
1
43
0.0
10
114.60874000000001
20
-56.00625000000111
42
-0.99999999999999989
10
111.60873999999995
20
-56.00625000000111
10
111.60873999999993
20
-44.006250000001046
42
-0.99999999999999989
10
114.60874000000004
20
-44.006250000001117
0
LWPOLYLINE
5
279
100
AcDbEntity
8
0
100
AcDbPolyline
90
8
70
1
43
0.0
10
120.20625000000003
20
-57.006250000000961
42
-0.41421356237308982
10
119.20625000000001
20
-56.006250000000968
10
119.20625000000001
20
-44.006250000001081
42
-0.41421356237308982
10
120.20625000000003
20
-43.006250000001089
10
132.20624999999995
20
-43.006250000001089
42
-0.41421356237308982
10
133.20624999999995
20
-44.006250000001081
10
133.20624999999973
20
-56.006250000001216
42
-0.41421356237308982
10
132.2062499999999
20
-57.006250000001017
0
LWPOLYLINE
5
280
100
AcDbEntity
8
0
100
AcDbPolyline
90
4
70
1
43
0.0
10
-6.899290735885657
20
-56.98549992036515
42
-0.99999999999999989
10
-8.6375648347799228
20
-54.540422588845026
10
-3.0677872187620636
20
-50.580711359382384
42
-0.99999999999999989
10
-1.3295131198677979
20
-53.025788690902509
0
LWPOLYLINE
5
281
100
AcDbEntity
8
0
100
AcDbPolyline
90
8
70
1
43
0.0
10
-142.73124999999999
20
13.143749999998775
42
-0.41421356237308982
10
-141.73124999999999
20
14.143749999998775
10
-129.73125000000024
20
14.143749999998843
42
-0.41421356237308982
10
-128.73125000000022
20
13.143749999998846
10
-128.73125000000007
20
1.1437499999988179
42
-0.41421356237308971
10
-129.73125000000016
20
0.14374999999873239
10
-141.73124999999985
20
0.14374999999867979
42
-0.41421356237308965
10
-142.73124999999993
20
1.1437499999987466
0
LWPOLYLINE
5
282
100
AcDbEntity
8
0
100
AcDbPolyline
90
8
70
1
43
0.0
10
-122.29873000000012
20
-44.006250000001117
10
-122.29873000000012
20
-56.006250000001145
42
0.41421356237309764
10
-121.29873000000011
20
-57.006250000001153
10
-104.91875000000014
20
-57.00625000000116
42
0.41421356237309764
10
-103.91875000000016
20
-56.006250000001145
10
-103.9187500000001
20
-44.006250000001224
42
0.41421356237311585
10
-104.91875000000014
20
-43.006250000001103
10
-121.29873000000011
20
-43.006250000001117
42
0.41421356237309764
0
LWPOLYLINE
5
283
100
AcDbEntity
8
0
100
AcDbPolyline
90
8
70
1
43
0.0
10
-151.25624999999999
20
33.19374999999404
10
-139.25625000000011
20
33.193749999994026
42
-0.41421356237309115
10
-138.25625000000008
20
32.193749999994026
10
-138.25625000000008
20
20.193749999998829
42
-0.41421356237308982
10
-139.25625000000011
20
19.193749999998829
10
-151.25624999999999
20
19.193749999998904
42
-0.41421356237308982
10
-152.25625000000002
20
20.1937499999989
10
-152.25625000000014
20
32.193749999993912
42
-0.41421356237309243
0
LWPOLYLINE
5
284
100
AcDbEntity
8
0
100
AcDbPolyline
90
8
70
1
43
0.0
10
46.481249999999932
20
-4.9062500000048628
42
-0.41421356237309537
10
47.481249999999932
20
-5.9062500000048601
10
47.481249999999946
20
-17.906250000004924
42
-0.41421356237309764
10
46.481249999999896
20
-18.906250000004981
10
34.481249999997985
20
-18.906250000006043
42
-0.41421356237319973
10
33.48124999999591
20
-17.90625000000361
10
33.481249999998028
20
-5.9062500000037588
42
-0.41421356237299323
10
34.481249999997345
20
-4.9062500000047926
0
LWPOLYLINE
5
285
100
AcDbEntity
8
0
100
AcDbPolyline
90
4
70
1
43
0.0
10
6.0000000000000142
20
-63.506250000001181
10
75.306249999999892
20
-63.506250000001202
42
-0.99999999999999989
10
75.306249999999977
20
-65.506250000001188
10
5.9999999999998632
20
-65.506250000001131
42
-0.99999999999999989
0
LWPOLYLINE
5
286
100
AcDbEntity
8
0
100
AcDbPolyline
90
4
70
1
43
0.0
10
-87.306249999999679
20
63.506250000000655
10
-156.30624999999964
20
63.506250000001231
42
-0.99999999999999989
10
-156.30624999999975
20
65.506250000001231
10
-87.306249999999494
20
65.50625000000052
42
-0.99999999999999989
0
LWPOLYLINE
5
287
100
AcDbEntity
8
0
100
AcDbPolyline
90
12
70
1
43
0.0
10
-1.4999999999999138
20
-65.500000000001236
42
-0.41421356237309181
10
-2.9999999999999156
20
-64.000000000001222
10
-2.9999999999999716
20
-63.006250000001174
42
0.41421356237309503
10
-4.4999999999999574
20
-61.506250000001174
10
-29.653125000000102
20
-61.506250000001202
42
-0.99999999999999989
10
-29.65312499999996
20
-59.506250000001216
10
29.653124999999967
20
-59.506250000001195
42
-0.99999999999999989
10
29.65312499999996
20
-61.506250000001153
10
4.4999999999999574
20
-61.506250000001174
42
0.41421356237309503
10
2.9999999999999716
20
-63.006250000001174
10
3.0000000000000346
20
-64.000000000001194
42
-0.41421356237309359
10
1.4999999999999858
20
-65.500000000001251
0
LWPOLYLINE
5
288
100
AcDbEntity
8
0
100
AcDbPolyline
90
4
70
1
43
0.0
10
-110.80625000000005
20
-61.506250000001295
10
-51.65312500000006
20
-61.506250000001245
42
0.99999999999999989
10
-51.65312500000006
20
-59.506250000001245
10
-110.80625000000012
20
-59.506250000001288
42
0.99999999999999989
0
LWPOLYLINE
5
289
100
AcDbEntity
8
0
100
AcDbPolyline
90
4
70
1
43
0.0
10
51.653124999999989
20
-61.506250000001174
42
-0.99999999999999989
10
51.653124999999989
20
-59.506250000001174
10
110.80625000000009
20
-59.50625000000116
42
-0.99999999999999989
10
110.80625000000001
20
-61.506250000001188
0
LWPOLYLINE
5
290
100
AcDbEntity
8
0
100
AcDbPolyline
90
4
70
1
43
0.0
10
87.306250000000034
20
-63.506250000001181
10
156.30624999999998
20
-63.506250000001216
42
-0.99999999999999989
10
156.30625000000006
20
-65.506250000001188
10
87.306250000000034
20
-65.506250000001117
42
-0.99999999999999989
0
LWPOLYLINE
5
291
100
AcDbEntity
8
0
100
AcDbPolyline
90
4
70
1
43
0.0
10
51.65312500000045
20
59.506249999999469
10
105.29721659413731
20
59.506249999999064
42
0.99999999999999989
10
105.29721659413731
20
61.506249999999071
10
51.653125000000415
20
61.506249999999497
42
0.99999999999999989
0
LWPOLYLINE
5
292
100
AcDbEntity
8
0
100
AcDbPolyline
90
4
70
1
43
0.0
10
-110.80624999999958
20
59.506250000000819
42
-0.99999999999999989
10
-110.80624999999969
20
61.506250000000819
10
-51.653124999999633
20
61.50625000000025
42
-0.99999999999999989
10
-51.653124999999633
20
59.506250000000321
0
LINE
5
293
100
AcDbEntity
8
0
100
AcDbLine
10
92.019493774189343
20
-4.9062500000063478
30
0
11
82.163170695323657
21
-4.9062500000053326
31
0
0
ARC
5
294
100
AcDbEntity
8
0
100
AcDbCircle
10
75.215870563821099
20
-19.868250025144082
30
0
40
1.0000000000000142
210
0
220
0
230
1
100
AcDbArc
50
180
51
270
0
ENDSEC
0
SECTION
2
OBJECTS
0
DICTIONARY
5
C
100
AcDbDictionary
3
ACAD_GROUP
350
D
3
ACAD_MLINESTYLE
350
17
0
DICTIONARY
5
D
100
AcDbDictionary
0
DICTIONARY
5
1A
330
C
100
AcDbDictionary
0
DICTIONARY
5
17
100
AcDbDictionary
0
ENDSEC
0
EOF
