0
SECTION
2
HEADER
9
$INSUNITS
70
4
9
$ACADVER
1
AC1014
9
$HANDSEED
5
FFFF
0
ENDSEC
0
SECTION
2
TABLES
0
TABLE
2
VPORT
5
8
100
AcDbSymbolTable
0
ENDTAB
0
TABLE
2
LTYPE
5
5
100
AcDbSymbolTable
0
LTYPE
5
14
100
AcDbSymbolTableRecord
100
AcDbLinetypeTableRecord
2
BYBLOCK
70
0
0
LTYPE
5
15
100
AcDbSymbolTableRecord
100
AcDbLinetypeTableRecord
2
BYLAYER
70
0
0
ENDTAB
0
TABLE
2
LAYER
5
2
100
AcDbSymbolTable
70
2
0
LAYER
5
50
100
AcDbSymbolTableRecord
100
AcDbLayerTableRecord
2
0
70
0
6
CONTINUOUS
0
ENDTAB
0
TABLE
2
STYLE
5
3
100
AcDbSymbolTable
70
1
0
STYLE
5
11
100
AcDbSymbolTableRecord
100
AcDbTextStyleTableRecord
2
STANDARD
70
0
0
ENDTAB
0
TABLE
2
VIEW
5
6
100
AcDbSymbolTable
70
0
0
ENDTAB
0
TABLE
2
UCS
5
7
100
AcDbSymbolTable
70
0
0
ENDTAB
0
TABLE
2
APPID
5
9
100
AcDbSymbolTable
70
2
0
APPID
5
12
100
AcDbSymbolTableRecord
100
AcDbRegAppTableRecord
2
ACAD
70
0
0
ENDTAB
0
TABLE
2
DIMSTYLE
5
A
100
AcDbSymbolTable
70
1
0
ENDTAB
0
TABLE
2
BLOCK_RECORD
5
1
100
AcDbSymbolTable
70
1
0
BLOCK_RECORD
5
1F
100
AcDbSymbolTableRecord
100
AcDbBlockTableRecord
2
*MODEL_SPACE
0
BLOCK_RECORD
5
1B
100
AcDbSymbolTableRecord
100
AcDbBlockTableRecord
2
*PAPER_SPACE
0
ENDTAB
0
ENDSEC
0
SECTION
2
BLOCKS
0
BLOCK
5
20
100
AcDbEntity
100
AcDbBlockBegin
2
*MODEL_SPACE
0
ENDBLK
5
21
100
AcDbEntity
100
AcDbBlockEnd
0
BLOCK
5
1C
100
AcDbEntity
100
AcDbBlockBegin
2
*PAPER_SPACE
0
ENDBLK
5
1D
100
AcDbEntity
100
AcDbBlockEnd
0
ENDSEC
0
SECTION
2
ENTITIES
0
LINE
5
100
100
AcDbEntity
8
0
100
AcDbLine
10
105.07266822901897
20
13.05885659962553
30
0
11
106.01237203804409
21
13.05885659962561
31
0
0
ARC
5
101
100
AcDbEntity
8
0
100
AcDbCircle
10
106.01237203804416
20
12.058856599625607
30
0
40
1.0000000000000142
210
0
220
-0
230
1
100
AcDbArc
50
0
51
90.000000000004079
0
ARC
5
102
100
AcDbEntity
8
0
100
AcDbCircle
10
106.01237203804708
20
-19.868250025143986
30
0
40
1.0000000000000164
210
0
220
0
230
1
100
AcDbArc
50
-90
51
0
0
LINE
5
103
100
AcDbEntity
8
0
100
AcDbLine
10
107.01237203804418
20
12.05885659962572
30
0
11
107.01237203804709
21
-19.868250025143897
31
0
0
LINE
5
104
100
AcDbEntity
8
0
100
AcDbLine
10
100.09186969918396
20
-20.868250025144022
30
0
11
106.01237203804708
21
-20.868250025144004
31
0
0
ARC
5
105
100
AcDbEntity
8
0
100
AcDbCircle
10
98.791869699183934
20
-19.206250000005411
30
0
40
0.30000000000001137
210
0
220
-0
230
1
100
AcDbArc
50
0
51
90
0
LINE
5
106
100
AcDbEntity
8
0
100
AcDbLine
10
99.091869699183945
20
-19.206250000005411
30
0
11
99.091869699183945
21
-19.868250025144008
31
0
0
ARC
5
107
100
AcDbEntity
8
0
100
AcDbCircle
10
100.09186969918396
20
-19.868250025144
30
0
40
1.0000000000000142
210
0
220
0
230
1
100
AcDbArc
50
180
51
270
0
ARC
5
108
100
AcDbEntity
8
0
100
AcDbCircle
10
82.170670563821062
20
-19.206250000005411
30
0
40
0.29999999999999805
210
0
220
-0
230
1
100
AcDbArc
50
90
51
180
0
LINE
5
109
100
AcDbEntity
8
0
100
AcDbLine
10
82.170670563821062
20
-18.906250000005414
30
0
11
98.791869699183934
21
-18.906250000005414
31
0
0
LINE
5
110
100
AcDbEntity
8
0
100
AcDbLine
10
81.870670563821051
20
-19.868250025144008
30
0
11
81.870670563821051
21
-19.206250000005411
31
0
0
ARC
5
111
100
AcDbEntity
8
0
100
AcDbCircle
10
80.870670563821037
20
-19.868250025144
30
0
40
1.0000000000000053
210
0
220
0
230
1
100
AcDbArc
50
270
51
360
0
LINE
5
112
100
AcDbEntity
8
0
100
AcDbLine
10
75.215870563821099
20
-20.868250025144022
30
0
11
80.870670563821037
21
-20.868250025144004
31
0
0
LINE
5
113
100
AcDbEntity
8
0
100
AcDbLine
10
74.215870563821085
20
-3.9442499748697912
30
0
11
74.215870563821085
21
-19.868250025144008
31
0
0
LINE
5
114
100
AcDbEntity
8
0
100
AcDbLine
10
80.863170695323632
20
-2.944249974869777
30
0
11
75.215870563821099
21
-2.944249974869777
31
0
0
ARC
5
115
100
AcDbEntity
8
0
100
AcDbCircle
10
75.215870563821099
20
-3.9442499748697903
30
0
40
1.0000000000000131
210
0
220
-0
230
1
100
AcDbArc
50
90
51
180
0
ARC
5
116
100
AcDbEntity
8
0
100
AcDbCircle
10
82.163170695323657
20
-4.6062500000052609
30
0
40
0.30000000000001137
210
0
220
0
230
1
100
AcDbArc
50
180
51
270
0
ARC
5
117
100
AcDbEntity
8
0
100
AcDbCircle
10
80.863170695323632
20
-3.944249974869809
30
0
40
1.0000000000000142
210
0
220
-0
230
1
100
AcDbArc
50
0
51
90
0
LINE
5
118
100
AcDbEntity
8
0
100
AcDbLine
10
81.863170695323646
20
-4.6062500000052609
30
0
11
81.863170695323646
21
-3.9442499748697912
31
0
0
ARC
5
119
100
AcDbEntity
8
0
100
AcDbCircle
10
92.012506103497458
20
-3.9062744140751349
30
0
40
1.000000000000014
210
-0
220
0
230
1
100
AcDbArc
50
-89.599632702524161
51
0
0
LINE
5
120
100
AcDbEntity
8
0
100
AcDbLine
10
93.012506103497472
20
-3.9062744140750638
30
0
11
93.012506103497259
21
-0.85627441407389426
31
0
0
LINE
5
121
100
AcDbEntity
8
0
100
AcDbLine
10
90.631249999999923
20
1.1437499999988532
30
0
11
90.631249999999923
21
13.143749999998882
31
0
0
ARC
5
122
100
AcDbEntity
8
0
100
AcDbCircle
10
91.631249999999937
20
1.1437499999988714
30
0
40
1.0000000000000142
210
0
220
0
230
1
100
AcDbArc
50
180
51
270
0
LINE
5
123
100
AcDbEntity
8
0
100
AcDbLine
10
91.631249999999937
20
0.14374999999885729
30
0
11
92.012506103497174
21
0.14374999999882121
31
0
0
ARC
5
124
100
AcDbEntity
8
0
100
AcDbCircle
10
92.012506103497316
20
-0.85627441407400084
30
0
40
0.99999999999994316
210
0
220
-0
230
1
100
AcDbArc
50
0
51
90.000000000004079
0
LINE
5
125
100
AcDbEntity
8
0
100
AcDbLine
10
103.63125000000008
20
14.143750000000637
30
0
11
91.631249999999937
21
14.143750000000637
31
0
0
ARC
5
126
100
AcDbEntity
8
0
100
AcDbCircle
10
91.631249999999937
20
13.143749999998864
30
0
40
1.0000000000017728
210
0
220
-0
230
1
100
AcDbArc
50
90
51
180
0
ARC
5
127
100
AcDbEntity
8
0
100
AcDbCircle
10
103.63125000000005
20
13.143750000000605
30
0
40
1.0000000000000284
210
0
220
-0
230
1
100
AcDbArc
50
16.065598512933239
51
89.99999999999838
0
ARC
5
128
100
AcDbEntity
8
0
100
AcDbCircle
10
105.07266822901894
20
13.558856599625528
30
0
40
0.50000000000000444
210
0
220
0
230
1
100
AcDbArc
50
196.06559851293321
51
270.00000000000324
0
LWPOLYLINE
5
129
100
AcDbEntity
8
0
100
AcDbPolyline
90
4
70
1
43
0.0
10
128.60624999999516
20
-4.8562500000011966
10
133.70624999999993
20
-4.8562500000010544
42
-0.99999999999999989
10
133.70624999999993
20
-7.8562500000011681
10
128.60624999999521
20
-7.8562500000011726
42
-0.93555309188857705
0
LWPOLYLINE
5
130
100
AcDbEntity
8
0
100
AcDbPolyline
90
4
70
1
43
0.0
10
117.60624999999514
20
-9.8562500000010367
10
133.70624999999993
20
-9.8562500000010367
42
-0.99999999999999989
10
133.70624999999993
20
-12.856250000000902
10
117.60624999999521
20
-12.856250000001047
42
-0.93555309188857705
0
LWPOLYLINE
5
131
100
AcDbEntity
8
0
100
AcDbPolyline
90
8
70
1
43
0.0
10
96.393750000000082
20
43.006249999999554
42
-0.41421356237308982
10
95.393750000000068
20
44.006249999999554
10
95.393750000000068
20
56.006249999998275
42
-0.41421356237311324
10
96.393750000000182
20
57.00624999999846
10
108.39374999999961
20
57.006249999998559
42
-0.41421356237310281
10
109.39374999999981
20
56.006249999998303
10
109.39374999999976
20
44.006249999999376
42
-0.41421356237311063
10
108.39375000000001
20
43.006249999999611
0
LWPOLYLINE
5
132
100
AcDbEntity
8
0
100
AcDbPolyline
90
4
70
1
43
0.0
10
113.41875000000005
20
1.1437499999998124
42
-0.99999999999999989
10
110.41875000000002
20
1.1437499999998124
10
110.41875000000005
20
13.143749999999841
42
-0.99999999999999989
10
113.41875000000002
20
13.143749999999841
0
LWPOLYLINE
5
133
100
AcDbEntity
8
0
100
AcDbPolyline
90
4
70
1
43
0.0
10
172.18750000131905
20
-27.956250000005518
10
172.18750000131917
20
-33.956250000005497
42
-0.99999999999999989
10
169.18750000131911
20
-33.956250000005568
10
169.18750000131899
20
-27.956250000005518
42
-0.99999999999999989
0
LWPOLYLINE
5
134
100
AcDbEntity
8
0
100
AcDbPolyline
90
8
70
1
43
0.0
10
-76.343749999999886
20
44.00624999999895
42
-0.41421356237309503
10
-77.343749999999716
20
43.006249999999113
10
-89.343750000000028
20
43.006249999999099
42
-0.41421356237308982
10
-90.343750000000043
20
44.006249999999092
10
-90.343749999999943
20
56.006249999998523
42
-0.41421356237308982
10
-89.343749999999815
20
57.006249999998673
10
-77.343749999999929
20
57.006249999998673
42
-0.41421356237309503
10
-76.343749999999915
20
56.006249999998658
0
LWPOLYLINE
5
135
100
AcDbEntity
8
0
100
AcDbPolyline
90
4
70
1
43
0.0
10
115.7995631436319
20
20.19374999999453
42
-0.99999999999999989
10
112.79956314363187
20
20.19374999999453
10
112.7995631436319
20
32.193749999994559
42
-0.99999999999999989
10
115.79956314363187
20
32.193749999994559
0
LWPOLYLINE
5
136
100
AcDbEntity
8
0
100
AcDbPolyline
90
8
70
1
43
0.0
10
15.431249999999963
20
-18.90625000000599
42
-0.4142135623730937
10
14.431249999999963
20
-17.90625000000599
10
14.431249999999885
20
-5.9062500000062457
42
-0.41421356237309503
10
15.431249999999608
20
-4.9062500000065228
10
27.431249999999849
20
-4.9062500000049534
42
-0.41421356237311291
10
28.431249999999935
20
-5.9062500000049667
10
28.431250000000485
20
-17.906250000005169
42
-0.41421356237311324
10
27.431249999999565
20
-18.906250000006022
0
LWPOLYLINE
5
137
100
AcDbEntity
8
0
100
AcDbPolyline
90
4
70
1
43
0.0
10
157.18750000131905
20
-33.956250000005781
10
157.18750000131899
20
-27.956250000005731
42
-0.99999999999999989
10
160.18750000131902
20
-27.956250000005731
10
160.18750000131917
20
-33.95625000000571
42
-0.99999999999999989
0
LWPOLYLINE
5
138
100
AcDbEntity
8
0
100
AcDbPolyline
90
8
70
1
43
0.0
10
-65.531250000000298
20
0.1437499999987954
42
-0.41421356237310264
10
-66.531250000000242
20
1.1437499999987821
10
-66.531250000000057
20
13.143749999999059
42
-0.41421356237307877
10
-65.531250000000227
20
14.143749999998859
10
-53.531250000000199
20
14.143750000000463
42
-0.41421356237311713
10
-52.531250000000043
20
13.143750000000498
10
-52.531249999999723
20
1.1437499999991734
42
-0.41421356237314705
10
-53.531250000000199
20
0.14374999999880345
0
LWPOLYLINE
5
139
100
AcDbEntity
8
0
100
AcDbPolyline
90
8
70
1
43
0.0
10
-169.92373000000015
20
-44.006250000001081
10
-169.92373000000015
20
-56.006250000001074
42
0.41421356237310542
10
-168.92373000000006
20
-57.006250000001053
10
-152.5437500000001
20
-57.006250000001124
42
0.41421356237309764
10
-151.54375000000013
20
-56.006250000001039
10
-151.54375000000019
20
-44.006250000001046
42
0.41421356237309764
10
-152.54375000000016
20
-43.006250000001032
10
-168.92373000000006
20
-43.006250000001089
42
0.41421356237310542
0
LWPOLYLINE
5
140
100
AcDbEntity
8
0
100
AcDbPolyline
90
8
70
1
43
0.0
10
-149.16122999999999
20
-17.906250000006025
10
-149.16122999999999
20
-5.906250000005997
42
0.41421356237308399
10
-150.16122999999999
20
-4.9062500000060023
10
-168.92373000000006
20
-4.9062500000059295
42
0.41421356237310542
10
-169.92373000000012
20
-5.906250000005997
10
-169.92373000000009
20
-17.906250000006025
42
0.41421356237310542
10
-168.92373000000006
20
-18.90625000000604
10
-150.16123000000007
20
-18.906250000006025
42
0.41421356237309631
0
LWPOLYLINE
5
141
100
AcDbEntity
8
0
100
AcDbPolyline
90
8
70
1
43
0.0
10
-52.243749999999807
20
-24.956250000006222
10
-52.24375000000002
20
-36.956250000000814
42
0.41421356237310802
10
-51.243750000000077
20
-37.956250000000857
10
-39.243749999999977
20
-37.956250000000864
42
0.41421356237308593
10
-38.243750000000041
20
-36.956250000000956
10
-38.243749999999835
20
-24.956250000006044
42
0.41421356237311063
10
-39.243749999999835
20
-23.956250000005994
10
-51.243749999999864
20
-23.956250000006261
42
0.4142135623730937
0
LWPOLYLINE
5
142
100
AcDbEntity
8
0
100
AcDbPolyline
90
4
70
1
43
0.0
10
-76.343749999999844
20
36.599999999996641
10
-109.39375000000005
20
36.599999999996591
42
-0.99999999999999989
10
-109.39375000000005
20
39.599999999996633
10
-76.343749999999844
20
39.599999999996726
42
-0.99999999999999989
0
LWPOLYLINE
5
143
100
AcDbEntity
8
0
100
AcDbPolyline
90
4
70
1
43
0.0
10
4.6187500000002046
20
36.599999999996662
10
-28.431250000000006
20
36.599999999996626
42
-0.99999999999999989
10
-28.431250000000006
20
39.599999999996669
10
4.6187500000002046
20
39.599999999996776
42
-0.99999999999999989
0
LWPOLYLINE
5
144
100
AcDbEntity
8
0
100
AcDbPolyline
90
8
70
1
43
0.0
10
170.05625000000003
20
-3.4787892798779518
42
-0.41421356237311563
10
171.25624999999999
20
-4.6787892798779396
10
171.25624999999999
20
-4.7787892798778842
42
-0.41421356237311541
10
170.05625000000003
20
-5.9787892798778852
10
159.45625000000004
20
-5.9787892798779172
42
-0.41421356237309204
10
158.25625000000002
20
-4.7787892798779197
10
158.25624999999997
20
-4.6787892798779751
42
-0.41421356237309248
10
159.45625000000004
20
-3.4787892798779296
0
LWPOLYLINE
5
145
100
AcDbEntity
8
0
100
AcDbPolyline
90
8
70
1
43
0.0
10
171.30625000000006
20
-56.006250000001074
42
-0.4142135623730846
10
170.30624999999998
20
-57.006250000001124
10
158.30625000000001
20
-57.006250000001032
42
-0.41421356237308982
10
157.30625000000001
20
-56.006250000001039
10
157.30624999999998
20
-44.00625000000101
42
-0.41421356237308982
10
158.30625000000001
20
-43.006250000000996
10
170.30625000000001
20
-43.006250000001032
42
-0.41421356237310542
10
171.30625000000003
20
-44.00625000000101
0
LWPOLYLINE
5
146
100
AcDbEntity
8
0
100
AcDbPolyline
90
8
70
1
43
0.0
10
10.668749999999818
20
14.143750000000663
10
22.66875000000006
20
14.143750000000567
42
-0.41421356237309825
10
23.668750000000003
20
13.143750000000622
10
23.668749999999999
20
1.1437500000008072
42
-0.41421356237309503
10
22.668749999999775
20
0.14375000000058424
10
10.668750000000031
20
0.14374999999880331
42
-0.41421356237309509
10
9.6687500000000171
20
1.1437499999988177
10
9.6687499999982496
20
13.143749999999095
42
-0.4142135623730937
0
LWPOLYLINE
5
147
100
AcDbEntity
8
0
100
AcDbPolyline
90
8
70
1
43
0.0
10
34.481250000000117
20
57.006249999998658
10
46.481250000000429
20
57.006249999998658
42
-0.41421356237309503
10
47.481250000000429
20
56.006249999998658
10
47.481250000000429
20
44.006249999999454
42
-0.41421356237307683
10
46.481250000000536
20
43.006249999999625
10
34.481249999999982
20
43.006249999999575
42
-0.41421356237310802
10
33.48124999999996
20
44.006249999999611
10
33.481250000000003
20
56.006249999998545
42
-0.41421356237310025
0
LWPOLYLINE
5
148
100
AcDbEntity
8
0
100
AcDbPolyline
90
8
70
1
43
0.0
10
-89.343749999999957
20
-37.95625000000085
42
-0.41421356237309115
10
-90.343749999999972
20
-36.956250000000814
10
-90.343749999999659
20
-24.956250000006115
42
-0.41421356237308982
10
-89.343749999999602
20
-23.956250000006094
10
-77.343749999999858
20
-23.956250000005923
42
-0.41421356237312101
10
-76.343749999999773
20
-24.956250000006062
10
-76.343750000000057
20
-36.956250000000956
42
-0.41421356237308332
10
-77.34375
20
-37.956250000000864
0
LWPOLYLINE
5
149
100
AcDbEntity
8
0
100
AcDbPolyline
90
8
70
1
43
0.0
10
-133.49374999999995
20
44.006249999998843
42
-0.41421356237310281
10
-134.49374999999989
20
43.0062499999989
10
-146.49374999999998
20
43.006249999998872
42
-0.41421356237310281
10
-147.49375000000003
20
44.006249999998914
10
-147.49375000000012
20
56.006249999998531
42
-0.41421356237310802
10
-146.49374999999998
20
57.006249999998673
10
-134.49375000000003
20
57.00624999999868
42
-0.41421356237310281
10
-133.49375000000003
20
56.006249999998644
0
LWPOLYLINE
5
150
100
AcDbEntity
8
0
100
AcDbPolyline
90
8
70
1
43
0.0
10
-101.15625000000016
20
19.193749999998957
10
-113.15625000000082
20
19.193749999998936
42
-0.41421356237309115
10
-114.15624999999999
20
20.193749999998118
10
-114.15624999999991
20
32.193749999993955
42
-0.41421356237310414
10
-113.15624999999997
20
33.193749999993898
10
-101.15625000000009
20
33.193749999994452
42
-0.41421356237308854
10
-100.15625
20
32.193749999994388
10
-100.15624999999986
20
20.193749999999113
42
-0.41421356237314838
0
LWPOLYLINE
5
151
100
AcDbEntity
8
0
100
AcDbPolyline
90
8
70
1
43
0.0
10
-22.668749999999989
20
-18.90625000000604
10
-10.668750000000244
20
-18.906250000006022
42
0.4142135623730957
10
-9.6687500000000188
20
-17.906250000005386
10
-9.6687500000000171
20
-5.9062500000052509
42
0.41421356237309503
10
-10.668750000000102
20
-4.90625000000525
10
-22.668750000000131
20
-4.9062500000063602
42
0.41421356237309209
10
-23.668750000000003
20
-5.9062500000061391
10
-23.668749999999989
20
-17.906250000006025
42
0.41421356237309698
0
LWPOLYLINE
5
152
100
AcDbEntity
8
0
100
AcDbPolyline
90
8
70
1
43
0.0
10
-109.39374999999967
20
-24.956250000006044
42
-0.41421356237308982
10
-108.39374999999961
20
-23.956250000006023
10
-96.393749999999798
20
-23.956250000006012
42
-0.41421356237310153
10
-95.393749999999784
20
-24.956250000006047
10
-95.393750000000068
20
-36.956250000000978
42
-0.4142135623730781
10
-96.393750000000011
20
-37.956250000000864
10
-108.39374999999997
20
-37.95625000000085
42
-0.41421356237309115
10
-109.39374999999998
20
-36.956250000000814
0
SPLINE
5
153
100
AcDbEntity
8
0
100
AcDbSpline
70
0
71
3
72
10
73
6
74
0
42
0.000000001
43
0.0000000001
44
0.0000000001
40
0.50910926455617866
40
0.50910926455617866
40
0.50910926455617866
40
0.50910926455617866
40
0.55027687321431795
40
0.55027687321431795
40
0.57704523493701898
40
0.57704523493701898
40
0.57704523493701898
40
0.57704523493701898
10
-162.30625000000009
20
-67.506250000001103
30
0
10
-162.30625000000009
20
-67.635627312211781
30
0
10
-162.27995009100482
20
-67.764663918643066
30
0
10
-162.20516833060088
20
-67.951483287666932
30
0
10
-162.16793659630383
20
-68.01871407427754
30
0
10
-162.12705098944957
20
-68.077464264282696
30
0
0
ARC
5
154
100
AcDbEntity
8
0
100
AcDbCircle
10
-161.30625000000009
20
-67.506250000001103
30
0
40
1.000000000000024
210
0
220
0
230
1
100
AcDbArc
50
214.83494357011475
51
270
0
LINE
5
155
100
AcDbEntity
8
0
100
AcDbLine
10
161.30625000000006
20
-68.506250000001103
30
0
11
-161.30625000000009
21
-68.506250000001089
31
0
0
ARC
5
156
100
AcDbEntity
8
0
100
AcDbCircle
10
161.30625000000006
20
-67.506250000001103
30
0
40
1.0000000000000142
210
-0
220
0
230
1
100
AcDbArc
50
270
51
325.16505642989472
0
SPLINE
5
157
100
AcDbEntity
8
0
100
AcDbSpline
70
0
71
3
72
10
73
6
74
0
42
0.000000001
43
0.0000000001
44
0.0000000001
40
0.13574111963995039
40
0.13574111963995039
40
0.13574111963995039
40
0.13574111963995039
40
0.15832148380570707
40
0.15832148380570707
40
0.20400585894150466
40
0.20400585894150466
40
0.20400585894150466
40
0.20400585894150466
10
162.12705098944963
20
-68.077464264282554
30
0
10
162.16185192195405
20
-68.027457390120674
30
0
10
162.19362363423809
20
-67.971950276182085
30
0
10
162.27413336281373
20
-67.790571264793371
30
0
10
162.30625000000009
20
-67.649822139791311
30
0
10
162.30625000000009
20
-67.506250000001131
30
0
0
LWPOLYLINE
5
158
100
AcDbEntity
8
0
100
AcDbPolyline
90
8
70
1
43
0.0
10
-9.3812499999999943
20
1.1437499999988177
10
-9.381249999999973
20
13.143749999999095
42
-0.41421356237309404
10
-8.3812500000001933
20
14.143749999998875
10
3.6187499999999062
20
14.143750000000715
42
-0.4142135623730962
10
4.6187499999999631
20
13.143750000000658
10
4.6187500000017501
20
1.1437500000008074
42
-0.41421356237309537
10
3.618749999999765
20
0.14374999999882121
10
-8.3812499999999783
20
0.143749999998804
42
-0.41421356237309587
0
SPLINE
5
159
100
AcDbEntity
8
0
100
AcDbSpline
70
0
71
3
72
10
73
6
74
0
42
0.000000001
43
0.0000000001
44
0.0000000001
40
0.50910926455616623
40
0.50910926455616623
40
0.50910926455616623
40
0.50910926455616623
40
0.55027687321430929
40
0.55027687321430929
40
0.57704523493698467
40
0.57704523493698467
40
0.57704523493698467
40
0.57704523493698467
10
162.30625000000055
20
67.506249999998687
30
0
10
162.30625000000057
20
67.635627312209365
30
0
10
162.27995009100533
20
67.764663918640679
30
0
10
162.20516833060145
20
67.951483287664416
30
0
10
162.1679365963044
20
68.018714074274911
30
0
10
162.1270509894502
20
68.077464264280053
30
0
0
ARC
5
160
100
AcDbEntity
8
0
100
AcDbCircle
10
161.30625000000055
20
67.506249999998687
30
0
40
1.0000000000000089
210
0
220
-0
230
1
100
AcDbArc
50
34.834943570098503
51
90
0
LINE
5
161
100
AcDbEntity
8
0
100
AcDbLine
10
161.30625000000055
20
68.506249999998673
30
0
11
130.29186140586273
21
68.5062499999989
31
0
0
ARC
5
162
100
AcDbEntity
8
0
100
AcDbCircle
10
130.29186140586273
20
67.506249999998914
30
0
40
0.99999999999998757
210
0
220
-0
230
1
100
AcDbArc
50
90
51
145.16505642989833
0
SPLINE
5
163
100
AcDbEntity
8
0
100
AcDbSpline
70
0
71
3
72
10
73
6
74
0
42
0.000000001
43
0.0000000001
44
0.0000000001
40
0.1359691853962019
40
0.1359691853962019
40
0.1359691853962019
40
0.1359691853962019
40
0.16273754711888105
40
0.16273754711888105
40
0.20390515577702378
40
0.20390515577702378
40
0.20390515577702378
40
0.20390515577702378
10
129.47106041641314
20
68.077464264280309
30
0
10
129.43017480955891
20
68.018714074275152
30
0
10
129.39294307526183
20
67.951483287664658
30
0
10
129.31816131485795
20
67.76466391864092
30
0
10
129.29186140586273
20
67.635627312209607
30
0
10
129.29186140586273
20
67.506249999998929
30
0
0
LWPOLYLINE
5
164
100
AcDbEntity
8
0
100
AcDbPolyline
90
8
70
1
43
0.0
10
-98.868750000000034
20
-18.90625000000604
10
-86.868750000000148
20
-18.90625000000604
42
0.41421356237310025
10
-85.868750000000091
20
-17.90625000000588
10
-85.868750000000063
20
-5.9062500000057128
42
0.41421356237308948
10
-86.868750000000148
20
-4.9062500000057172
10
-98.868750000000176
20
-4.9062500000060876
42
0.41421356237309664
10
-99.868750000000048
20
-5.9062500000060325
10
-99.868750000000048
20
-17.906250000006025
42
0.41421356237308982
0
LWPOLYLINE
5
165
100
AcDbEntity
8
0
100
AcDbPolyline
90
4
70
1
43
0.0
10
85.581250000000111
20
36.599999999996612
10
52.531249999999901
20
36.599999999996555
42
-0.99999999999999989
10
52.531249999999901
20
39.599999999996598
10
85.581250000000111
20
39.599999999996683
42
-0.99999999999999989
0
LWPOLYLINE
5
166
100
AcDbEntity
8
0
100
AcDbPolyline
90
8
70
1
43
0.0
10
170.30625000000001
20
14.143749999998896
42
-0.41421356237310542
10
171.30625000000003
20
13.143749999998917
10
171.30625000000006
20
1.1437499999988179
42
-0.41421356237308271
10
170.30624999999998
20
0.14374999999876112
10
158.30625000000001
20
0.14374999999885729
42
-0.41421356237308971
10
157.30624999999998
20
1.1437499999988887
10
157.30624999999975
20
13.143749999998702
42
-0.41421356237309764
10
158.30624999999995
20
14.143749999998896
0
LWPOLYLINE
5
167
100
AcDbEntity
8
0
100
AcDbPolyline
90
8
70
1
43
0.0
10
-145.11123000000012
20
-57.006250000001046
42
-0.41421356237309764
10
-146.11123000000012
20
-56.006250000001039
10
-146.11123000000003
20
-44.006250000001046
42
-0.41421356237309764
10
-145.11123000000003
20
-43.006250000001046
10
-128.73125000000016
20
-43.00625000000106
42
-0.41421356237308721
10
-127.73125000000014
20
-44.006250000001081
10
-127.7312500000001
20
-56.006250000001039
42
-0.41421356237309764
10
-128.73125000000016
20
-57.006250000001089
0
LWPOLYLINE
5
168
100
AcDbEntity
8
0
100
AcDbPolyline
90
8
70
1
43
0.0
10
37.653124999999932
20
-60.506250000001103
10
37.653124999999932
20
-59.506250000001124
42
-0.41421356237309503
10
38.653124999999946
20
-58.50625000000111
10
42.653124999999932
20
-58.50625000000111
42
-0.4142135623730846
10
43.653124999999875
20
-59.50625000000116
10
43.65312499999991
20
-60.506250000001103
42
-0.41421356237310542
10
42.653124999999932
20
-61.506250000001117
10
38.653124999999946
20
-61.506250000001117
42
-0.41421356237313667
0
LWPOLYLINE
5
169
100
AcDbEntity
8
0
100
AcDbPolyline
90
4
70
1
43
0.0
10
-131.29604008465691
20
-36.95625000000085
42
-0.99999999999999989
10
-133.29604008465694
20
-36.95625000000085
10
-133.29604008465685
20
-24.956250000000821
42
-0.99999999999999989
10
-131.29604008465697
20
-24.956250000000821
0
LWPOLYLINE
5
170
100
AcDbEntity
8
0
100
AcDbPolyline
90
8
70
1
43
0.0
10
-166.54374999999999
20
13.143749999998846
42
-0.41421356237310542
10
-165.54374999999993
20
14.143749999998846
10
-153.54375000000019
20
14.143749999998843
42
-0.41421356237308982
10
-152.54375000000016
20
13.143749999998846
10
-152.54375000000016
20
1.1437499999988179
42
-0.41421356237308976
10
-153.54375000000019
20
0.14374999999880345
10
-165.54374999999993
20
0.14374999999883953
42
-0.4142135623731053
10
-166.54374999999993
20
1.1437499999988177
0
LWPOLYLINE
5
171
100
AcDbEntity
8
0
100
AcDbPolyline
90
8
70
1
43
0.0
10
-60.768750000000011
20
-18.90625000000604
10
-48.768750000000196
20
-18.90625000000604
42
0.41421356237308787
10
-47.768750000000026
20
-17.906250000005596
10
-47.76875000000004
20
-5.9062500000054641
42
0.41421356237309537
10
-48.768750000000125
20
-4.9062500000054667
10
-60.768750000000153
20
-4.9062500000062137
42
0.4142135623730947
10
-61.768750000000026
20
-5.9062500000061036
10
-61.768750000000011
20
-17.906250000006025
42
0.41421356237309503
0
LWPOLYLINE
5
172
100
AcDbEntity
8
0
100
AcDbPolyline
90
8
70
1
43
0.0
10
23.956250000000239
20
-24.956250000006541
10
23.956250000000026
20
-36.956250000000779
42
0.41421356237310936
10
24.956249999999972
20
-37.956250000000821
10
36.956249999999926
20
-37.95625000000085
42
0.41421356237308982
10
37.956249999999926
20
-36.956250000000878
10
37.956250000000281
20
-24.956250000006047
42
0.41421356237310542
10
36.956250000000281
20
-23.956250000005994
10
24.956250000000324
20
-23.95625000000652
42
0.41421356237307944
0
LWPOLYLINE
5
173
100
AcDbEntity
8
0
100
AcDbPolyline
90
8
70
1
43
0.0
10
-46.481249999999932
20
0.14374999999881982
42
-0.41421356237309548
10
-47.481249999999932
20
1.1437499999988177
10
-47.481249999999982
20
13.143749999999059
42
-0.41421356237309437
10
-46.481250000000145
20
14.143749999998896
10
-34.481250000000188
20
14.143750000000461
42
-0.41421356237313728
10
-33.481250000000102
20
13.143750000000516
10
-33.481249999999818
20
1.1437500000000969
42
-0.41421356237313611
10
-34.481250000001253
20
0.14374999999880345
0
LWPOLYLINE
5
174
100
AcDbEntity
8
0
100
AcDbPolyline
90
8
70
1
43
0.0
10
-41.71875
20
-18.90625000000604
10
-29.718750000000185
20
-18.90625000000604
42
0.41421356237310025
10
-28.718750000000021
20
-17.906250000005453
10
-28.718750000000028
20
-5.906250000005393
42
0.41421356237309503
10
-29.718750000000117
20
-4.9062500000053921
10
-41.718750000000142
20
-4.9062500000063043
42
0.41421356237309404
10
-42.718750000000014
20
-5.9062500000061391
10
-42.71875
20
-17.906250000006025
42
0.41421356237309503
0
LWPOLYLINE
5
175
100
AcDbEntity
8
0
100
AcDbPolyline
90
4
70
1
43
0.0
10
-157.30625000000003
20
36.599999999996342
10
-171.30625000000003
20
36.599999999996342
42
-0.99999999999999989
10
-171.30625000000003
20
39.599999999996385
10
-157.30625000000003
20
39.599999999996385
42
-0.99999999999999989
0
LWPOLYLINE
5
176
100
AcDbEntity
8
0
100
AcDbPolyline
90
8
70
1
43
0.0
10
-157.30625000000003
20
20.193749999998971
10
-157.30625000000003
20
32.193749999994026
42
0.41421356237309115
10
-158.30625000000012
20
33.193749999994026
10
-170.3062500000002
20
33.193749999994097
42
0.41421356237310802
10
-171.30625000000023
20
32.19374999999409
10
-171.30625000000023
20
20.193749999998971
42
0.41421356237310542
10
-170.3062500000002
20
19.19374999999895
10
-158.30625000000003
20
19.193749999998971
42
0.41421356237308982
0
LWPOLYLINE
5
177
100
AcDbEntity
8
0
100
AcDbPolyline
90
8
70
1
43
0.0
10
-53.531249999999631
20
43.00624999999927
10
-65.531249999999801
20
43.00624999999922
42
-0.41421356237311063
10
-66.531249999999858
20
44.00624999999927
10
-66.531249999999972
20
56.006249999998587
42
-0.4142135623730846
10
-65.531249999999801
20
57.00624999999873
10
-53.531249999999773
20
57.006249999998637
42
-0.4142135623730846
10
-52.531249999999829
20
56.00624999999873
10
-52.531249999999773
20
44.006249999999127
42
-0.41421356237309503
0
LWPOLYLINE
5
178
100
AcDbEntity
8
0
100
AcDbPolyline
90
8
70
1
43
0.0
10
-28.431250000000006
20
44.006249999999483
10
-28.431249999999977
20
56.00624999999873
42
-0.41421356237308721
10
-27.43124999999992
20
57.006249999998744
10
-15.43124999999975
20
57.00624999999873
42
-0.41421356237309503
10
-14.43124999999975
20
56.00624999999873
10
-14.431249999999658
20
44.006249999999376
42
-0.41421356237309698
10
-15.431249999999608
20
43.006249999999433
10
-27.43124999999992
20
43.006249999999369
42
-0.41421356237310802
0
LWPOLYLINE
5
179
100
AcDbEntity
8
0
100
AcDbPolyline
90
8
70
1
43
0.0
10
42.653125000000642
20
61.506249999998275
42
-0.41421356237310542
10
43.653125000000585
20
60.506249999998296
10
43.653125000000585
20
59.506249999998353
42
-0.4142135623730846
10
42.653125000000642
20
58.506249999998303
10
38.653125000000657
20
58.506249999998374
42
-0.41421356237309503
10
37.653125000000642
20
59.506249999998388
10
37.653125000000607
20
60.506249999998403
42
-0.41421356237312623
10
38.653125000000657
20
61.506249999998417
0
LWPOLYLINE
5
180
100
AcDbEntity
8
0
100
AcDbPolyline
90
8
70
1
43
0.0
10
-117.91875000000005
20
-18.90625000000604
10
-105.91875000000016
20
-18.90625000000604
42
0.41421356237310025
10
-104.9187500000001
20
-17.906250000005915
10
-104.91875000000007
20
-5.9062500000059259
42
0.41421356237308948
10
-105.91875000000016
20
-4.9062500000059304
10
-117.91875000000005
20
-4.9062500000060316
42
0.41421356237308982
10
-118.91875000000006
20
-5.9062500000060325
10
-118.91875000000006
20
-17.906250000006025
42
0.41421356237308982
0
LWPOLYLINE
5
181
100
AcDbEntity
8
0
100
AcDbPolyline
90
8
70
1
43
0.0
10
-123.68124999999999
20
13.143749999998917
10
-123.68124999999999
20
1.1437499999988177
42
0.41421356237308971
10
-122.68124999999998
20
0.14374999999882176
10
-110.68125000000009
20
0.14374999999880345
42
0.41421356237308909
10
-109.68125000000003
20
1.1437499999988887
10
-109.68125000000001
20
13.143749999998917
42
0.41421356237308982
10
-110.68125000000002
20
14.143749999998931
10
-122.68124999999998
20
14.14374999999886
42
0.41421356237309698
0
LWPOLYLINE
5
182
100
AcDbEntity
8
0
100
AcDbPolyline
90
8
70
1
43
0.0
10
-17.906250000000128
20
19.193749999999003
42
-0.41421356237309437
10
-18.906250000000128
20
20.193749999999007
10
-18.906250000000064
20
32.193749999993777
42
-0.41421356237309503
10
-17.906250000000341
20
33.1937499999935
10
-5.9062500000000284
20
33.193749999994999
42
-0.4142135623731103
10
-4.9062500000000142
20
32.193749999995077
10
-4.9062499999982103
20
20.193750000000854
42
-0.41421356237309276
10
-5.9062500000000995
20
19.193749999998964
0
LWPOLYLINE
5
183
100
AcDbEntity
8
0
100
AcDbPolyline
90
4
70
1
43
0.0
10
-75.318750000000065
20
45.00624999999836
10
-75.318749999999994
20
55.006249999998467
42
-0.99999999999999989
10
-72.318750000000023
20
55.006249999998467
10
-72.318749999999952
20
45.006249999998573
42
-0.99999999999999989
0
LWPOLYLINE
5
184
100
AcDbEntity
8
0
100
AcDbPolyline
90
8
70
1
43
0.0
10
56.006250000000222
20
-23.956250000006001
42
-0.41421356237310936
10
57.006250000000222
20
-24.956250000006047
10
57.006249999999937
20
-36.956250000000907
42
-0.41421356237307683
10
56.006249999999937
20
-37.956250000000857
10
44.00624999999998
20
-37.956250000000836
42
-0.41421356237310675
10
43.006249999999966
20
-36.956250000000779
10
43.006249999999639
20
-24.956250000006612
42
-0.41421356237309243
10
44.006250000000335
20
-23.956250000005941
0
LWPOLYLINE
5
185
100
AcDbEntity
8
0
100
AcDbPolyline
90
4
70
1
43
0.0
10
-145.56499000000008
20
-5.906250000005997
42
-0.99999999999999989
10
-142.56499000000014
20
-5.906250000005997
10
-142.56499000000005
20
-17.906250000006025
42
-0.99999999999999989
10
-145.56499000000017
20
-17.906250000006025
0
LWPOLYLINE
5
186
100
AcDbEntity
8
0
100
AcDbPolyline
90
8
70
1
43
0.0
10
42.006249999999881
20
-44.006250000001081
10
42.006249999999881
20
-56.006250000001074
42
0.41421356237309503
10
43.006249999999895
20
-57.006250000001074
10
61.76874999999999
20
-57.006250000000676
42
0.41421356237309503
10
62.768749999999983
20
-56.006250000001074
10
62.768749999999955
20
-44.006250000001046
42
0.41421356237309503
10
61.768749999999955
20
-43.006250000000996
10
43.006249999999966
20
-43.006250000001025
42
0.41421356237309503
0
LWPOLYLINE
5
187
100
AcDbEntity
8
0
100
AcDbPolyline
90
8
70
1
43
0.0
10
-57.006250000000023
20
32.193749999993884
10
-57.006250000000094
20
20.193749999998971
42
0.41421356237309503
10
-56.006250000000151
20
19.193749999998975
10
-44.006250000000122
20
19.193749999998964
42
0.4142135623730937
10
-43.006249999999895
20
20.19375000000089
10
-43.006250000000051
20
32.193749999994772
42
0.41421356237309503
10
-44.006250000000051
20
33.193749999994793
10
-56.006250000000222
20
33.19374999999367
42
0.4142135623730937
0
LWPOLYLINE
5
188
100
AcDbEntity
8
0
100
AcDbPolyline
90
8
70
1
43
0.0
10
-38.653124999999307
20
61.506249999999376
42
-0.41421356237312623
10
-37.653124999999363
20
60.506249999999326
10
-37.653124999999363
20
59.506249999999383
42
-0.41421356237309503
10
-38.653124999999378
20
58.506249999999369
10
-42.653124999999363
20
58.506249999999369
42
-0.41421356237309503
10
-43.653124999999449
20
59.506249999999454
10
-43.653124999999449
20
60.506249999999469
42
-0.41421356237311585
10
-42.653124999999434
20
61.506249999999412
0
LWPOLYLINE
5
189
100
AcDbEntity
8
0
100
AcDbPolyline
90
8
70
1
43
0.0
10
-119.80625000000011
20
-61.506250000001259
10
-123.80625000000009
20
-61.506250000001224
42
-0.41421356237310542
10
-124.80625000000003
20
-60.506250000001245
10
-124.80625000000003
20
-59.506250000001302
42
-0.41421356237310542
10
-123.80625000000002
20
-58.506250000001252
10
-119.80625000000011
20
-58.506250000001252
42
-0.41421356237309503
10
-118.80625000000009
20
-59.506250000001266
10
-118.80625000000009
20
-60.506250000001245
42
-0.41421356237313667
0
LWPOLYLINE
5
190
100
AcDbEntity
8
0
100
AcDbPolyline
90
24
70
1
43
0.0
10
-161.02432930467637
20
-38.256250000000875
42
-0.41421356237309503
10
-160.72432930467636
20
-37.956250000000871
10
-144.10313016931369
20
-37.956250000000864
42
-0.41421356237309503
10
-143.80313016931368
20
-38.256250000000875
10
-143.80313016931368
20
-38.918250025142171
42
0.41421356237309115
10
-142.80313016931365
20
-39.918250025142207
10
-137.14833016931365
20
-39.9182500251422
42
0.41421356237309115
10
-136.14833016931362
20
-38.918250025142207
10
-136.14833016931362
20
-22.994249974859429
42
0.41421356237309115
10
-137.14833016931365
20
-21.994249974859429
10
-142.80313016931359
20
-21.994249974859468
42
0.41421356237309115
10
-143.80313016931359
20
-22.994249974859464
10
-143.80313016931888
20
-23.656250000005983
42
-0.41421356237309503
10
-144.10313016931369
20
-23.956250000000807
10
-160.72432930467636
20
-23.956250000005923
42
-0.41421356237309503
10
-161.02432930467637
20
-23.656250000005912
10
-161.02432930467637
20
-22.994249974859287
42
0.41421356237310675
10
-162.02432930467637
20
-21.994249974859304
10
-167.67912930467645
20
-21.994249974859326
42
0.41421356237310675
10
-168.67912930467634
20
-22.994249974859322
10
-168.67912930467645
20
-38.918250025142314
42
0.41421356237310675
10
-167.67912930467645
20
-39.918250025142299
10
-162.02432930467637
20
-39.918250025142342
42
0.41421356237310675
10
-161.02432930467637
20
-38.918250025142349
0
LWPOLYLINE
5
191
100
AcDbEntity
8
0
100
AcDbPolyline
90
8
70
1
43
0.0
10
42.718750000000014
20
1.1437500000008072
10
42.718750000000014
20
13.143750000000622
42
0.41421356237309503
10
41.71875
20
14.143750000000619
10
29.718749999999545
20
14.143750000000637
42
0.41421356237309698
10
28.718749999999822
20
13.143749999999164
10
28.718749999999829
20
1.1437499999988532
42
0.4142135623730967
10
29.718749999999829
20
0.14374999999882121
10
41.718749999999716
20
0.14375000000052901
42
0.41421356237309026
0
LWPOLYLINE
5
192
100
AcDbEntity
8
0
100
AcDbPolyline
90
4
70
1
43
0.0
10
-149.13749999999999
20
13.143749999998917
42
-0.99999999999999989
10
-146.13750000000005
20
13.143749999998917
10
-146.13749999999996
20
1.1437499999988887
42
-0.99999999999999989
10
-149.13750000000007
20
1.1437499999988887
0
LWPOLYLINE
5
193
100
AcDbEntity
8
0
100
AcDbPolyline
90
8
70
1
43
0.0
10
-23.956249999999812
20
-43.005770000152822
42
-0.41421356237309503
10
-22.956249999999812
20
-44.005770000152822
10
-22.956249999999816
20
-56.005769999997597
42
-0.41421356237309503
10
-23.956249999999812
20
-57.005769999997597
10
-49.886629999999101
20
-57.005769999997611
42
-0.41421356237309503
10
-50.886629999999116
20
-56.005769999997597
10
-50.886629999999116
20
-44.005770000152822
42
-0.41421356237309503
10
-49.886629999999101
20
-43.005770000152808
0
ARC
5
194
100
AcDbEntity
8
0
100
AcDbCircle
10
-17.956249999999869
20
-49.005769999997639
30
0
40
1.5000000000000204
210
0
220
0
230
1
100
AcDbArc
50
125.41008924313016
51
305.41008924313013
0
LINE
5
195
100
AcDbEntity
8
0
100
AcDbLine
10
-13.255609451646393
20
-43.823520117726019
30
0
11
-18.825387049447002
21
-47.783231334237577
31
0
0
LINE
5
196
100
AcDbEntity
8
0
100
AcDbLine
10
-17.087112950552736
20
-50.228308665757702
30
0
11
-11.517335334534877
21
-46.26859743629511
31
0
0
ARC
5
197
100
AcDbEntity
8
0
100
AcDbCircle
10
-12.38647238398201
20
-45.046058770534998
30
0
40
1.5000000000000637
210
-0
220
0
230
1
100
AcDbArc
50
-54.589910756870964
51
125.41009009690242
0
LWPOLYLINE
5
198
100
AcDbEntity
8
0
100
AcDbPolyline
90
8
70
1
43
0.0
10
139.25624999999985
20
-57.006250000000961
42
-0.41421356237308982
10
138.25624999999985
20
-56.006250000000968
10
138.25624999999997
20
-44.006250000001046
42
-0.41421356237308982
10
139.25624999999997
20
-43.006250000001046
10
151.25624999999997
20
-43.006250000001046
42
-0.41421356237308982
10
152.25624999999994
20
-44.00625000000101
10
152.25624999999997
20
-56.006250000001039
42
-0.41421356237308982
10
151.25624999999997
20
-57.006250000001017
0
LWPOLYLINE
5
199
100
AcDbEntity
8
0
100
AcDbPolyline
90
4
70
1
43
0.0
10
162.39375000000013
20
36.599999999996633
10
129.34374999999991
20
36.599999999996591
42
-0.99999999999999989
10
129.34374999999991
20
39.599999999996633
10
162.39375000000013
20
39.599999999996733
42
-0.99999999999999989
0
LWPOLYLINE
5
200
100
AcDbEntity
8
0
100
AcDbPolyline
90
8
70
1
43
0.0
10
139.45625000000004
20
-10.978789279877919
42
-0.41421356237309237
10
138.25625000000002
20
-9.7787892798779197
10
138.25625000000002
20
-9.6787892798779751
42
-0.41421356237309237
10
139.45625000000004
20
-8.4787892798779758
10
170.05625000000003
20
-8.4787892798779509
42
-0.41421356237311563
10
171.25624999999999
20
-9.6787892798779396
10
171.25625000000008
20
-9.7787892798778842
42
-0.41421356237311541
10
170.05625000000003
20
-10.97878927987793
0
LWPOLYLINE
5
201
100
AcDbEntity
8
0
100
AcDbPolyline
90
8
70
1
43
0.0
10
-79.818750000000165
20
-4.9062500000057874
10
-67.818750000000136
20
-4.9062500000056444
42
-0.41421356237309537
10
-66.818750000000136
20
-5.9062500000056417
10
-66.818750000000037
20
-17.90625000000567
42
-0.41421356237309115
10
-67.818750000000136
20
-18.906250000005784
10
-79.818750000000037
20
-18.906250000006033
42
-0.41421356237308005
10
-80.818750000000037
20
-17.906250000006025
10
-80.818750000000477
20
-5.9062500000061036
42
-0.41421356237309664
0
LWPOLYLINE
5
202
100
AcDbEntity
8
0
100
AcDbPolyline
90
8
70
1
43
0.0
10
119.20624999999998
20
20.193749999998829
10
119.20624999999998
20
32.193749999994239
42
-0.41421356237310414
10
120.20624999999993
20
33.193749999994182
10
132.20625000000007
20
33.193749999994232
42
-0.41421356237308982
10
133.20625000000007
20
32.193749999994232
10
133.20624999999976
20
20.193749999998865
42
-0.41421356237308721
10
132.20624999999987
20
19.193749999998985
10
120.20624999999993
20
19.193749999998879
42
-0.41421356237309764
0
LWPOLYLINE
5
203
100
AcDbEntity
8
0
100
AcDbPolyline
90
32
70
1
43
0.0
10
95.321869830686268
20
-39.918250025142314
42
-0.41421356237309115
10
94.321869830686254
20
-38.918250025142314
10
94.321869830686254
20
-38.256250000000911
42
0.41421356237309503
10
94.021869830686242
20
-37.956250000000907
10
77.400670695323655
20
-37.956250000000907
42
0.41421356237309503
10
77.100670695323657
20
-38.256250000000911
10
77.100670695323629
20
-38.918250025142243
42
-0.41421356237311063
10
76.100670695323629
20
-39.918250025142271
10
70.445870695323549
20
-39.918250025142314
42
-0.41421356237309631
10
69.445870695323549
20
-38.918250025142314
10
69.445870695323549
20
-22.994249974859358
42
-0.41421356237309631
10
70.445870695323549
20
-21.994249974859361
10
76.100670695323487
20
-21.994249974859358
42
-0.41421356237309631
10
77.100670695323487
20
-22.994249974859358
10
77.100670695323515
20
-23.656250000005983
42
0.41421356237309503
10
77.400670695323512
20
-23.956250000005987
10
94.021869830686384
20
-23.956250000005987
42
0.41421356237309503
10
94.321869830686353
20
-23.656250000005983
10
94.321869830686396
20
-22.994249974859358
42
-0.41421356237309115
10
95.32186983068641
20
-21.994249974859361
10
100.97666983068635
20
-21.994249974859358
42
-0.41421356237309115
10
101.97666983068636
20
-22.994249974859358
10
101.97666983068636
20
-23.656250000005983
42
0.41421356237309503
10
102.27666983068637
20
-23.956250000005987
10
109.39374999736248
20
-23.956250000005991
42
-0.41421356237309631
10
110.39374999736251
20
-24.956250000006008
10
110.39374999736248
20
-36.956250000006143
42
-0.41421356237309631
10
109.39374999736248
20
-37.956250000006143
10
102.27666983068637
20
-37.956250000006129
42
0.41421356237309503
10
101.97666983068636
20
-38.256250000006133
10
101.97666983068636
20
-38.918250025142314
42
-0.41421356237309115
10
100.97666983068635
20
-39.918250025142314
0
LWPOLYLINE
5
204
100
AcDbEntity
8
0
100
AcDbPolyline
90
8
70
1
43
0.0
10
-42.653125000000145
20
-61.506250000001188
42
-0.41421356237312623
10
-43.653125000000159
20
-60.506250000001209
10
-43.653125000000124
20
-59.506250000001195
42
-0.4142135623730846
10
-42.653125000000074
20
-58.506250000001181
10
-38.653125000000088
20
-58.506250000001181
42
-0.41421356237309503
10
-37.653125000000074
20
-59.506250000001195
10
-37.653125000000074
20
-60.506250000001174
42
-0.41421356237313667
10
-38.653125000000088
20
-61.506250000001188
0
LWPOLYLINE
5
205
100
AcDbEntity
8
0
100
AcDbPolyline
90
8
70
1
43
0.0
10
15.431249999999963
20
43.006249999999525
42
-0.41421356237309503
10
14.431249999999963
20
44.006249999999518
10
14.431249999999897
20
56.006249999998587
42
-0.41421356237310997
10
15.431249999999963
20
57.006249999998673
10
27.431250000000347
20
57.00624999999863
42
-0.41421356237312362
10
28.431250000000361
20
56.006249999998531
10
28.431250000000453
20
44.006249999999518
42
-0.41421356237310153
10
27.431250000000489
20
43.006249999999554
0
LWPOLYLINE
5
206
100
AcDbEntity
8
0
100
AcDbPolyline
90
8
70
1
43
0.0
10
-8.3812499999999091
20
57.00624999999873
10
3.6187500000002615
20
57.00624999999873
42
-0.41421356237309537
10
4.6187500000002624
20
56.00624999999873
10
4.6187500000003521
20
44.006249999999497
42
-0.41421356237311224
10
3.6187500000004036
20
43.006249999999504
10
-8.3812499999999091
20
43.006249999999454
42
-0.41421356237310936
10
-9.3812499999999943
20
44.006249999999554
10
-9.3812499999999552
20
56.006249999998694
42
-0.41421356237309892
0
LWPOLYLINE
5
207
100
AcDbEntity
8
0
100
AcDbPolyline
90
4
70
1
43
0.0
10
87.225000000000037
20
1.1437500000007716
42
-0.99999999999999989
10
84.224999999999994
20
1.1437500000007716
10
84.224999999999966
20
13.1437500000008
42
-0.99999999999999989
10
87.22500000000008
20
13.1437500000008
0
LWPOLYLINE
5
208
100
AcDbEntity
8
0
100
AcDbPolyline
90
8
70
1
43
0.0
10
66.818749999999909
20
13.143749999999237
10
66.818749999999909
20
1.1437499999988532
42
0.41421356237309548
10
67.818749999999966
20
0.14374999999885535
10
79.81874999999971
20
0.14374999999882121
42
0.41421356237307738
10
80.818750000000122
20
1.1437500000009493
10
80.818750000000108
20
13.143750000000942
42
0.41421356237309631
10
79.818750000000477
20
14.143750000000566
10
67.818749999999568
20
14.143749999998905
42
0.41421356237309631
0
LWPOLYLINE
5
209
100
AcDbEntity
8
0
100
AcDbPolyline
90
36
70
1
43
0.0
10
76.312875062954163
20
19.194254116860499
42
-0.40494331022248631
10
75.344623757362484
20
20.193749999995276
10
75.344623757362484
20
32.193749999994878
42
-0.40494331022248753
10
76.312875062954149
20
33.193245883129656
42
0.40494331022249686
10
76.603350454631681
20
33.493094648070105
10
76.603350454631695
20
34.155750025141813
42
-0.41421356237309631
10
77.603350454631681
20
35.155750025141813
10
83.258150454631618
20
35.155750025141849
42
-0.41421356237309115
10
84.258150454631647
20
34.155750025141849
10
84.258150454631647
20
33.493749999994762
42
0.41421356237312978
10
84.558150454631686
20
33.193749999994758
10
101.17934958999456
20
33.193749999993052
42
0.41421356237306034
10
101.47934958999454
20
33.493749999995757
10
101.47934958999454
20
34.155750025141813
42
-0.41421356237309115
10
102.47934958999454
20
35.155750025141813
10
108.13414958999448
20
35.155750025141849
42
-0.41421356237309115
10
109.13414958999451
20
34.155750025141849
10
109.13414958999451
20
33.493094648070105
42
0.40494331022249658
10
109.42462498167203
20
33.193245883129677
42
-0.40494331022248631
10
110.3928762872637
20
32.193749999994878
10
110.39287628726369
20
20.193749999995276
42
-0.40494331022248509
10
109.42462498167203
20
19.194254116860495
42
0.40494331022249663
10
109.13414958999451
20
18.894405351920049
10
109.13414958999451
20
18.231749974857507
42
-0.41421356237308982
10
108.13414958999448
20
17.231749974857507
10
102.47934958999451
20
17.231749974857511
42
-0.41421356237308982
10
101.4793495899945
20
18.231749974857507
10
101.47934958999454
20
18.893750000000615
42
0.41421356237309503
10
101.17934958999453
20
19.193749999998985
10
84.558150454631658
20
19.193750000000577
42
0.41421356237309503
10
84.258150454631647
20
18.89375000000058
10
84.258150454631647
20
18.231749974857507
42
-0.41421356237308982
10
83.258150454631618
20
17.231749974857507
10
77.603350454631681
20
17.23174997485744
42
-0.41421356237309503
10
76.603350454631695
20
18.231749974857436
10
76.603350454631681
20
18.894405351920049
42
0.4049433102224882
0
LWPOLYLINE
5
210
100
AcDbEntity
8
0
100
AcDbPolyline
90
8
70
1
43
0.0
10
-104.63124999999998
20
13.143749999998917
10
-104.63124999999998
20
1.1437499999988532
42
0.41421356237308909
10
-103.63124999999989
20
0.14374999999878818
10
-91.63125000000008
20
0.14374999999880345
42
0.41421356237308227
10
-90.631249999999966
20
1.1437499999989598
10
-90.631249999999923
20
13.143749999998917
42
0.41421356237309698
10
-91.631249999999866
20
14.143749999998869
10
-103.63124999999997
20
14.14374999999886
42
0.41421356237309698
0
LWPOLYLINE
5
211
100
AcDbEntity
8
0
100
AcDbPolyline
90
8
70
1
43
0.0
10
1.1437499999998126
20
19.193749999998989
42
-0.41421356237309492
10
0.14374999999986732
20
20.193749999998936
10
0.1437499999999485
20
32.193749999993706
42
-0.4142135623730952
10
1.1437499999996703
20
33.193749999993429
10
13.143749999999912
20
33.193749999995148
42
-0.41421356237309631
10
14.143749999999926
20
32.193749999995248
10
14.143750000001933
20
20.193750000001032
42
-0.41421356237310542
10
13.143749999999912
20
19.193749999998975
0
LWPOLYLINE
5
212
100
AcDbEntity
8
0
100
AcDbPolyline
90
8
70
1
43
0.0
10
-3.6187500000000483
20
-18.906250000006025
42
-0.41421356237309492
10
-4.6187500000000492
20
-17.906250000006025
10
-4.6187500000001265
20
-5.9062500000061746
42
-0.41421356237309437
10
-3.6187500000004036
20
-4.9062500000064517
10
8.381249999999838
20
-4.9062500000050946
42
-0.41421356237311519
10
9.3812499999999233
20
-5.9062500000051088
10
9.3812500000004011
20
-17.90625000000524
42
-0.41421356237311452
10
8.3812499999995538
20
-18.906250000006022
0
LWPOLYLINE
5
213
100
AcDbEntity
8
0
100
AcDbPolyline
90
8
70
1
43
0.0
10
72.581250000000068
20
43.006249999999739
42
-0.41421356237309503
10
71.581250000000068
20
44.006249999999731
10
71.581250000000054
20
56.006249999998452
42
-0.41421356237309764
10
72.581250000000182
20
57.006249999998637
10
84.581249999999599
20
57.006249999998737
42
-0.41421356237310281
10
85.581249999999784
20
56.006249999998481
10
85.581249999999741
20
44.006249999999554
42
-0.41421356237311063
10
84.581249999999983
20
43.006249999999788
0
LWPOLYLINE
5
214
100
AcDbEntity
8
0
100
AcDbPolyline
90
4
70
1
43
0.0
10
166.68750000131894
20
-24.956250000005618
10
166.68750000131919
20
-36.95625000000561
42
-0.99999999999999989
10
162.68750000131914
20
-36.956250000005681
10
162.68750000131894
20
-24.956250000005618
42
-0.99999999999999989
0
LWPOLYLINE
5
215
100
AcDbEntity
8
0
100
AcDbPolyline
90
8
70
1
43
0.0
10
-72.581249999999926
20
14.143749999998985
42
-0.41421356237309503
10
-71.581249999999926
20
13.143749999998988
10
-71.581249999999898
20
1.1437499999990666
42
-0.41421356237309148
10
-72.581249999999997
20
0.14374999999895458
10
-84.581249999999955
20
0.14374999999882176
42
-0.41421356237308971
10
-85.581249999999969
20
1.1437499999988177
10
-85.581250000000111
20
13.143749999998988
42
-0.4142135623730866
10
-84.581250000000097
20
14.143749999999002
0
LWPOLYLINE
5
216
100
AcDbEntity
8
0
100
AcDbPolyline
90
8
70
1
43
0.0
10
157.30625000000003
20
56.006249999998658
42
-0.41421356237310281
10
158.30625000000009
20
57.006249999998708
10
170.30625000000001
20
57.006249999998673
42
-0.41421356237310542
10
171.30625000000003
20
56.006249999998694
10
171.30625000000003
20
44.006250000000016
42
-0.41421356237309764
10
170.30625000000009
20
43.006250000000072
10
158.30624999999998
20
43.006250000000044
42
-0.41421356237310281
10
157.30625000000003
20
44.00624999999998
0
LWPOLYLINE
5
217
100
AcDbEntity
8
0
100
AcDbPolyline
90
8
70
1
43
0.0
10
139.25625000000002
20
-37.956250000000814
42
-0.41421356237309115
10
138.25625000000002
20
-36.956250000000814
10
138.25625000000014
20
-24.956250000006008
42
-0.41421356237309115
10
139.25625000000014
20
-23.956250000006012
10
151.25625000000008
20
-23.956250000005973
42
-0.41421356237309631
10
152.25625000000011
20
-24.956250000006026
10
152.25624999999991
20
-36.956250000000814
42
-0.41421356237310025
10
151.25624999999991
20
-37.956250000000828
0
LWPOLYLINE
5
218
100
AcDbEntity
8
0
100
AcDbPolyline
90
8
70
1
43
0.0
10
-108.39375000000018
20
43.006249999999014
42
-0.41421356237310281
10
-109.39375000000013
20
44.00624999999895
10
-109.3937500000001
20
56.006249999998531
42
-0.41421356237310802
10
-108.39374999999997
20
57.006249999998666
10
-96.393749999999869
20
57.00624999999868
42
-0.41421356237309764
10
-95.393749999999855
20
56.006249999998658
10
-95.393749999999756
20
44.006249999998879
42
-0.41421356237309243
10
-96.393749999999585
20
43.006249999999042
0
LWPOLYLINE
5
219
100
AcDbEntity
8
0
100
AcDbPolyline
90
4
70
1
43
0.0
10
-33.48124999999996
20
36.599999999996527
10
-66.531250000000028
20
36.599999999996449
42
-0.99999999999999989
10
-66.531250000000028
20
39.599999999996491
10
-33.48124999999996
20
39.599999999996626
42
-0.99999999999999989
0
LWPOLYLINE
5
220
100
AcDbEntity
8
0
100
AcDbPolyline
90
8
70
1
43
0.0
10
-94.106250000000102
20
19.19374999999895
42
-0.41421356237309764
10
-95.106250000000045
20
20.1937499999989
10
-95.106250000000074
20
32.193749999993955
42
-0.41421356237310281
10
-94.106250000000173
20
33.193749999993841
10
-82.106250000000003
20
33.193749999994587
42
-0.41421356237308332
10
-81.106249999999989
20
32.193749999994608
10
-81.106249999999775
20
20.193749999999184
42
-0.41421356237313928
10
-82.106250000000145
20
19.193749999998957
0
LWPOLYLINE
5
221
100
AcDbEntity
8
0
100
AcDbPolyline
90
8
70
1
43
0.0
10
151.25625000000008
20
33.193749999994097
42
-0.41421356237309115
10
152.25625000000008
20
32.193749999994097
10
152.25625000000002
20
20.193749999998929
42
-0.41421356237307944
10
151.25624999999988
20
19.193749999998822
10
139.25625000000002
20
19.193749999998815
42
-0.41421356237309503
10
138.25624999999999
20
20.193749999998865
10
138.25625000000133
20
32.193749999994346
42
-0.41421356237310414
10
139.25624999999991
20
33.19374999999291
0
LWPOLYLINE
5
222
100
AcDbEntity
8
0
100
AcDbPolyline
90
8
70
1
43
0.0
10
170.05625000000003
20
-13.478789279877951
42
-0.41421356237311563
10
171.25624999999999
20
-14.67878927987794
10
171.25624999999999
20
-14.778789279877884
42
-0.41421356237311563
10
170.05625000000003
20
-15.978789279877885
10
159.45625000000004
20
-15.978789279877919
42
-0.41421356237309237
10
158.25625000000002
20
-14.77878927987792
10
158.25624999999997
20
-14.678789279877975
42
-0.41421356237309237
10
159.45625000000004
20
-13.47878927987793
0
ARC
5
223
100
AcDbEntity
8
0
100
AcDbCircle
10
-161.30625000000009
20
-62.506250000001309
30
0
40
0.99999999999999645
210
0
220
-0
230
1
100
AcDbArc
50
90
51
180
0
LINE
5
224
100
AcDbEntity
8
0
100
AcDbLine
10
-132.80625000000009
20
-61.506250000001259
30
0
11
-161.30625000000009
21
-61.506250000001316
31
0
0
ARC
5
225
100
AcDbEntity
8
0
100
AcDbCircle
10
-132.80625000000001
20
-60.506250000001245
30
0
40
1.0000000000000142
210
0
220
0
230
1
100
AcDbArc
50
-90.000000000004889
51
90
0
LINE
5
226
100
AcDbEntity
8
0
100
AcDbLine
10
-170.39203643762698
20
-59.506250000001231
30
0
11
-132.80625000000001
21
-59.506250000001245
31
0
0
ARC
5
227
100
AcDbEntity
8
0
100
AcDbCircle
10
-170.39203643762698
20
-58.506250000001252
30
0
40
1.0000000000000233
210
0
220
0
230
1
100
AcDbArc
50
224.99999999999594
51
270
0
LINE
5
228
100
AcDbEntity
8
0
100
AcDbLine
10
-173.51335678118659
20
-56.799143218814656
30
0
11
-171.09914321881359
21
-59.213356781187763
31
0
0
ARC
5
229
100
AcDbEntity
8
0
100
AcDbCircle
10
-172.80625000000001
20
-56.09203643762811
30
0
40
0.99999999999997868
210
0
220
0
230
1
100
AcDbArc
50
180
51
224.99999999999855
0
ARC
5
230
100
AcDbEntity
8
0
100
AcDbCircle
10
-171.80625000000006
20
-1.8562500000011894
30
0
40
2
210
0
220
-0
230
1
100
AcDbArc
50
90
51
180
0
LINE
5
231
100
AcDbEntity
8
0
100
AcDbLine
10
-171.80625000000006
20
0.14374999999881066
30
0
11
-171.54375000000016
21
0.14374999999880345
31
0
0
ARC
5
232
100
AcDbEntity
8
0
100
AcDbCircle
10
-171.54375000000016
20
1.1437499999988177
30
0
40
1.0000000000000142
210
-0
220
0
230
1
100
AcDbArc
50
-90
51
0
0
LINE
5
233
100
AcDbEntity
8
0
100
AcDbLine
10
-170.54375000000016
20
1.1437499999988177
30
0
11
-170.54375000000007
21
13.143749999998846
31
0
0
ARC
5
234
100
AcDbEntity
8
0
100
AcDbCircle
10
-171.54375000000016
20
13.143749999998846
30
0
40
1.0000000000000853
210
0
220
0
230
1
100
AcDbArc
50
0
51
90
0
LINE
5
235
100
AcDbEntity
8
0
100
AcDbLine
10
-171.54375000000016
20
14.14374999999886
30
0
11
-171.80625000000006
21
14.14374999999886
31
0
0
ARC
5
236
100
AcDbEntity
8
0
100
AcDbCircle
10
-171.80625000000006
20
16.143749999998853
30
0
40
2.0000000000000284
210
0
220
0
230
1
100
AcDbArc
50
180
51
270
0
ARC
5
237
100
AcDbEntity
8
0
100
AcDbCircle
10
-172.80625000000009
20
56.092036437628323
30
0
40
0.99999999999998546
210
0
220
0
230
1
100
AcDbArc
50
134.99999999999713
51
180
0
LINE
5
238
100
AcDbEntity
8
0
100
AcDbLine
10
-171.09914321881362
20
59.213356781187947
30
0
11
-173.51335678118659
21
56.799143218814891
31
0
0
ARC
5
239
100
AcDbEntity
8
0
100
AcDbCircle
10
-170.39203643762704
20
58.506250000001394
30
0
40
1.0000000000000053
210
0
220
-0
230
1
100
AcDbArc
50
90
51
135.00000000000117
0
LINE
5
240
100
AcDbEntity
8
0
100
AcDbLine
10
-170.39203643762704
20
59.506250000001401
30
0
11
-132.80624999999964
21
59.506250000001053
31
0
0
ARC
5
241
100
AcDbEntity
8
0
100
AcDbCircle
10
-132.80624999999958
20
60.506250000001103
30
0
40
1.0000000000000497
210
0
220
0
230
1
100
AcDbArc
50
-90.000000000003254
51
90
0
LINE
5
242
100
AcDbEntity
8
0
100
AcDbLine
10
-132.80624999999958
20
61.506250000001103
30
0
11
-161.30624999999958
21
61.506250000001366
31
0
0
ARC
5
243
100
AcDbEntity
8
0
100
AcDbCircle
10
-161.30624999999958
20
62.506250000001415
30
0
40
1.0000000000000142
210
0
220
0
230
1
100
AcDbArc
50
180
51
270
0
LWPOLYLINE
5
244
100
AcDbEntity
8
0
100
AcDbPolyline
90
8
70
1
43
0.0
10
-128.44374999999991
20
44.006249999998971
10
-128.44374999999997
20
56.006249999998531
42
-0.41421356237310802
10
-127.44374999999984
20
57.006249999998666
10
-115.44374999999995
20
57.006249999998658
42
-0.41421356237308982
10
-114.44374999999994
20
56.006249999998658
10
-114.44375000000001
20
44.006249999998843
42
-0.41421356237308721
10
-115.44374999999988
20
43.006249999998957
10
-127.44374999999991
20
43.006249999998978
42
-0.41421356237309764
0
LWPOLYLINE
5
245
100
AcDbEntity
8
0
100
AcDbPolyline
90
8
70
1
43
0.0
10
5.9062499999999574
20
-37.95625000000085
42
-0.41421356237310641
10
4.9062499999999565
20
-36.956250000000807
10
4.9062500000002585
20
-24.95625000000647
42
-0.41421356237308332
10
5.9062500000003126
20
-23.956250000006449
10
17.906250000000199
20
-23.956250000005998
42
-0.41421356237311452
10
18.906250000000213
20
-24.956250000006062
10
18.906249999999837
20
-36.956250000000949
42
-0.4142135623730846
10
17.906249999999915
20
-37.95625000000085
0
LWPOLYLINE
5
246
100
AcDbEntity
8
0
100
AcDbPolyline
90
8
70
1
43
0.0
10
53.531250000000057
20
43.006249999999696
42
-0.41421356237309503
10
52.531250000000057
20
44.006249999999696
10
52.531250000000028
20
56.006249999998552
42
-0.41421356237308982
10
53.531250000000128
20
57.006249999998673
10
65.531249999999872
20
57.006249999998673
42
-0.41421356237310542
10
66.531249999999886
20
56.006249999998623
10
66.531249999999872
20
44.006249999999589
42
-0.41421356237309503
10
65.531249999999972
20
43.006249999999696
0
LWPOLYLINE
5
247
100
AcDbEntity
8
0
100
AcDbPolyline
90
8
70
1
43
0.0
10
33.193750000000222
20
20.193750000000907
10
33.193749999999937
20
32.19374999999539
42
0.41421356237309503
10
32.193749999999923
20
33.193749999995347
10
20.193749999999682
20
33.193749999994765
42
0.41421356237309503
10
19.193750000000016
20
32.193749999993706
10
19.193749999999824
20
20.193749999999007
42
0.41421356237309503
10
20.193749999999824
20
19.193749999998975
10
32.193749999999923
20
19.19375000000052
42
0.41421356237310802
0
LWPOLYLINE
5
248
100
AcDbEntity
8
0
100
AcDbPolyline
90
4
70
1
43
0.0
10
62.726060347661736
20
-24.956250000000821
42
-0.99999999999999989
10
65.726060347661786
20
-24.956250000000821
10
65.726060347661814
20
-36.95625000000085
42
-0.99999999999999989
10
62.726060347661701
20
-36.95625000000085
0
LWPOLYLINE
5
249
100
AcDbEntity
8
0
100
AcDbPolyline
90
24
70
1
43
0.0
10
29.506149830685157
20
-57.506250000001096
42
-0.41421356237309764
10
30.00614983068516
20
-57.006250000001096
10
37.95624999999994
20
-57.006250000001074
42
0.41421356237309503
10
38.95624999999994
20
-56.006250000001074
10
38.956249999999955
20
-44.006250000001046
42
0.41421356237309503
10
37.95624999999994
20
-43.006250000001046
10
30.00614983068516
20
-43.006250000000996
42
-0.41421356237310281
10
29.506149830685189
20
-42.506250000001025
10
29.50614983068526
20
-42.006249999996257
42
0.41421356237315748
10
28.506149830685246
20
-41.006249999996029
10
23.851349830685038
20
-41.006249999996029
42
0.41421356237304302
10
22.851349830685024
20
-42.006249999995866
10
22.85134983068491
20
-42.506250000001025
42
-0.41421356237310025
10
22.35134983068491
20
-43.006250000001032
10
21.576269999999909
20
-43.006250000001025
42
0.41421356237308982
10
20.576269999999894
20
-44.006250000001081
10
20.576269999999909
20
-56.006250000001074
42
0.41421356237309503
10
21.576269999999909
20
-57.006250000001074
10
22.35134983068491
20
-57.006250000001103
42
-0.41421356237309764
10
22.85134983068491
20
-57.506250000001096
10
22.85134983068497
20
-57.706250000006243
42
0.41421356237304691
10
23.851349830684967
20
-58.706250000006065
10
28.506149830685246
20
-58.706250000006065
42
0.41421356237315876
10
29.506149830685246
20
-57.706250000005852
0
LWPOLYLINE
5
250
100
AcDbEntity
8
0
100
AcDbPolyline
90
4
70
1
43
0.0
10
123.82499999868128
20
-24.956250000005937
42
-0.99999999999999989
10
127.82499999868134
20
-24.956250000006008
10
127.82499999868129
20
-36.956250000006001
42
-0.99999999999999989
10
123.82499999868131
20
-36.956250000006001
0
LWPOLYLINE
5
251
100
AcDbEntity
8
0
100
AcDbPolyline
90
8
70
1
43
0.0
10
126.80625000000077
20
61.506249999997351
42
-0.4142135623730846
10
127.80625000000074
20
60.506249999997337
10
127.80625000000074
20
59.506249999997358
42
-0.41421356237307422
10
126.80625000000074
20
58.506249999997344
10
122.80625000000074
20
58.506249999997451
42
-0.41421356237307422
10
121.80625000000077
20
59.506249999997429
10
121.80625000000074
20
60.506249999997408
42
-0.41421356237310542
10
122.80625000000079
20
61.506249999997422
0
LWPOLYLINE
5
252
100
AcDbEntity
8
0
100
AcDbPolyline
90
8
70
1
43
0.0
10
2.6287498306852966
20
-42.006101724443283
42
-0.41421356237309537
10
3.6287498306852939
20
-41.006101724443283
10
14.628749830685166
20
-41.006101724443283
42
-0.41421356237309503
10
15.628749830685166
20
-42.006101724443283
10
15.62874983068518
20
-57.706101724443322
42
-0.41421356237309503
10
14.628749830685166
20
-58.706101724443336
10
3.6287498306852943
20
-58.7061017244433
42
-0.41421356237309553
10
2.6287498306852797
20
-57.706101724443286
0
LWPOLYLINE
5
253
100
AcDbEntity
8
0
100
AcDbPolyline
90
8
70
1
43
0.0
10
-124.80624999999935
20
60.506250000000463
42
-0.41421356237310542
10
-123.80624999999938
20
61.506250000000477
10
-119.80624999999932
20
61.506250000000406
42
-0.41421356237311585
10
-118.80624999999938
20
60.506250000000392
10
-118.80624999999938
20
59.506250000000414
42
-0.4142135623730846
10
-119.80624999999939
20
58.506250000000428
10
-123.80624999999938
20
58.50625000000047
42
-0.4142135623730846
10
-124.80624999999932
20
59.50625000000052
0
LWPOLYLINE
5
254
100
AcDbEntity
8
0
100
AcDbPolyline
90
8
70
1
43
0.0
10
-34.481249999999768
20
57.006249999998687
42
-0.41421356237310281
10
-33.481249999999761
20
56.006249999998694
10
-33.481249999999726
20
44.00624999999927
42
-0.41421356237310675
10
-34.481249999999619
20
43.006249999999341
10
-46.481249999999932
20
43.006249999999326
42
-0.41421356237311063
10
-47.481249999999875
20
44.006249999999305
10
-47.48125000000006
20
56.006249999998587
42
-0.41421356237308982
10
-46.481249999999932
20
57.006249999998715
0
LWPOLYLINE
5
255
100
AcDbEntity
8
0
100
AcDbPolyline
90
8
70
1
43
0.0
10
-75.502499736996015
20
-57.706250000006065
42
-0.41421356237309503
10
-76.502499736996015
20
-58.706250000006065
10
-79.502499736995986
20
-58.706250000006072
42
-0.41421356237308204
10
-80.502499736996
20
-57.706250000006065
10
-80.502499736996
20
-42.006250000001089
42
-0.41421356237308204
10
-79.502499736995986
20
-41.006250000001074
10
-76.502499736996015
20
-41.006250000001003
42
-0.41421356237309503
10
-75.502499736995929
20
-42.006250000001089
0
LWPOLYLINE
5
256
100
AcDbEntity
8
0
100
AcDbPolyline
90
8
70
1
43
0.0
10
-24.956250000000182
20
19.193749999998964
10
-36.956250000000139
20
19.193749999998971
42
-0.41421356237309764
10
-37.956250000000139
20
20.193749999998971
10
-37.956250000000075
20
32.193749999993848
42
-0.41421356237309503
10
-36.956250000000352
20
33.193749999993571
10
-24.956250000000114
20
33.193749999994921
42
-0.41421356237311063
10
-23.956250000000026
20
32.193749999994935
10
-23.956249999998292
20
20.193750000000854
42
-0.41421356237309243
0
LWPOLYLINE
5
257
100
AcDbEntity
8
0
100
AcDbPolyline
90
8
70
1
43
0.0
10
-98.502499736995972
20
-42.006250000001089
42
-0.41421356237308982
10
-97.502499736995958
20
-41.006250000001089
10
-83.502499736995972
20
-41.006250000001089
42
-0.41421356237308982
10
-82.502499736995958
20
-42.006250000001089
10
-82.502499736995944
20
-57.706250000006065
42
-0.41421356237308982
10
-83.502499736995972
20
-58.706250000006079
10
-97.502499736995958
20
-58.706250000006136
42
-0.41421356237308982
10
-98.502499736996043
20
-57.706250000006065
0
LWPOLYLINE
5
258
100
AcDbEntity
8
0
100
AcDbPolyline
90
4
70
1
43
0.0
10
-5.9999999999995879
20
63.506250000000009
10
-75.306249999999508
20
63.506250000000634
42
-0.99999999999999989
10
-75.30624999999965
20
65.50625000000062
10
-5.9999999999994369
20
65.506250000000037
42
-0.99999999999999989
0
LWPOLYLINE
5
259
100
AcDbEntity
8
0
100
AcDbPolyline
90
8
70
1
43
0.0
10
132.2062499999999
20
14.143749999998843
42
-0.41421356237308982
10
133.20624999999993
20
13.143749999998846
10
133.20624999999993
20
1.1437499999989245
42
-0.41421356237308904
10
132.20624999999987
20
0.14374999999886784
10
120.20624999999993
20
0.1437499999988695
42
-0.41421356237309653
10
119.20624999999998
20
1.1437499999988177
10
119.20625000000003
20
13.143749999998986
42
-0.41421356237309764
10
120.20624999999993
20
14.143749999998887
0
LWPOLYLINE
5
260
100
AcDbEntity
8
0
100
AcDbPolyline
90
8
70
1
43
0.0
10
170.30625000000001
20
33.193749999994012
42
-0.41421356237310675
10
171.30625000000003
20
32.193749999994026
10
171.30625000000009
20
20.193749999998829
42
-0.41421356237308204
10
170.30624999999998
20
19.193749999998772
10
158.30624999999995
20
19.193749999998737
42
-0.41421356237309764
10
157.30625000000001
20
20.193749999998687
10
157.30625000000165
20
32.193749999994445
42
-0.41421356237309243
10
158.30625000000003
20
33.193749999992839
0
LWPOLYLINE
5
261
100
AcDbEntity
8
0
100
AcDbPolyline
90
8
70
1
43
0.0
10
170.05625000000003
20
-18.478789279877951
42
-0.41421356237311563
10
171.25624999999999
20
-19.67878927987794
10
171.25624999999999
20
-19.778789279877884
42
-0.41421356237311618
10
170.05625000000003
20
-20.978789279877887
10
139.45625000000004
20
-20.978789279877923
42
-0.41421356237309237
10
138.25625000000002
20
-19.77878927987792
10
138.25624999999997
20
-19.678789279877975
42
-0.41421356237309237
10
139.45625000000004
20
-18.47878927987793
0
LWPOLYLINE
5
262
100
AcDbEntity
8
0
100
AcDbPolyline
90
4
70
1
43
0.0
10
-156.30625000000006
20
-65.506250000001231
42
-0.99999999999999989
10
-156.30625000000015
20
-63.506250000001231
10
-87.306249999999963
20
-63.506250000001202
42
-0.99999999999999989
10
-87.306250000000105
20
-65.506250000001188
0
LWPOLYLINE
5
263
100
AcDbEntity
8
0
100
AcDbPolyline
90
8
70
1
43
0.0
10
151.25624999999988
20
0.14374999999883897
10
139.25625000000002
20
0.14374999999889282
42
-0.41421356237308971
10
138.25625000000002
20
1.1437499999988887
10
138.25624999999999
20
13.143749999998953
42
-0.41421356237309176
10
139.25624999999991
20
14.143749999998843
10
151.25624999999991
20
14.143749999998949
42
-0.41421356237308982
10
152.25624999999997
20
13.143749999998917
10
152.25624999999991
20
1.1437499999988889
42
-0.41421356237308915
0
LWPOLYLINE
5
264
100
AcDbEntity
8
0
100
AcDbPolyline
90
4
70
1
43
0.0
10
-147.49375000000009
20
39.599999999996449
10
-114.44374999999994
20
39.599999999996562
42
-0.99999999999999989
10
-114.44374999999994
20
36.59999999999652
10
-147.49375000000009
20
36.59999999999642
42
-0.99999999999999989
0
SPLINE
5
265
100
AcDbEntity
8
0
100
AcDbSpline
70
0
71
3
72
10
73
6
74
0
42
0.000000001
43
0.0000000001
44
0.0000000001
40
0.50910926455616756
40
0.50910926455616756
40
0.50910926455616756
40
0.50910926455616756
40
0.55027687321430929
40
0.55027687321430929
40
0.57704523493698967
40
0.57704523493698967
40
0.57704523493698967
40
0.57704523493698967
10
129.29186140586273
20
66.506249999998914
30
0
10
129.29186140586273
20
66.376872687788222
30
0
10
129.31816131485795
20
66.24783608135688
30
0
10
129.39294307526183
20
66.061016712333156
30
0
10
129.43017480955891
20
65.993785925722648
30
0
10
129.47106041641314
20
65.935035735717506
30
0
0
ARC
5
266
100
AcDbEntity
8
0
100
AcDbCircle
10
130.29186140586273
20
66.506249999998929
30
0
40
1.0000000000000102
210
0
220
0
230
1
100
AcDbArc
50
214.83494357010304
51
270
0
ARC
5
267
100
AcDbEntity
8
0
100
AcDbCircle
10
151.30625000000052
20
64.506249999998772
30
0
40
0.99999999999999645
210
0
220
0
230
1
100
AcDbArc
50
-90
51
90
0
ARC
5
268
100
AcDbEntity
8
0
100
AcDbCircle
10
120.29186140586273
20
62.506249999998964
30
0
40
0.99999999999999645
210
0
220
-0
230
1
100
AcDbArc
50
90
51
180
0
LINE
5
269
100
AcDbEntity
8
0
100
AcDbLine
10
119.29186140586268
20
60.00624999999399
30
0
11
119.2918614058627
21
62.506249999998964
31
0
0
ARC
5
270
100
AcDbEntity
8
0
100
AcDbCircle
10
117.29186140586272
20
60.00624999999399
30
0
40
1.9999999999999929
210
-0
220
0
230
1
100
AcDbArc
50
-90
51
0
0
LINE
5
271
100
AcDbEntity
8
0
100
AcDbLine
10
111.29721659413732
20
58.006249999993997
30
0
11
117.29186140586272
21
58.006249999993997
31
0
0
ARC
5
272
100
AcDbEntity
8
0
100
AcDbCircle
10
111.29721659413732
20
60.00624999999399
30
0
40
1.9999999999999929
210
0
220
0
230
1
100
AcDbArc
50
180
51
270
0
LINE
5
273
100
AcDbEntity
8
0
100
AcDbLine
10
109.2972165941373
20
62.506249999999106
30
0
11
109.29721659413732
21
60.00624999999399
31
0
0
ARC
5
274
100
AcDbEntity
8
0
100
AcDbCircle
10
108.29721659413732
20
62.506249999999106
30
0
40
0.99999999999997868
210
0
220
-0
230
1
100
AcDbArc
50
0
51
90
0
ARC
5
275
100
AcDbEntity
8
0
100
AcDbCircle
10
87.306250000000531
20
64.506249999999284
30
0
40
0.99999999999998757
210
0
220
0
230
1
100
AcDbArc
50
90.000000000002444
51
270.00000000000244
0
ARC
5
276
100
AcDbEntity
8
0
100
AcDbCircle
10
103.29721659413735
20
66.50624999999917
30
0
40
0.99999999999999645
210
-0
220
0
230
1
100
AcDbArc
50
270
51
325.16505642989995
0
SPLINE
5
277
100
AcDbEntity
8
0
100
AcDbSpline
70
0
71
3
72
10
73
6
74
0
42
0.000000001
43
0.0000000001
44
0.0000000001
40
0.13596918539620753
40
0.13596918539620753
40
0.13596918539620753
40
0.13596918539620753
40
0.16273754711887795
40
0.16273754711887795
40
0.20390515577702267
40
0.20390515577702267
40
0.20390515577702267
40
0.20390515577702267
10
104.11801758358699
20
65.93503573571779
30
0
10
104.15890319044117
20
65.993785925722904
30
0
10
104.19613492473822
20
66.061016712333412
30
0
10
104.27091668514211
20
66.247836081357121
30
0
10
104.29721659413737
20
66.376872687788463
30
0
10
104.29721659413737
20
66.50624999999917
30
0
0
LWPOLYLINE
5
278
100
AcDbEntity
8
0
100
AcDbPolyline
90
12
70
1
43
0.0
10
-2.9999999999999716
20
63.006250000000001
10
-2.9999999999999813
20
63.999999999998884
42
-0.41421356237309359
10
-1.4999999999999858
20
65.499999999998892
10
1.4999999999999147
20
65.499999999998892
42
-0.4142135623730917
10
2.9999999999999156
20
63.999999999998884
10
2.9999999999999716
20
63.006249999999859
42
0.41421356237309503
10
4.4999999999999574
20
61.506249999999852
10
29.653125000000465
20
61.50624999999966
42
-0.99999999999999989
10
29.653125000000458
20
59.506249999999703
10
-29.653124999999747
20
59.506250000000151
42
-0.99999999999999989
10
-29.653124999999605
20
61.506250000000136
10
-4.4999999999999574
20
61.506249999999994
42
0.41421356237309503
0
LWPOLYLINE
5
279
100
AcDbEntity
8
0
100
AcDbPolyline
90
4
70
1
43
0.0
10
47.481250000000017
20
36.599999999996456
10
14.431249999999878
20
36.599999999996378
42
-0.99999999999999989
10
14.431249999999878
20
39.59999999999642
10
47.481250000000017
20
39.599999999996555
42
-0.99999999999999989
0
LWPOLYLINE
5
280
100
AcDbEntity
8
0
100
AcDbPolyline
90
4
70
1
43
0.0
10
-75.306249999999935
20
-65.506250000001188
42
-0.99999999999999989
10
-75.306249999999935
20
-63.506250000001202
10
-6.0000000000000764
20
-63.50625000000111
42
-0.99999999999999989
10
-6.0000000000000853
20
-65.506250000001131
0
LWPOLYLINE
5
281
100
AcDbEntity
8
0
100
AcDbPolyline
90
4
70
1
43
0.0
10
75.306250000000432
20
65.506249999999369
10
6.0000000000004405
20
65.506249999999909
42
0.99999999999999989
10
6.0000000000005027
20
63.506249999999923
10
75.30625000000046
20
63.506249999999355
42
0.99999999999999989
0
ARC
5
282
100
AcDbEntity
8
0
100
AcDbCircle
10
-61.456407616016833
20
-45.046058770534998
30
0
40
1.5000000000000204
210
0
220
-0
230
1
100
AcDbArc
50
54.589910756869862
51
234.58991075686984
0
LINE
5
283
100
AcDbEntity
8
0
100
AcDbLine
10
-55.017492924788769
20
-47.783231352553258
30
0
11
-60.5872705665697
21
-43.823520104774936
31
0
0
LINE
5
284
100
AcDbEntity
8
0
100
AcDbLine
10
-62.325544665463966
20
-46.26859743629506
30
0
11
-56.755767049446106
21
-50.228308665757723
31
0
0
ARC
5
285
100
AcDbEntity
8
0
100
AcDbCircle
10
-55.886629999998974
20
-49.005769999997639
30
0
40
1.5000000000000349
210
0
220
0
230
1
100
AcDbArc
50
-125.41008924312965
51
54.589909549451995
0
LWPOLYLINE
5
286
100
AcDbEntity
8
0
100
AcDbPolyline
90
8
70
1
43
0.0
10
-58.293749999999847
20
-23.956250000005994
10
-70.293749999999733
20
-23.956250000005941
42
0.41421356237309503
10
-71.293749999999733
20
-24.956250000006154
10
-71.29374999999996
20
-36.956250000000814
42
0.41421356237311585
10
-70.293749999999946
20
-37.95625000000085
10
-58.29375000000006
20
-37.956250000000864
42
0.4142135623730781
10
-57.293750000000117
20
-36.956250000000978
10
-57.293749999999847
20
-24.956250000006044
42
0.41421356237311585
0
LINE
5
287
100
AcDbEntity
8
0
100
AcDbLine
10
-72.803079264297565
20
-46.433301555068169
30
0
11
-57.045479399261794
21
-57.635821554344382
31
0
0
ARC
5
288
100
AcDbEntity
8
0
100
AcDbCircle
10
-71.644229830683912
20
-44.803250025142383
30
0
40
2.0000000000000133
210
0
220
-0
230
1
100
AcDbArc
50
54.589910756870424
51
234.58990954944997
0
ARC
5
289
100
AcDbEntity
8
0
100
AcDbCircle
10
-55.886629999998974
20
-56.005769999997632
30
0
40
2.0000000000000133
210
0
220
0
230
1
100
AcDbArc
50
-125.41008924312959
51
54.58991075686793
0
LINE
5
290
100
AcDbEntity
8
0
100
AcDbLine
10
-54.727780600736082
20
-54.375718445650932
30
0
11
-70.485380431421092
21
-43.173198470795633
31
0
0
ARC
5
291
100
AcDbEntity
8
0
100
AcDbCircle
10
-71.644229830683912
20
-51.803250025142376
30
0
40
1.5000000000000204
210
0
220
-0
230
1
100
AcDbArc
50
54.589910756869862
51
234.5899095494517
0
LINE
5
292
100
AcDbEntity
8
0
100
AcDbLine
10
-65.20531514700167
20
-54.540422601796053
30
0
11
-70.775092781236779
21
-50.580711359382313
31
0
0
LINE
5
293
100
AcDbEntity
8
0
100
AcDbLine
10
-72.513366905894117
20
-53.025788672586742
30
0
11
-66.943589264113186
21
-56.985499920365079
31
0
0
ARC
5
294
100
AcDbEntity
8
0
100
AcDbCircle
10
-66.074452214666053
20
-55.762961254605017
30
0
40
1.5000000000000204
210
0
220
0
230
1
100
AcDbArc
50
-125.41008924313016
51
54.589909903097265
0
LWPOLYLINE
5
295
100
AcDbEntity
8
0
100
AcDbPolyline
90
8
70
1
43
0.0
10
65.818749999999895
20
-44.006250000001081
10
65.818749999999895
20
-56.006250000001074
42
0.41421356237309503
10
66.818749999999881
20
-57.006250000001131
10
83.198729999999983
20
-57.006250000000747
42
0.41421356237308721
10
84.198730000000026
20
-56.006250000001039
10
84.198730000000012
20
-44.006250000001046
42
0.41421356237309764
10
83.198730000000012
20
-43.006250000000996
10
66.818749999999909
20
-43.006250000001025
42
0.41421356237309503
0
LWPOLYLINE
5
296
100
AcDbEntity
8
0
100
AcDbPolyline
90
4
70
1
43
0.0
10
115.79999999999991
20
45.006249999998502
42
-0.99999999999999989
10
112.79999999999987
20
45.006249999998502
10
112.79999999999984
20
55.006249999998502
42
-0.99999999999999989
10
115.79999999999995
20
55.006249999998502
0
LWPOLYLINE
5
297
100
AcDbEntity
8
0
100
AcDbPolyline
90
4
70
1
43
0.0
10
-19.115099399262689
20
-54.375718445650918
10
-3.3574995685777509
20
-43.173198470795633
42
-0.99999999999999989
10
-1.0398007700521106
20
-46.433301579489132
10
-16.797400600737049
20
-57.635821554344346
42
-0.99999999999999989
0
LWPOLYLINE
5
298
100
AcDbEntity
8
0
100
AcDbPolyline
90
8
70
1
43
0.0
10
51.24374999999997
20
33.193749999995418
42
-0.41421356237310281
10
52.243750000000006
20
32.193749999995447
10
52.243750000000304
20
20.19375000000106
42
-0.41421356237312756
10
51.243749999999935
20
19.193750000000662
10
39.243749999999977
20
19.193749999998953
42
-0.41421356237309631
10
38.243749999999963
20
20.193749999998971
10
38.243749999998435
20
32.193749999993599
42
-0.41421356237309503
10
39.243749999999622
20
33.193749999994786
0
LWPOLYLINE
5
299
100
AcDbEntity
8
0
100
AcDbPolyline
90
8
70
1
43
0.0
10
-157.30625000000003
20
44.006249999998772
42
-0.41421356237308982
10
-158.30625000000003
20
43.006249999998772
10
-170.30625000000001
20
43.006249999998687
42
-0.4142135623730846
10
-171.30625000000009
20
44.006249999998737
10
-171.30625000000009
20
56.006249999998623
42
-0.4142135623730846
10
-170.30625000000001
20
57.006249999998666
10
-158.30625000000003
20
57.00624999999868
42
-0.41421356237309764
10
-157.30625000000003
20
56.006249999998658
0
LWPOLYLINE
5
300
100
AcDbEntity
8
0
100
AcDbPolyline
90
4
70
1
43
0.0
10
130.32499999868134
20
-33.95625000000603
10
130.32499999868128
20
-27.956250000005944
42
-0.99999999999999989
10
133.32499999868134
20
-27.956250000005944
10
133.32499999868136
20
-33.956250000005888
42
-0.99999999999999989
0
LWPOLYLINE
5
301
100
AcDbEntity
8
0
100
AcDbPolyline
90
8
70
1
43
0.0
10
53.531249999999986
20
-18.906250000005986
42
-0.41421356237309503
10
52.531249999999986
20
-17.90625000000599
10
52.531249999999964
20
-5.9062500000063167
42
-0.4142135623730957
10
53.531249999999631
20
-4.9062500000066489
10
65.531249999999915
20
-4.9062500000046638
42
-0.41421356237311197
10
66.531249999999957
20
-5.9062500000046825
10
66.531250000000753
20
-17.906250000004889
42
-0.41421356237310153
10
65.531249999999588
20
-18.906250000006022
0
LWPOLYLINE
5
302
100
AcDbEntity
8
0
100
AcDbPolyline
90
8
70
1
43
0.0
10
70.293749999999946
20
19.193749999998975
10
58.29375000000006
20
19.193749999998975
42
-0.41421356237309503
10
57.29375000000006
20
20.193749999998971
10
57.293750000000031
20
32.193749999993599
42
-0.41421356237310281
10
58.293749999999633
20
33.193749999993216
10
70.293749999999946
20
33.19374999999561
42
-0.41421356237309892
10
71.293750000000031
20
32.193749999995653
10
71.293750000002078
20
20.193750000001138
42
-0.41421356237310675
0
LWPOLYLINE
5
303
100
AcDbEntity
8
0
100
AcDbPolyline
90
4
70
1
43
0.0
10
118.32499999868131
20
-33.95625000000603
10
118.32499999868126
20
-27.956250000005944
42
-0.99999999999999989
10
121.32499999868131
20
-27.956250000005944
10
121.32499999868134
20
-33.956250000005888
42
-0.99999999999999989
0
LWPOLYLINE
5
304
100
AcDbEntity
8
0
100
AcDbPolyline
90
8
70
1
43
0.0
10
90.631249999999923
20
-57.006250000001153
42
-0.41421356237309764
10
89.631249999999923
20
-56.006250000001145
10
89.631249999999937
20
-44.006250000001046
42
-0.41421356237309764
10
90.631249999999923
20
-43.006250000001046
10
107.01123000000007
20
-43.006250000001003
42
-0.41421356237310281
10
108.01123000000004
20
-44.006250000000975
10
108.01122999999978
20
-56.006250000001074
42
-0.41421356237308721
10
107.01123000000003
20
-57.006250000000861
0
LWPOLYLINE
5
305
100
AcDbEntity
8
0
100
AcDbPolyline
90
8
70
1
43
0.0
10
-120.20625000000017
20
33.19374999999431
42
-0.41421356237309115
10
-119.20625000000015
20
32.19374999999431
10
-119.20625000000004
20
20.193749999998943
42
-0.41421356237310153
10
-120.2062500000001
20
19.193749999998879
10
-132.20625000000018
20
19.193749999999021
42
-0.41421356237309764
10
-133.20625000000007
20
20.1937499999989
10
-133.20625000000032
20
32.193749999994026
42
-0.41421356237310414
10
-132.20625000000013
20
33.193749999994218
0
LWPOLYLINE
5
306
100
AcDbEntity
8
0
100
AcDbPolyline
90
8
70
1
43
0.0
10
47.768749999999756
20
13.143749999999237
10
47.768749999999756
20
1.1437499999988532
42
0.41421356237309548
10
48.768749999999734
20
0.14374999999885535
10
60.768749999999621
20
0.14374999999882121
42
0.41421356237309875
10
61.768749999999962
20
1.1437500000009493
10
61.76874999999994
20
13.143750000000551
42
0.41421356237309503
10
60.76874999999994
20
14.143750000000566
10
48.768749999999415
20
14.143749999998905
42
0.41421356237309631
0
LWPOLYLINE
5
307
100
AcDbEntity
8
0
100
AcDbPolyline
90
8
70
1
43
0.0
10
-62.056249999999878
20
20.19375000000079
42
-0.41421356237309243
10
-63.056249999999991
20
19.193750000000669
10
-75.056250000000091
20
19.19374999999895
42
-0.41421356237309764
10
-76.056250000000034
20
20.1937499999989
10
-76.056250000000688
20
32.193749999993919
42
-0.4142135623730937
10
-75.056250000000233
20
33.193749999994367
10
-63.056250000000063
20
33.193749999994715
42
-0.41421356237309243
10
-62.056249999999977
20
32.193749999994637
0
LWPOLYLINE
5
308
100
AcDbEntity
8
0
100
AcDbPolyline
90
4
70
1
43
0.0
10
69.86981034766174
20
-17.906250000004675
10
69.86981034766174
20
-5.9062500000046469
42
-0.99999999999999989
10
72.869810347661783
20
-5.9062500000046469
10
72.869810347661783
20
-17.906250000004675
42
-0.99999999999999989
0
LWPOLYLINE
5
309
100
AcDbEntity
8
0
100
AcDbPolyline
90
8
70
1
43
0.0
10
150.05625000000003
20
-5.9787892798779296
10
139.45625000000004
20
-5.9787892798779172
42
-0.41421356237309193
10
138.25625000000002
20
-4.7787892798779206
10
138.25625000000002
20
-4.6787892798779751
42
-0.41421356237309248
10
139.45625000000004
20
-3.4787892798779749
10
150.05625000000003
20
-3.4787892798779758
42
-0.41421356237309248
10
151.25624999999999
20
-4.6787892798779396
10
151.25625000000008
20
-4.7787892798778842
42
-0.4142135623730922
0
LWPOLYLINE
5
310
100
AcDbEntity
8
0
100
AcDbPolyline
90
8
70
1
43
0.0
10
-28.431249999999935
20
1.1437499999988177
10
-28.431249999999913
20
13.143749999999841
42
-0.4142135623730937
10
-27.431250000000915
20
14.143749999998843
10
-15.431250000000247
20
14.143750000000516
42
-0.41421356237313667
10
-14.431250000000105
20
13.143750000000516
10
-14.43124999999986
20
1.1437500000000613
42
-0.41421356237313561
10
-15.431250000001242
20
0.14374999999882121
10
-27.431249999999917
20
0.14374999999880664
42
-0.41421356237309803
0
LWPOLYLINE
5
311
100
AcDbEntity
8
0
100
AcDbPolyline
90
4
70
1
43
0.0
10
11.025000000000063
20
55.006249999998786
10
11.025000000000134
20
45.006249999998715
42
-0.99999999999999989
10
8.025000000000162
20
45.006249999998715
10
8.0250000000002331
20
55.006249999998644
42
-0.99999999999999989
0
LWPOLYLINE
5
312
100
AcDbEntity
8
0
100
AcDbPolyline
90
8
70
1
43
0.0
10
120.20624999999998
20
43.006249999999909
42
-0.41421356237308982
10
119.20624999999998
20
44.006249999999909
10
119.20624999999998
20
56.006249999998516
42
-0.41421356237309243
10
120.20625000000013
20
57.006249999998687
10
132.20624999999995
20
57.006249999998658
42
-0.41421356237308982
10
133.20624999999993
20
56.006249999998694
10
133.20624999999993
20
44.006249999999767
42
-0.41421356237309243
10
132.20625000000007
20
43.006249999999909
0
LWPOLYLINE
5
313
100
AcDbEntity
8
0
100
AcDbPolyline
90
8
70
1
43
0.0
10
151.25624999999997
20
57.006249999998687
42
-0.41421356237308982
10
152.25624999999997
20
56.006249999998694
10
152.25624999999994
20
44.006249999999874
42
-0.41421356237309243
10
151.25625000000005
20
43.00624999999998
10
139.25624999999994
20
43.00624999999998
42
-0.41421356237308982
10
138.25624999999991
20
44.00624999999998
10
138.25624999999988
20
56.00624999999858
42
-0.4142135623730846
10
139.25624999999999
20
57.006249999998708
0
LWPOLYLINE
5
314
100
AcDbEntity
8
0
100
AcDbPolyline
90
8
70
1
43
0.0
10
150.05625000000003
20
-15.97878927987793
10
139.45625000000004
20
-15.978789279877919
42
-0.41421356237309237
10
138.25625000000002
20
-14.77878927987792
10
138.25625000000002
20
-14.678789279877975
42
-0.41421356237309237
10
139.45625000000004
20
-13.478789279877974
10
150.05625000000003
20
-13.478789279877976
42
-0.41421356237309237
10
151.25624999999999
20
-14.67878927987794
10
151.25625000000008
20
-14.778789279877884
42
-0.41421356237309237
0
LWPOLYLINE
5
315
100
AcDbEntity
8
0
100
AcDbPolyline
90
8
70
1
43
0.0
10
-127.44374999999998
20
-37.95625000000085
42
-0.41421356237309115
10
-128.44374999999999
20
-36.956250000000814
10
-128.44374999999974
20
-24.956250000005937
42
-0.41421356237308982
10
-127.4437499999997
20
-23.956250000005916
10
-115.44374999999981
20
-23.956250000006012
42
-0.41421356237310542
10
-114.4437499999998
20
-24.956250000006062
10
-114.44375000000008
20
-36.956250000000956
42
-0.41421356237308332
10
-115.44375000000002
20
-37.956250000000864
0
LWPOLYLINE
5
316
100
AcDbEntity
8
0
100
AcDbPolyline
90
8
70
1
43
0.0
10
-13.143750000000054
20
-37.956250000000857
42
-0.41421356237310608
10
-14.143750000000054
20
-36.956250000000807
10
-14.143749999999756
20
-24.956250000006399
42
-0.41421356237308138
10
-13.143749999999699
20
-23.956250000006378
10
-1.1437499999998124
20
-23.956250000005998
42
-0.41421356237311424
10
-0.14374999999979821
20
-24.956250000006062
10
-0.14375000000010241
20
-36.956250000000956
42
-0.41421356237308915
10
-1.1437500000000256
20
-37.95625000000085
0
LWPOLYLINE
5
317
100
AcDbEntity
8
0
100
AcDbPolyline
90
8
70
1
43
0.0
10
-33.193749999999767
20
-24.956250000006328
42
-0.41421356237307944
10
-32.19374999999971
20
-23.956250000006307
10
-20.193749999999824
20
-23.956250000006012
42
-0.41421356237310936
10
-19.193749999999824
20
-24.956250000006044
10
-19.193750000000094
20
-36.956250000000978
42
-0.41421356237308204
10
-20.193750000000037
20
-37.956250000000864
10
-32.193750000000058
20
-37.956250000000786
42
-0.41421356237310542
10
-33.193750000000009
20
-36.956250000000814
0
LWPOLYLINE
5
318
100
AcDbEntity
8
0
100
AcDbPolyline
90
8
70
1
43
0.0
10
-136.96875
20
-18.90625000000604
10
-124.96875000000003
20
-18.90625000000604
42
0.41421356237308982
10
-123.96875000000001
20
-17.906250000006025
10
-123.96875000000001
20
-5.906250000005997
42
0.41421356237308948
10
-124.96875000000003
20
-4.9062500000060014
10
-136.96875000000006
20
-4.906250000005925
42
0.41421356237308982
10
-137.96875000000006
20
-5.9062500000059259
10
-137.96875
20
-17.906250000006025
42
0.41421356237308982
0
LWPOLYLINE
5
319
100
AcDbEntity
8
0
100
AcDbPolyline
90
8
70
1
43
0.0
10
124.80625000000003
20
-59.506250000001124
10
124.80625000000003
20
-60.506250000001103
42
-0.41421356237309503
10
123.80625000000002
20
-61.506250000001117
10
119.80625000000003
20
-61.506250000001117
42
-0.41421356237309503
10
118.80625000000002
20
-60.506250000001103
10
118.80625000000006
20
-59.506250000001124
42
-0.41421356237307422
10
119.80625000000003
20
-58.506250000001145
10
123.80625000000002
20
-58.50625000000111
42
-0.41421356237307422
0
LWPOLYLINE
5
320
100
AcDbEntity
8
0
100
AcDbPolyline
90
4
70
1
43
0.0
10
114.60874000000001
20
-56.006250000001039
42
-0.99999999999999989
10
111.60873999999995
20
-56.006250000001039
10
111.60873999999993
20
-44.006250000000975
42
-0.99999999999999989
10
114.60874000000004
20
-44.006250000001046
0
LWPOLYLINE
5
321
100
AcDbEntity
8
0
100
AcDbPolyline
90
8
70
1
43
0.0
10
120.20625000000003
20
-57.00625000000089
42
-0.41421356237308982
10
119.20625000000001
20
-56.006250000000897
10
119.20625000000001
20
-44.00625000000101
42
-0.41421356237308982
10
120.20625000000003
20
-43.006250000001017
10
132.20624999999995
20
-43.006250000001017
42
-0.41421356237308982
10
133.20624999999995
20
-44.00625000000101
10
133.20624999999973
20
-56.006250000001145
42
-0.41421356237308982
10
132.2062499999999
20
-57.006250000000946
0
LWPOLYLINE
5
322
100
AcDbEntity
8
0
100
AcDbPolyline
90
4
70
1
43
0.0
10
-6.899290735885657
20
-56.985499920365079
42
-0.99999999999999989
10
-8.6375648347799228
20
-54.540422588844955
10
-3.0677872187620636
20
-50.580711359382313
42
-0.99999999999999989
10
-1.3295131198677979
20
-53.025788690902438
0
LWPOLYLINE
5
323
100
AcDbEntity
8
0
100
AcDbPolyline
90
8
70
1
43
0.0
10
-142.73124999999999
20
13.143749999998846
42
-0.41421356237308982
10
-141.73124999999999
20
14.143749999998846
10
-129.73125000000024
20
14.143749999998914
42
-0.41421356237308982
10
-128.73125000000022
20
13.143749999998917
10
-128.73125000000007
20
1.1437499999988889
42
-0.41421356237308971
10
-129.73125000000016
20
0.14374999999880345
10
-141.73124999999985
20
0.14374999999875085
42
-0.41421356237308965
10
-142.73124999999993
20
1.1437499999988177
0
LWPOLYLINE
5
324
100
AcDbEntity
8
0
100
AcDbPolyline
90
8
70
1
43
0.0
10
-122.29873000000012
20
-44.006250000001046
10
-122.29873000000012
20
-56.006250000001074
42
0.41421356237309764
10
-121.29873000000011
20
-57.006250000001081
10
-104.91875000000014
20
-57.006250000001089
42
0.41421356237309764
10
-103.91875000000016
20
-56.006250000001074
10
-103.9187500000001
20
-44.006250000001153
42
0.41421356237311585
10
-104.91875000000014
20
-43.006250000001032
10
-121.29873000000011
20
-43.006250000001046
42
0.41421356237309764
0
LWPOLYLINE
5
325
100
AcDbEntity
8
0
100
AcDbPolyline
90
8
70
1
43
0.0
10
-151.25624999999999
20
33.193749999994111
10
-139.25625000000011
20
33.193749999994097
42
-0.41421356237309115
10
-138.25625000000008
20
32.193749999994097
10
-138.25625000000008
20
20.1937499999989
42
-0.41421356237308982
10
-139.25625000000011
20
19.1937499999989
10
-151.25624999999999
20
19.193749999998975
42
-0.41421356237308982
10
-152.25625000000002
20
20.193749999998971
10
-152.25625000000014
20
32.193749999993983
42
-0.41421356237309243
0
LWPOLYLINE
5
326
100
AcDbEntity
8
0
100
AcDbPolyline
90
8
70
1
43
0.0
10
46.481249999999932
20
-4.9062500000047917
42
-0.41421356237309537
10
47.481249999999932
20
-5.9062500000047891
10
47.481249999999946
20
-17.906250000004853
42
-0.41421356237309764
10
46.481249999999896
20
-18.90625000000491
10
34.481249999997985
20
-18.906250000005972
42
-0.41421356237319973
10
33.48124999999591
20
-17.906250000003539
10
33.481249999998028
20
-5.9062500000036877
42
-0.41421356237299323
10
34.481249999997345
20
-4.9062500000047216
0
LWPOLYLINE
5
327
100
AcDbEntity
8
0
100
AcDbPolyline
90
4
70
1
43
0.0
10
6.0000000000000142
20
-63.50625000000111
10
75.306249999999892
20
-63.506250000001131
42
-0.99999999999999989
10
75.306249999999977
20
-65.506250000001117
10
5.9999999999998632
20
-65.506250000001074
42
-0.99999999999999989
0
LWPOLYLINE
5
328
100
AcDbEntity
8
0
100
AcDbPolyline
90
4
70
1
43
0.0
10
-87.306249999999679
20
63.506250000000726
10
-156.30624999999964
20
63.506250000001302
42
-0.99999999999999989
10
-156.30624999999975
20
65.506250000001302
10
-87.306249999999494
20
65.506250000000591
42
-0.99999999999999989
0
LWPOLYLINE
5
329
100
AcDbEntity
8
0
100
AcDbPolyline
90
12
70
1
43
0.0
10
-1.4999999999999138
20
-65.500000000001165
42
-0.41421356237309181
10
-2.9999999999999156
20
-64.000000000001165
10
-2.9999999999999716
20
-63.006250000001103
42
0.41421356237309503
10
-4.4999999999999574
20
-61.506250000001103
10
-29.653125000000102
20
-61.506250000001131
42
-0.99999999999999989
10
-29.65312499999996
20
-59.506250000001145
10
29.653124999999967
20
-59.506250000001124
42
-0.99999999999999989
10
29.65312499999996
20
-61.506250000001081
10
4.4999999999999574
20
-61.506250000001103
42
0.41421356237309503
10
2.9999999999999716
20
-63.006250000001103
10
3.0000000000000346
20
-64.000000000001123
42
-0.41421356237309359
10
1.4999999999999858
20
-65.50000000000118
0
LWPOLYLINE
5
330
100
AcDbEntity
8
0
100
AcDbPolyline
90
4
70
1
43
0.0
10
-110.80625000000005
20
-61.506250000001224
10
-51.65312500000006
20
-61.506250000001174
42
0.99999999999999989
10
-51.65312500000006
20
-59.506250000001174
10
-110.80625000000012
20
-59.506250000001216
42
0.99999999999999989
0
LWPOLYLINE
5
331
100
AcDbEntity
8
0
100
AcDbPolyline
90
4
70
1
43
0.0
10
51.653124999999989
20
-61.506250000001103
42
-0.99999999999999989
10
51.653124999999989
20
-59.506250000001103
10
110.80625000000009
20
-59.506250000001089
42
-0.99999999999999989
10
110.80625000000001
20
-61.506250000001117
0
SPLINE
5
332
100
AcDbEntity
8
0
100
AcDbSpline
70
0
71
3
72
10
73
6
74
0
42
0.000000001
43
0.0000000001
44
0.0000000001
40
0.50910926455616634
40
0.50910926455616634
40
0.50910926455616634
40
0.50910926455616634
40
0.55027687321430907
40
0.55027687321430907
40
0.57704523493698157
40
0.57704523493698157
40
0.57704523493698157
40
0.57704523493698157
10
104.29721659413732
20
67.506249999999213
30
0
10
104.29721659413732
20
67.635627312209891
30
0
10
104.27091668514208
20
67.764663918641219
30
0
10
104.19613492473822
20
67.951483287664942
30
0
10
104.15890319044117
20
68.018714074275465
30
0
10
104.11801758358695
20
68.077464264280593
30
0
0
ARC
5
333
100
AcDbEntity
8
0
100
AcDbCircle
10
103.29721659413732
20
67.506249999999213
30
0
40
1.0000000000000089
210
0
220
-0
230
1
100
AcDbArc
50
34.83494357010008
51
90
0
LINE
5
334
100
AcDbEntity
8
0
100
AcDbLine
10
103.29721659413732
20
68.506249999999213
30
0
11
-161.30624999999958
21
68.506250000001231
31
0
0
ARC
5
335
100
AcDbEntity
8
0
100
AcDbCircle
10
-161.30624999999958
20
67.506250000001259
30
0
40
0.99999999999997868
210
0
220
-0
230
1
100
AcDbArc
50
90
51
145.16505642990083
0
SPLINE
5
336
100
AcDbEntity
8
0
100
AcDbSpline
70
0
71
3
72
10
73
6
74
0
42
0.000000001
43
0.0000000001
44
0.0000000001
40
0.1359691853962039
40
0.1359691853962039
40
0.1359691853962039
40
0.1359691853962039
40
0.16273754711888372
40
0.16273754711888372
40
0.20390515577702531
40
0.20390515577702531
40
0.20390515577702531
40
0.20390515577702531
10
-162.12705098944923
20
68.077464264282654
30
0
10
-162.16793659630341
20
68.01871407427754
30
0
10
-162.20516833060054
20
67.951483287667017
30
0
10
-162.27995009100439
20
67.764663918643308
30
0
10
-162.30624999999961
20
67.635627312211966
30
0
10
-162.30624999999961
20
67.506250000001273
30
0
0
LWPOLYLINE
5
337
100
AcDbEntity
8
0
100
AcDbPolyline
90
4
70
1
43
0.0
10
87.306250000000034
20
-63.50625000000111
10
156.30624999999998
20
-63.506250000001145
42
-0.99999999999999989
10
156.30625000000006
20
-65.506250000001117
10
87.306250000000034
20
-65.506250000001046
42
-0.99999999999999989
0
LWPOLYLINE
5
338
100
AcDbEntity
8
0
100
AcDbPolyline
90
4
70
1
43
0.0
10
51.65312500000045
20
59.50624999999954
10
105.29721659413731
20
59.506249999999135
42
0.99999999999999989
10
105.29721659413731
20
61.506249999999142
10
51.653125000000415
20
61.506249999999568
42
0.99999999999999989
0
LWPOLYLINE
5
339
100
AcDbEntity
8
0
100
AcDbPolyline
90
4
70
1
43
0.0
10
-110.80624999999958
20
59.50625000000089
42
-0.99999999999999989
10
-110.80624999999969
20
61.50625000000089
10
-51.653124999999633
20
61.506250000000321
42
-0.99999999999999989
10
-51.653124999999633
20
59.506250000000392
0
ARC
5
340
100
AcDbEntity
8
0
100
AcDbCircle
10
161.30625000000006
20
-62.506250000001131
30
0
40
1.0000000000000142
210
0
220
-0
230
1
100
AcDbArc
50
0
51
90
0
LINE
5
341
100
AcDbEntity
8
0
100
AcDbLine
10
132.80625000000003
20
-61.506250000001117
30
0
11
161.30625000000006
21
-61.506250000001131
31
0
0
ARC
5
342
100
AcDbEntity
8
0
100
AcDbCircle
10
132.80625000000003
20
-60.506250000001103
30
0
40
0.99999999999999645
210
0
220
-0
230
1
100
AcDbArc
50
90
51
270
0
LINE
5
343
100
AcDbEntity
8
0
100
AcDbLine
10
170.39203643762693
20
-59.506250000001089
30
0
11
132.80625000000003
21
-59.506250000001103
31
0
0
ARC
5
344
100
AcDbEntity
8
0
100
AcDbCircle
10
170.39203643762693
20
-58.506250000001074
30
0
40
1.0000000000000142
210
-0
220
0
230
1
100
AcDbArc
50
270
51
315.00000000000028
0
LINE
5
345
100
AcDbEntity
8
0
100
AcDbLine
10
171.09914321881348
20
-59.21335678118762
30
0
11
173.51335678118656
21
-56.799143218814606
31
0
0
ARC
5
346
100
AcDbEntity
8
0
100
AcDbCircle
10
172.80625000000001
20
-56.092036437628074
30
0
40
0.99999999999998546
210
-0
220
0
230
1
100
AcDbArc
50
-44.999999999999133
51
0
0
LINE
5
347
100
AcDbEntity
8
0
100
AcDbLine
10
173.80625000000003
20
56.092036437625552
30
0
11
173.80625000000003
21
-56.092036437628074
31
0
0
ARC
5
348
100
AcDbEntity
8
0
100
AcDbCircle
10
172.80625000000001
20
56.092036437625552
30
0
40
1.0000000000000142
210
0
220
-0
230
1
100
AcDbArc
50
0
51
44.999999999997115
0
LINE
5
349
100
AcDbEntity
8
0
100
AcDbLine
10
173.51335678118659
20
56.799143218812063
30
0
11
171.09914321881354
21
59.213356781185162
31
0
0
ARC
5
350
100
AcDbEntity
8
0
100
AcDbCircle
10
170.39203643762698
20
58.506249999998623
30
0
40
1.0000000000000169
210
0
220
-0
230
1
100
AcDbArc
50
44.999999999999424
51
90
0
LINE
5
351
100
AcDbEntity
8
0
100
AcDbLine
10
170.39203643762698
20
59.50624999999863
30
0
11
132.80625000000049
21
59.506249999998921
31
0
0
ARC
5
352
100
AcDbEntity
8
0
100
AcDbCircle
10
132.80625000000049
20
60.506249999998936
30
0
40
0.99999999999999645
210
0
220
-0
230
1
100
AcDbArc
50
90
51
270
0
LINE
5
353
100
AcDbEntity
8
0
100
AcDbLine
10
132.80625000000049
20
61.506249999998929
30
0
11
161.30625000000055
21
61.50624999999873
31
0
0
ARC
5
354
100
AcDbEntity
8
0
100
AcDbCircle
10
161.30625000000055
20
62.506249999998751
30
0
40
1.0000000000000231
210
-0
220
0
230
1
100
AcDbArc
50
-90
51
0
0
LINE
5
355
100
AcDbEntity
8
0
100
AcDbLine
10
-173.80624999999998
20
-56.092036437628103
30
0
11
-173.80625000000009
21
-1.8562500000011894
31
0
0
LINE
5
356
100
AcDbEntity
8
0
100
AcDbLine
10
-173.80625000000009
20
16.143749999998857
30
0
11
-173.80625000000009
21
56.092036437628323
31
0
0
LINE
5
357
100
AcDbEntity
8
0
100
AcDbLine
10
-162.30624999999958
20
67.506250000001273
30
0
11
-162.30624999999961
21
65.935035735719865
31
0
0
LINE
5
358
100
AcDbEntity
8
0
100
AcDbLine
10
-162.30624999999961
20
62.506250000001415
30
0
11
-162.30624999999961
21
65.935035735719865
31
0
0
LINE
5
359
100
AcDbEntity
8
0
100
AcDbLine
10
162.30625000000006
20
-62.506250000001131
30
0
11
162.30625000000003
21
-65.93503573571968
31
0
0
LINE
5
360
100
AcDbEntity
8
0
100
AcDbLine
10
-162.30625000000018
20
-65.935035735719822
30
0
11
-162.30625000000009
21
-62.506250000001309
31
0
0
LINE
5
361
100
AcDbEntity
8
0
100
AcDbLine
10
87.306250000000489
20
65.50624999999927
30
0
11
103.29721659413735
21
65.50624999999917
31
0
0
LINE
5
362
100
AcDbEntity
8
0
100
AcDbLine
10
108.29721659413732
20
63.506249999999099
30
0
11
87.306250000000574
21
63.506249999999298
31
0
0
LINE
5
363
100
AcDbEntity
8
0
100
AcDbLine
10
151.30625000000052
20
63.506249999998786
30
0
11
120.29186140586273
21
63.506249999998957
31
0
0
LINE
5
364
100
AcDbEntity
8
0
100
AcDbLine
10
130.29186140586273
20
65.506249999998943
30
0
11
151.30625000000052
21
65.506249999998772
31
0
0
LINE
5
365
100
AcDbEntity
8
0
100
AcDbLine
10
162.30625000000057
20
62.506249999998751
30
0
11
162.30625000000003
21
65.93503573571725
31
0
0
LINE
5
366
100
AcDbEntity
8
0
100
AcDbLine
10
92.019493774189343
20
-4.9062500000062768
30
0
11
82.163170695323657
21
-4.9062500000052616
31
0
0
ARC
5
367
100
AcDbEntity
8
0
100
AcDbCircle
10
75.215870563821099
20
-19.868250025144011
30
0
40
1.0000000000000142
210
0
220
0
230
1
100
AcDbArc
50
180
51
270
0
LINE
5
368
100
AcDbEntity
8
0
100
AcDbLine
10
-162.30625000000009
20
-67.506250000001103
30
0
11
-162.30625000000018
21
-65.935035735719822
31
0
0
LINE
5
369
100
AcDbEntity
8
0
100
AcDbLine
10
162.30625000000003
20
-65.93503573571968
30
0
11
162.30625000000006
21
-67.506250000001131
31
0
0
LINE
5
370
100
AcDbEntity
8
0
100
AcDbLine
10
104.29721659413737
20
66.50624999999917
30
0
11
104.29721659413732
21
67.506249999999213
31
0
0
LINE
5
371
100
AcDbEntity
8
0
100
AcDbLine
10
129.29186140586273
20
67.506249999998929
30
0
11
129.29186140586273
21
66.506249999998914
31
0
0
LINE
5
372
100
AcDbEntity
8
0
100
AcDbLine
10
162.30625000000055
20
67.506249999998687
30
0
11
162.30625000000003
21
65.93503573571725
31
0
0
ENDSEC
0
SECTION
2
OBJECTS
0
DICTIONARY
5
C
100
AcDbDictionary
3
ACAD_GROUP
350
D
3
ACAD_MLINESTYLE
350
17
0
DICTIONARY
5
D
100
AcDbDictionary
0
DICTIONARY
5
1A
330
C
100
AcDbDictionary
0
DICTIONARY
5
17
100
AcDbDictionary
0
ENDSEC
0
EOF
