<?xml version="1.0" encoding="UTF-8" standalone="no"?>
<svg
   xmlns:dc="http://purl.org/dc/elements/1.1/"
   xmlns:cc="http://creativecommons.org/ns#"
   xmlns:rdf="http://www.w3.org/1999/02/22-rdf-syntax-ns#"
   xmlns:svg="http://www.w3.org/2000/svg"
   xmlns="http://www.w3.org/2000/svg"
   xmlns:sodipodi="http://sodipodi.sourceforge.net/DTD/sodipodi-0.dtd"
   xmlns:inkscape="http://www.inkscape.org/namespaces/inkscape"
   viewBox="0 0 33371.8 13154.201"
   width="33371.801"
   height="13154.2"
   version="1.1"
   id="svg410"
   sodipodi:docname="F1-88_SAM_GONDO_FR4_PLATE.svg"
   inkscape:version="1.0.1 (3bc2e813f5, 2020-09-07, custom)">
  <metadata
     id="metadata414">
    <rdf:RDF>
      <cc:Work
         rdf:about="">
        <dc:format>image/svg+xml</dc:format>
        <dc:type
           rdf:resource="http://purl.org/dc/dcmitype/StillImage" />
        <dc:title></dc:title>
      </cc:Work>
    </rdf:RDF>
  </metadata>
  <sodipodi:namedview
     pagecolor="#ffffff"
     bordercolor="#666666"
     borderopacity="1"
     objecttolerance="10"
     gridtolerance="10"
     guidetolerance="10"
     inkscape:pageopacity="0"
     inkscape:pageshadow="2"
     inkscape:window-width="1024"
     inkscape:window-height="1223"
     id="namedview412"
     showgrid="false"
     inkscape:zoom="0.028284271"
     inkscape:cx="12824.021"
     inkscape:cy="15258.268"
     inkscape:window-x="3840"
     inkscape:window-y="20"
     inkscape:window-maximized="1"
     inkscape:current-layer="g406" />
  <defs
     id="defs14">
    <marker
       id="DistanceX"
       orient="auto"
       refX="0"
       refY="0"
       style="overflow:visible">
      <path
         d="M 3,-3 -3,3 M 0,-5 V 5"
         style="stroke:#000000;stroke-width:0.5"
         id="path2" />
    </marker>
    <pattern
       id="Hatch"
       patternUnits="userSpaceOnUse"
       width="8"
       height="8"
       x="0"
       y="0">
      <path
         d="M8 4 l-4,4"
         stroke="#000000"
         stroke-width="0.25"
         linecap="square"
         id="path5" />
      <path
         d="M6 2 l-4,4"
         stroke="#000000"
         stroke-width="0.25"
         linecap="square"
         id="path7" />
      <path
         d="M4 0 l-4,4"
         stroke="#000000"
         stroke-width="0.25"
         linecap="square"
         id="path9" />
    </pattern>
    <symbol
       id="*MODEL_SPACE" />
    <symbol
       id="*PAPER_SPACE" />
  </defs>
  <g
     inkscape:groupmode="layer"
     inkscape:label="0"
     id="g406"
     transform="translate(16685.9,5454.5803)">
    <path
       d="M 11740.799,-5341.2775 H 10204.8 a 192,192 0 0 1 -135.93,-56.4014 192,192 0 0 0 -135.9305,-56.4014 H -15485.399 a 95.999999,96 0 0 0 -96.001,96 v 480 a 95.999999,96 0 0 0 96.001,96 h 2735.999 a 95.999999,96 0 0 1 0,192 h -3608.235 a 95.999999,96 0 0 0 -67.883,28.1177 l -231.763,231.7645 a 95.999999,96 0 0 0 -28.119,67.8823 v 3835.03555 a 192,192 0 0 0 192,191.99999 h 25.2 a 95.999999,96 0 0 1 96,95.99999 V 1012.7197 a 95.999999,96 0 0 1 -96,95.9999 h -25.2 a 192,192 0 0 0 -192,192.0002 v 5206.6354 a 95.999999,96 0 0 0 28.119,67.8822 l 231.763,231.7645 a 95.999999,96 0 0 0 67.883,28.1179 h 3608.235 a 95.999999,96 0 0 1 0,191.9999 h -2735.999 a 95.999999,96 0 0 0 -96.001,96 v 480 a 95.999999,96 0 0 0 96.001,96 h 30970.798 a 95.999999,96 0 0 0 96.001,-96 v -480 a 95.999999,96 0 0 0 -96.001,-96 H 12749.4 a 95.999999,96 0 0 1 0,-191.9999 h 3608.235 a 95.999999,96 0 0 0 67.883,-28.1179 l 231.763,-231.7645 a 95.999999,96 0 0 0 28.119,-67.8822 v -10769.671 a 95.999999,96 0 0 0 -28.119,-67.8823 l -231.763,-231.7645 a 95.999999,96 0 0 0 -67.883,-28.1177 H 12749.4 a 95.999999,96 0 0 1 0,-192 h 2735.999 a 95.999999,96 0 0 0 96.001,-96 v -480 a 95.999999,96 0 0 0 -96.001,-96 H 12012.66 a 192,192 0 0 0 -135.93,56.4014 192,192 0 0 1 -135.931,56.4014 z"
       style="fill:none;stroke:#000000;stroke-width:3.77952756;stroke-miterlimit:4;stroke-dasharray:none"
       id="path16" />
    <path
       d="m 10086.976,-131.13061 h 90.212"
       style="fill:none;stroke:#000000;stroke-width:3.77952756;stroke-miterlimit:4;stroke-dasharray:none"
       id="path18" />
    <path
       d="m 10273.188,-35.130482 a 95.999999,96 0 0 0 -96,-96.000128"
       style="fill:none;stroke:#000000;stroke-width:3.77952756;stroke-miterlimit:4;stroke-dasharray:none"
       id="path20" />
    <path
       d="m 10177.188,3125.8717 a 95.999999,96 0 0 0 96,-96"
       style="fill:none;stroke:#000000;stroke-width:3.77952756;stroke-miterlimit:4;stroke-dasharray:none"
       id="path22" />
    <path
       d="M 10273.188,-35.130482 V 3029.8717"
       style="fill:none;stroke:#000000;stroke-width:3.77952756;stroke-miterlimit:4;stroke-dasharray:none"
       id="path24" />
    <path
       d="m 9608.8194,3125.8717 h 568.3686"
       style="fill:none;stroke:#000000;stroke-width:3.77952756;stroke-miterlimit:4;stroke-dasharray:none"
       id="path26" />
    <path
       d="m 9512.8194,2966.3197 a 28.8,28.800001 0 0 0 -28.8,-28.8"
       style="fill:none;stroke:#000000;stroke-width:3.77952756;stroke-miterlimit:4;stroke-dasharray:none"
       id="path28" />
    <path
       d="m 9512.8194,2966.3197 v 63.552"
       style="fill:none;stroke:#000000;stroke-width:3.77952756;stroke-miterlimit:4;stroke-dasharray:none"
       id="path30" />
    <path
       d="m 9512.8194,3029.8717 a 95.999999,96 0 0 0 96,96"
       style="fill:none;stroke:#000000;stroke-width:3.77952756;stroke-miterlimit:4;stroke-dasharray:none"
       id="path32" />
    <path
       d="m 7888.3843,2937.5197 a 28.8,28.800001 0 0 0 -28.7999,28.8"
       style="fill:none;stroke:#000000;stroke-width:3.77952756;stroke-miterlimit:4;stroke-dasharray:none"
       id="path34" />
    <path
       d="M 7888.3843,2937.5197 H 9484.0194"
       style="fill:none;stroke:#000000;stroke-width:3.77952756;stroke-miterlimit:4;stroke-dasharray:none"
       id="path36" />
    <path
       d="m 7859.5844,3029.8717 v -63.552"
       style="fill:none;stroke:#000000;stroke-width:3.77952756;stroke-miterlimit:4;stroke-dasharray:none"
       id="path38" />
    <path
       d="m 7763.5844,3125.8717 a 95.999999,96 0 0 0 96,-96"
       style="fill:none;stroke:#000000;stroke-width:3.77952756;stroke-miterlimit:4;stroke-dasharray:none"
       id="path40" />
    <path
       d="m 7220.7235,3125.8717 h 542.8609"
       style="fill:none;stroke:#000000;stroke-width:3.77952756;stroke-miterlimit:4;stroke-dasharray:none"
       id="path42" />
    <path
       d="m 7124.7235,1501.1677 v 1528.704"
       style="fill:none;stroke:#000000;stroke-width:3.77952756;stroke-miterlimit:4;stroke-dasharray:none"
       id="path44" />
    <path
       d="M 7762.8643,1405.1677 H 7220.7235"
       style="fill:none;stroke:#000000;stroke-width:3.77952756;stroke-miterlimit:4;stroke-dasharray:none"
       id="path46" />
    <path
       d="m 7220.7235,1405.1677 a 95.999999,96 0 0 0 -96,96"
       style="fill:none;stroke:#000000;stroke-width:3.77952756;stroke-miterlimit:4;stroke-dasharray:none"
       id="path48" />
    <path
       d="m 7858.8643,1564.7197 a 28.8,28.800001 0 0 0 28.8001,28.7999"
       style="fill:none;stroke:#000000;stroke-width:3.77952756;stroke-miterlimit:4;stroke-dasharray:none"
       id="path50" />
    <path
       d="m 7858.8643,1501.1677 a 95.999999,96 0 0 0 -96,-96"
       style="fill:none;stroke:#000000;stroke-width:3.77952756;stroke-miterlimit:4;stroke-dasharray:none"
       id="path52" />
    <path
       d="m 7858.8643,1564.7197 v -63.552"
       style="fill:none;stroke:#000000;stroke-width:3.77952756;stroke-miterlimit:4;stroke-dasharray:none"
       id="path54" />
    <path
       d="m 8833.8713,1593.5196 a 95.999999,96 0 0 0 95.3292,-95.9976"
       style="fill:none;stroke:#000000;stroke-width:3.77952756;stroke-miterlimit:4;stroke-dasharray:none"
       id="path56" />
    <path
       d="m 8929.2005,1497.522 v -292.8"
       style="fill:none;stroke:#000000;stroke-width:3.77952756;stroke-miterlimit:4;stroke-dasharray:none"
       id="path58" />
    <path
       d="M 8700.5999,1012.7197 V -139.28027"
       style="fill:none;stroke:#000000;stroke-width:3.77952756;stroke-miterlimit:4;stroke-dasharray:none"
       id="path60" />
    <path
       d="m 8700.5999,1012.7197 a 95.999999,96 0 0 0 96,95.9999"
       style="fill:none;stroke:#000000;stroke-width:3.77952756;stroke-miterlimit:4;stroke-dasharray:none"
       id="path62" />
    <path
       d="m 8796.5999,1108.7196 h 36.6006"
       style="fill:none;stroke:#000000;stroke-width:3.77952756;stroke-miterlimit:4;stroke-dasharray:none"
       id="path64" />
    <path
       d="m 8929.2005,1204.722 a 95.999999,96 0 0 0 -96,-96"
       style="fill:none;stroke:#000000;stroke-width:3.77952756;stroke-miterlimit:4;stroke-dasharray:none"
       id="path66" />
    <path
       d="m 9948.5999,-235.28026 h -1152"
       style="fill:none;stroke:#000000;stroke-width:3.77952756;stroke-miterlimit:4;stroke-dasharray:none"
       id="path68" />
    <path
       d="m 8796.5999,-235.28026 a 95.999999,96 0 0 0 -96,95.99999"
       style="fill:none;stroke:#000000;stroke-width:3.77952756;stroke-miterlimit:4;stroke-dasharray:none"
       id="path70" />
    <path
       d="m 10040.851,-165.8472 a 95.999999,96 0 0 0 -92.2511,-69.43306"
       style="fill:none;stroke:#000000;stroke-width:3.77952756;stroke-miterlimit:4;stroke-dasharray:none"
       id="path72" />
    <path
       d="m 10040.851,-165.8472 a 47.999999,48.000001 0 0 0 46.125,34.71659"
       style="fill:none;stroke:#000000;stroke-width:3.77952756;stroke-miterlimit:4;stroke-dasharray:none"
       id="path74" />
    <path
       d="m 12346.199,1588.7197 h 489.601 a 143.99999,144 0 0 1 0,288 h -489.601 a 144.31964,144.31964 0 0 1 0,-288 z"
       style="fill:none;stroke:#000000;stroke-width:3.77952756;stroke-miterlimit:4;stroke-dasharray:none"
       id="path76" />
    <path
       d="m 11290.2,2068.7197 h 1545.6 a 143.99999,144 0 0 1 0,288 h -1545.6 a 144.31964,144.31964 0 0 1 0,-288 z"
       style="fill:none;stroke:#000000;stroke-width:3.77952756;stroke-miterlimit:4;stroke-dasharray:none"
       id="path78" />
    <path
       d="m 9253.7999,-3006.0803 a 95.999999,96 0 0 1 -96,-96 v -1152 a 95.999999,96 0 0 1 96,-96 H 10405.8 a 95.999999,96 0 0 1 96,96 v 1152 a 95.999999,96 0 0 1 -96,96 z"
       style="fill:none;stroke:#000000;stroke-width:3.77952756;stroke-miterlimit:4;stroke-dasharray:none"
       id="path80" />
    <path
       d="m 10888.2,1012.7197 a 144.0003,144.00032 0 0 1 -288,0 V -139.28027 a 144.0003,144.00032 0 0 1 288,0 z"
       style="fill:none;stroke:#000000;stroke-width:3.77952756;stroke-miterlimit:4;stroke-dasharray:none"
       id="path82" />
    <path
       d="m 16530,3806.3197 v 576.0001 a 144.0005,144.00052 0 0 1 -288.001,0 v -576.0001 a 144.0005,144.00052 0 0 1 288.001,0 z"
       style="fill:none;stroke:#000000;stroke-width:3.77952756;stroke-miterlimit:4;stroke-dasharray:none"
       id="path84" />
    <path
       d="m -7329,-3102.0803 a 95.999999,96 0 0 1 -96,96 h -1151.9999 a 95.999999,96 0 0 1 -96,-96 v -1152 a 95.999999,96 0 0 1 96,-96 H -7425 a 95.999999,96 0 0 1 96,96 z"
       style="fill:none;stroke:#000000;stroke-width:3.77952756;stroke-miterlimit:4;stroke-dasharray:none"
       id="path86" />
    <path
       d="m 11116.758,-816.08026 a 144.0005,144.00052 0 0 1 -288.001,0 V -1968.0803 a 144.0005,144.00052 0 0 1 288.001,0 z"
       style="fill:none;stroke:#000000;stroke-width:3.77952756;stroke-miterlimit:4;stroke-dasharray:none"
       id="path88" />
    <path
       d="m 1481.4,2937.5197 a 95.999999,96 0 0 1 -96,-96 V 1689.5196 a 95.999999,96 0 0 1 96,-96 h 1152 a 95.999999,96 0 0 1 96,96 v 1152.0001 a 95.999999,96 0 0 1 -96,96 z"
       style="fill:none;stroke:#000000;stroke-width:3.77952756;stroke-miterlimit:4;stroke-dasharray:none"
       id="path90" />
    <path
       d="m 15090,4382.3198 v -576.0001 a 144,144.00001 0 0 1 288,0 v 576.0001 a 144,144.00001 0 0 1 -288,0 z"
       style="fill:none;stroke:#000000;stroke-width:3.77952756;stroke-miterlimit:4;stroke-dasharray:none"
       id="path92" />
    <path
       d="m -6291,1108.7196 a 95.999999,96 0 0 1 -96,-95.9999 V -139.28027 a 95.999999,96 0 0 1 96,-95.99999 h 1152.0001 a 95.999999,96 0 0 1 96,95.99999 V 1012.7197 a 95.999999,96 0 0 1 -96,95.9999 z"
       style="fill:none;stroke:#000000;stroke-width:3.77952756;stroke-miterlimit:4;stroke-dasharray:none"
       id="path94" />
    <path
       d="m -16312.678,5347.1197 v 1152 a 95.999999,96 0 0 0 96,95.9999 h 1572.478 a 95.999999,96 0 0 0 96,-95.9999 v -1152 a 95.999999,96 0 0 0 -96,-96 h -1572.478 a 95.999999,96 0 0 0 -96,96 z"
       style="fill:none;stroke:#000000;stroke-width:3.77952756;stroke-miterlimit:4;stroke-dasharray:none"
       id="path96" />
    <path
       d="M -14319.478,2841.5197 V 1689.5196 a 95.999999,96 0 0 0 -96,-96 h -1801.2 a 95.999999,96 0 0 0 -96,96 v 1152.0001 a 95.999999,96 0 0 0 96,96 h 1801.2 a 95.999999,96 0 0 0 96,-96 z"
       style="fill:none;stroke:#000000;stroke-width:3.77952756;stroke-miterlimit:4;stroke-dasharray:none"
       id="path98" />
    <path
       d="m -5015.4,3518.3197 v 1152 a 95.999999,96 0 0 0 96,96 h 1152.0001 a 95.999999,96 0 0 0 96,-96 v -1152 a 95.999999,96 0 0 0 -96,-96 H -4919.4 a 95.999999,96 0 0 0 -96,96 z"
       style="fill:none;stroke:#000000;stroke-width:3.77952756;stroke-miterlimit:4;stroke-dasharray:none"
       id="path100" />
    <path
       d="m -7329,-2391.0803 h -3172.8 a 143.99999,144 0 0 1 0,-287.9999 H -7329 a 143.99999,144 0 0 1 0,287.9999 z"
       style="fill:none;stroke:#000000;stroke-width:3.77952756;stroke-miterlimit:4;stroke-dasharray:none"
       id="path102" />
    <path
       d="m 443.4,-2391.0803 h -3172.8 a 143.99999,144 0 0 1 0,-287.9999 H 443.4 a 143.99999,144 0 0 1 0,287.9999 z"
       style="fill:none;stroke:#000000;stroke-width:3.77952756;stroke-miterlimit:4;stroke-dasharray:none"
       id="path104" />
    <path
       d="m 16325.4,1456.4836 a 115.2,115.2 0 0 1 115.199,115.2 v 9.5999 a 115.2,115.2 0 0 1 -115.199,115.2 h -1017.601 a 115.2,115.2 0 0 1 -115.199,-115.2 v -9.5999 a 115.2,115.2 0 0 1 115.199,-115.2 z"
       style="fill:none;stroke:#000000;stroke-width:3.77952756;stroke-miterlimit:4;stroke-dasharray:none"
       id="path106" />
    <path
       d="m 16445.399,6499.1197 a 95.999999,96 0 0 1 -95.999,95.9999 h -1152 a 95.999999,96 0 0 1 -96,-95.9999 v -1152 a 95.999999,96 0 0 1 96,-96 h 1152 a 95.999999,96 0 0 1 95.999,96 z"
       style="fill:none;stroke:#000000;stroke-width:3.77952756;stroke-miterlimit:4;stroke-dasharray:none"
       id="path108" />
    <path
       d="m 1024.2,-235.28026 h 1152 a 95.999999,96 0 0 1 96,95.99999 V 1012.7197 a 95.999999,96 0 0 1 -96,95.9999 h -1152 a 95.999999,96 0 0 1 -96.00001,-95.9999 V -139.28027 A 95.999999,96 0 0 1 1024.2,-235.28026 Z"
       style="fill:none;stroke:#000000;stroke-width:3.77952756;stroke-miterlimit:4;stroke-dasharray:none"
       id="path110" />
    <path
       d="m 3310.2,-4350.0803 h 1151.9999 a 95.999999,96 0 0 1 96,96 v 1152 a 95.999999,96 0 0 1 -96,96 H 3310.2 a 95.999999,96 0 0 1 -96,-96 v -1152 a 95.999999,96 0 0 1 96,-96 z"
       style="fill:none;stroke:#000000;stroke-width:3.77952756;stroke-miterlimit:4;stroke-dasharray:none"
       id="path112" />
    <path
       d="m -8576.9999,4766.3197 a 95.999999,96 0 0 1 -96,-96 v -1152 a 95.999999,96 0 0 1 96,-96 H -7425 a 95.999999,96 0 0 1 96,96 v 1152 a 95.999999,96 0 0 1 -96,96 z"
       style="fill:none;stroke:#000000;stroke-width:3.77952756;stroke-miterlimit:4;stroke-dasharray:none"
       id="path114" />
    <path
       d="m -12815.4,-3102.0803 a 95.999999,96 0 0 1 -96,96 h -1152 a 95.999999,96 0 0 1 -96,-96 v -1152 a 95.999999,96 0 0 1 96,-96 h 1152 a 95.999999,96 0 0 1 96,96 z"
       style="fill:none;stroke:#000000;stroke-width:3.77952756;stroke-miterlimit:4;stroke-dasharray:none"
       id="path116" />
    <path
       d="m -9711,-720.08027 h -1152 a 95.999999,96 0 0 1 -96,-95.99999 V -1968.0803 a 95.999999,96 0 0 1 96,-96 h 1152 a 95.999999,96 0 0 1 96,96 v 1152.00004 a 95.999999,96 0 0 1 -96,95.99999 z"
       style="fill:none;stroke:#000000;stroke-width:3.77952756;stroke-miterlimit:4;stroke-dasharray:none"
       id="path118" />
    <path
       d="m -2176.2,2937.5197 h 1152 a 95.999999,96 0 0 0 96.00001,-96 V 1689.5196 a 95.999999,96 0 0 0 -96.00001,-96 h -1152 a 95.999999,96 0 0 0 -96,96 v 1152.0001 a 95.999999,96 0 0 0 96,96 z"
       style="fill:none;stroke:#000000;stroke-width:3.77952756;stroke-miterlimit:4;stroke-dasharray:none"
       id="path120" />
    <path
       d="m -10501.8,3518.3197 a 95.999999,96 0 0 1 96,-96 h 1152.0001 a 95.999999,96 0 0 1 96,96 v 1152 a 95.999999,96 0 0 1 -96,96 H -10405.8 a 95.999999,96 0 0 1 -96,-96 z"
       style="fill:none;stroke:#000000;stroke-width:3.77952756;stroke-miterlimit:4;stroke-dasharray:none"
       id="path122" />
    <path
       d="M -900.59999,1012.7197 V -139.28027 a 95.999999,96 0 0 1 96,-95.99999 H 347.4 a 95.999999,96 0 0 1 96,95.99999 V 1012.7197 a 95.999999,96 0 0 1 -96,95.9999 H -804.59999 a 95.999999,96 0 0 1 -96,-95.9999 z"
       style="fill:none;stroke:#000000;stroke-width:3.77952756;stroke-miterlimit:4;stroke-dasharray:none"
       id="path124" />
    <path
       d="m -9491.3999,2937.5197 h 1152 a 95.999999,96 0 0 0 96,-96 V 1689.5196 a 95.999999,96 0 0 0 -96,-96 h -1152 a 95.999999,96 0 0 0 -96,96 v 1152.0001 a 95.999999,96 0 0 0 96,96 z"
       style="fill:none;stroke:#000000;stroke-width:3.77952756;stroke-miterlimit:4;stroke-dasharray:none"
       id="path126" />
    <path
       d="M 8215.8,-2391.0803 H 5042.9999 a 143.99999,144 0 0 1 0,-287.9999 H 8215.8 a 143.99999,144 0 0 1 0,287.9999 z"
       style="fill:none;stroke:#000000;stroke-width:3.77952756;stroke-miterlimit:4;stroke-dasharray:none"
       id="path128" />
    <path
       d="m 16349.4,-235.28026 a 95.999999,96 0 0 1 95.999,95.99999 V 1012.7197 a 95.999999,96 0 0 1 -95.999,95.9999 h -1152 a 95.999999,96 0 0 1 -96,-95.9999 V -139.28027 a 95.999999,96 0 0 1 96,-95.99999 z"
       style="fill:none;stroke:#000000;stroke-width:3.77952756;stroke-miterlimit:4;stroke-dasharray:none"
       id="path130" />
    <path
       d="m -13930.678,6595.1196 a 95.999999,96 0 0 1 -96,-95.9999 v -1152 a 95.999999,96 0 0 1 96,-96 h 1572.478 a 95.999999,96 0 0 1 96,96 v 1152 a 95.999999,96 0 0 1 -96,95.9999 z"
       style="fill:none;stroke:#000000;stroke-width:3.77952756;stroke-miterlimit:4;stroke-dasharray:none"
       id="path132" />
    <path
       d="m 3614.7,6931.1198 v -96 a 95.999999,96 0 0 1 96,-96 h 383.9999 a 95.999999,96 0 0 1 96,96 v 96 a 95.999999,96 0 0 1 -96,95.9999 H 3710.7 a 95.999999,96 0 0 1 -96,-95.9999 z"
       style="fill:none;stroke:#000000;stroke-width:3.77952756;stroke-miterlimit:4;stroke-dasharray:none"
       id="path134" />
    <path
       d="m -12604.42,4670.3197 a 96,96.000001 0 0 1 -192,0 v -1152 a 96,96.000001 0 0 1 192,0 z"
       style="fill:none;stroke:#000000;stroke-width:3.77952756;stroke-miterlimit:4;stroke-dasharray:none"
       id="path136" />
    <path
       d="m -15988.2,-139.28027 a 95.999999,96 0 0 1 96,-95.99999 h 1152 a 95.999999,96 0 0 1 96,95.99999 V 1012.7197 a 95.999999,96 0 0 1 -96,95.9999 h -1152 a 95.999999,96 0 0 1 -96,-95.9999 z"
       style="fill:none;stroke:#000000;stroke-width:3.77952756;stroke-miterlimit:4;stroke-dasharray:none"
       id="path138" />
    <path
       d="M -5833.7999,2937.5197 H -4681.8 a 95.999999,96 0 0 0 96,-96 V 1689.5196 a 95.999999,96 0 0 0 -96,-96 h -1151.9999 a 95.999999,96 0 0 0 -96,96 v 1152.0001 a 95.999999,96 0 0 0 96,96 z"
       style="fill:none;stroke:#000000;stroke-width:3.77952756;stroke-miterlimit:4;stroke-dasharray:none"
       id="path140" />
    <path
       d="m 2299.8,3518.3197 v 1152 a 95.999999,96 0 0 0 96,96 h 1151.9999 a 95.999999,96 0 0 0 96,-96 v -1152 a 95.999999,96 0 0 0 -96,-96 H 2395.8 a 95.999999,96 0 0 0 -96,96 z"
       style="fill:none;stroke:#000000;stroke-width:3.77952756;stroke-miterlimit:4;stroke-dasharray:none"
       id="path142" />
    <path
       d="m -4462.1999,1108.7196 a 95.999999,96 0 0 1 -96,-95.9999 V -139.28027 a 95.999999,96 0 0 1 96,-95.99999 H -3310.2 a 95.999999,96 0 0 1 96,95.99999 V 1012.7197 a 95.999999,96 0 0 1 -96,95.9999 z"
       style="fill:none;stroke:#000000;stroke-width:3.77952756;stroke-miterlimit:4;stroke-dasharray:none"
       id="path144" />
    <path
       d="m -4005,2937.5197 h 1152.0001 a 95.999999,96 0 0 0 96,-96 V 1689.5196 a 95.999999,96 0 0 0 -96,-96 H -4005 a 95.999999,96 0 0 0 -96,96 v 1152.0001 a 95.999999,96 0 0 0 96,96 z"
       style="fill:none;stroke:#000000;stroke-width:3.77952756;stroke-miterlimit:4;stroke-dasharray:none"
       id="path146" />
    <path
       d="m -15101.4,-2391.0803 h -1343.999 a 143.99999,144 0 0 1 0,-287.9999 h 1343.999 a 143.99999,144 0 0 1 0,287.9999 z"
       style="fill:none;stroke:#000000;stroke-width:3.77952756;stroke-miterlimit:4;stroke-dasharray:none"
       id="path148" />
    <path
       d="M -15101.4,-816.08026 V -1968.0803 a 95.999999,96 0 0 0 -96,-96 h -1152 a 95.999999,96 0 0 0 -95.999,96 v 1152.00004 a 95.999999,96 0 0 0 95.999,95.99999 h 1152 a 95.999999,96 0 0 0 96,-95.99999 z"
       style="fill:none;stroke:#000000;stroke-width:3.77952756;stroke-miterlimit:4;stroke-dasharray:none"
       id="path150" />
    <path
       d="M -5138.9999,-3006.0803 H -6291 a 95.999999,96 0 0 1 -96,-96 v -1152 a 95.999999,96 0 0 1 96,-96 h 1152.0001 a 95.999999,96 0 0 1 96,96 v 1152 a 95.999999,96 0 0 1 -96,96 z"
       style="fill:none;stroke:#000000;stroke-width:3.77952756;stroke-miterlimit:4;stroke-dasharray:none"
       id="path152" />
    <path
       d="m -2729.4,-3102.0803 v -1152 a 95.999999,96 0 0 1 96,-96 h 1152 a 95.999999,96 0 0 1 96,96 v 1152 a 95.999999,96 0 0 1 -96,96 h -1152 a 95.999999,96 0 0 1 -96,-96 z"
       style="fill:none;stroke:#000000;stroke-width:3.77952756;stroke-miterlimit:4;stroke-dasharray:none"
       id="path154" />
    <path
       d="m 4094.6999,-4782.0803 a 95.999999,96 0 0 1 96,96 v 96 a 95.999999,96 0 0 1 -96,96 H 3710.7 a 95.999999,96 0 0 1 -96,-96 v -96 a 95.999999,96 0 0 1 96,-96 z"
       style="fill:none;stroke:#000000;stroke-width:3.77952756;stroke-miterlimit:4;stroke-dasharray:none"
       id="path156" />
    <path
       d="m -11320.2,2937.5197 h 1152 a 95.999999,96 0 0 0 96.001,-96 V 1689.5196 a 95.999999,96 0 0 0 -96.001,-96 h -1152 a 95.999999,96 0 0 0 -96,96 v 1152.0001 a 95.999999,96 0 0 0 96,96 z"
       style="fill:none;stroke:#000000;stroke-width:3.77952756;stroke-miterlimit:4;stroke-dasharray:none"
       id="path158" />
    <path
       d="M -11873.4,-139.28027 V 1012.7197 a 95.999999,96 0 0 0 96,95.9999 h 1152.001 a 95.999999,96 0 0 0 95.999,-95.9999 V -139.28027 a 95.999999,96 0 0 0 -95.999,-95.99999 H -11777.4 a 95.999999,96 0 0 0 -96,95.99999 z"
       style="fill:none;stroke:#000000;stroke-width:3.77952756;stroke-miterlimit:4;stroke-dasharray:none"
       id="path160" />
    <path
       d="m -1719,-720.08027 a 95.999999,96 0 0 1 -96,-95.99999 V -1968.0803 a 95.999999,96 0 0 1 96,-96 h 1152 a 95.999999,96 0 0 1 96.00001,96 V -816.08026 A 95.999999,96 0 0 1 -567,-720.08027 Z"
       style="fill:none;stroke:#000000;stroke-width:3.77952756;stroke-miterlimit:4;stroke-dasharray:none"
       id="path162" />
    <path
       d="m -7230.5999,-3198.0803 v -960 a 143.99999,144 0 0 1 287.9999,0 v 960 a 143.99999,144 0 0 1 -287.9999,0 z"
       style="fill:none;stroke:#000000;stroke-width:3.77952756;stroke-miterlimit:4;stroke-dasharray:none"
       id="path164" />
    <path
       d="m 5376.6,3422.3197 a 95.999999,96 0 0 1 95.9999,96 v 1152 a 95.999999,96 0 0 1 -95.9999,96 h -1152 a 95.999999,96 0 0 1 -96,-96 v -1152 a 95.999999,96 0 0 1 96,-96 z"
       style="fill:none;stroke:#000000;stroke-width:3.77952756;stroke-miterlimit:4;stroke-dasharray:none"
       id="path166" />
    <path
       d="m -13974.239,1689.5196 a 144,144.00001 0 0 1 288,0 v 1152.0001 a 144,144.00001 0 0 1 -288,0 z"
       style="fill:none;stroke:#000000;stroke-width:3.77952756;stroke-miterlimit:4;stroke-dasharray:none"
       id="path168" />
    <path
       d="m 4032.6,5347.1197 v 1152 a 95.999999,96 0 0 0 96,95.9999 h 1801.1999 a 95.999999,96 0 0 0 96,-95.9999 v -1152 a 95.999999,96 0 0 0 -96,-96 H 4128.6 a 95.999999,96 0 0 0 -96,96 z"
       style="fill:none;stroke:#000000;stroke-width:3.77952756;stroke-miterlimit:4;stroke-dasharray:none"
       id="path170" />
    <path
       d="m -5472.5999,-1968.0803 v 1152.00004 a 95.999999,96 0 0 0 95.9999,95.99999 h 1152 a 95.999999,96 0 0 0 96,-95.99999 V -1968.0803 a 95.999999,96 0 0 0 -96,-96 h -1152 a 95.999999,96 0 0 0 -95.9999,96 z"
       style="fill:none;stroke:#000000;stroke-width:3.77952756;stroke-miterlimit:4;stroke-dasharray:none"
       id="path172" />
    <path
       d="m -3710.7,-4782.0803 a 95.999999,96 0 0 1 96,96 v 96 a 95.999999,96 0 0 1 -96,96 h -383.9999 a 95.999999,96 0 0 1 -96,-96 v -96 a 95.999999,96 0 0 1 96,-96 z"
       style="fill:none;stroke:#000000;stroke-width:3.77952756;stroke-miterlimit:4;stroke-dasharray:none"
       id="path174" />
    <path
       d="m -11501.4,7027.1197 h -384 a 95.999999,96 0 0 1 -96,-95.9999 v -96 a 95.999999,96 0 0 1 96,-96 h 384 a 95.999999,96 0 0 1 96,96 v 96 a 95.999999,96 0 0 1 -96,95.9999 z"
       style="fill:none;stroke:#000000;stroke-width:3.77952756;stroke-miterlimit:4;stroke-dasharray:none"
       id="path176" />
    <path
       d="m -15458.336,4795.1197 a 28.8,28.800001 0 0 1 28.8,-28.8 h 1595.636 a 28.8,28.800001 0 0 1 28.8,28.8 v 63.552 a 95.999999,96 0 0 0 96,95.9999 h 542.86 a 95.999999,96 0 0 0 96,-95.9999 V 3329.9676 a 95.999999,96 0 0 0 -96,-96 h -542.86 a 95.999999,96 0 0 0 -96,96 v 63.5521 a 28.8,28.800001 0 0 1 -28.8,28.8 h -1595.636 a 28.8,28.800001 0 0 1 -28.8,-28.8 v -63.5521 a 95.999999,96 0 0 0 -95.999,-96 h -542.861 a 95.999999,96 0 0 0 -96,96 v 1528.7041 a 95.999999,96 0 0 0 96,95.9999 h 542.861 a 95.999999,96 0 0 0 95.999,-95.9999 z"
       style="fill:none;stroke:#000000;stroke-width:3.77952756;stroke-miterlimit:4;stroke-dasharray:none"
       id="path178" />
    <path
       d="M 4101,1012.7197 V -139.28027 a 95.999999,96 0 0 0 -96,-95.99999 H 2852.9999 a 95.999999,96 0 0 0 -96,95.99999 V 1012.7197 a 95.999999,96 0 0 0 96,95.9999 H 4005 a 95.999999,96 0 0 0 96,-95.9999 z"
       style="fill:none;stroke:#000000;stroke-width:3.77952756;stroke-miterlimit:4;stroke-dasharray:none"
       id="path180" />
    <path
       d="m -14317.2,-139.28027 a 144.0003,144.00032 0 0 1 288,0 V 1012.7197 a 144.0003,144.00032 0 0 1 -288,0 z"
       style="fill:none;stroke:#000000;stroke-width:3.77952756;stroke-miterlimit:4;stroke-dasharray:none"
       id="path182" />
    <path
       d="m -2299.8,5251.0736 a 95.999999,96 0 0 1 96,96 v 1152 a 95.999999,96 0 0 1 -96,96 h -2489.3164 a 95.999999,96 0 0 1 -96,-96 v -1152 a 95.999999,96 0 0 1 96,-96 z"
       style="fill:none;stroke:#000000;stroke-width:3.77952756;stroke-miterlimit:4;stroke-dasharray:none"
       id="path184" />
    <path
       d="m -1807.2372,5709.7099 a 144.00001,144.00002 0 0 0 166.8744,234.7274"
       style="fill:none;stroke:#000000;stroke-width:3.77952756;stroke-miterlimit:4;stroke-dasharray:none"
       id="path186" />
    <path
       d="m -1272.5385,5329.5776 -534.6987,380.1323"
       style="fill:none;stroke:#000000;stroke-width:3.77952756;stroke-miterlimit:4;stroke-dasharray:none"
       id="path188" />
    <path
       d="m -1640.3628,5944.4373 534.6986,-380.1323"
       style="fill:none;stroke:#000000;stroke-width:3.77952756;stroke-miterlimit:4;stroke-dasharray:none"
       id="path190" />
    <path
       d="m -1105.6642,5564.305 a 144.00001,144.00002 0 1 0 -166.8743,-234.7274"
       style="fill:none;stroke:#000000;stroke-width:3.77952756;stroke-miterlimit:4;stroke-dasharray:none"
       id="path192" />
    <path
       d="m 13368.6,6595.1196 a 95.999999,96 0 0 1 -96,-95.9999 v -1152 a 95.999999,96 0 0 1 96,-96 h 1152 a 95.999999,96 0 0 1 96,96 v 1152 a 95.999999,96 0 0 1 -96,95.9999 z"
       style="fill:none;stroke:#000000;stroke-width:3.77952756;stroke-miterlimit:4;stroke-dasharray:none"
       id="path194" />
    <path
       d="M 15589.8,-2391.0803 H 12417 a 143.99999,144 0 0 1 0,-287.9999 h 3172.8 a 143.99999,144 0 0 1 0,287.9999 z"
       style="fill:none;stroke:#000000;stroke-width:3.77952756;stroke-miterlimit:4;stroke-dasharray:none"
       id="path196" />
    <path
       d="m 13387.8,2176.4835 a 115.2,115.2 0 0 1 -115.2,-115.2 v -9.6 a 115.2,115.2 0 0 1 115.2,-115.2 h 2937.6 a 115.2,115.2 0 0 1 115.199,115.2 v 9.6 a 115.2,115.2 0 0 1 -115.199,115.2 z"
       style="fill:none;stroke:#000000;stroke-width:3.77952756;stroke-miterlimit:4;stroke-dasharray:none"
       id="path198" />
    <path
       d="M -7662.5999,1593.5196 H -6510.6 a 95.999999,96 0 0 1 96,96 v 1152.0001 a 95.999999,96 0 0 1 -96,96 h -1151.9999 a 95.999999,96 0 0 1 -96,-96 V 1689.5196 a 95.999999,96 0 0 1 96,-96 z"
       style="fill:none;stroke:#000000;stroke-width:3.77952756;stroke-miterlimit:4;stroke-dasharray:none"
       id="path200" />
    <path
       d="M 11443.8,-816.08026 V -1968.0803 a 95.999999,96 0 0 1 96,-96 h 1152 a 95.999999,96 0 0 1 96,96 v 1152.00004 a 95.999999,96 0 0 1 -96,95.99999 h -1152 a 95.999999,96 0 0 1 -96,-95.99999 z"
       style="fill:none;stroke:#000000;stroke-width:3.77952756;stroke-miterlimit:4;stroke-dasharray:none"
       id="path202" />
    <path
       d="m 9150.8994,4954.6716 a 95.999999,96 0 0 1 -96,-95.9999 v -63.552 a 28.8,28.800001 0 0 0 -28.7999,-28.8 H 7430.4643 a 28.8,28.800001 0 0 0 -28.7999,28.8 v 63.552 a 95.999999,96 0 0 1 -96,95.9999 h -542.8609 a 95.999999,96 0 0 1 -96,-95.9999 V 3329.9676 a 95.999999,96 0 0 1 96,-96 h 542.8609 a 95.999999,96 0 0 1 96,96 v 63.5521 a 28.8,28.800001 0 0 0 28.7999,28.8 h 1595.6352 a 28.8,28.800001 0 0 0 28.7999,-28.8 v -63.5521 a 95.999999,96 0 0 1 96,-96 h 542.8608 a 95.999999,96 0 0 1 96,96 v 63.5521 a 28.8,28.800001 0 0 0 28.8,28.8 H 10501.8 a 95.999999,96 0 0 1 96,96 v 1152 a 95.999999,96 0 0 1 -96,96 h -683.2398 a 28.8,28.800001 0 0 0 -28.8,28.8 v 63.552 a 95.999999,96 0 0 1 -96,95.9999 z"
       style="fill:none;stroke:#000000;stroke-width:3.77952756;stroke-miterlimit:4;stroke-dasharray:none"
       id="path204" />
    <path
       d="m -4094.6999,7027.1197 a 95.999999,96 0 0 1 -96,-95.9999 v -96 a 95.999999,96 0 0 1 96,-96 H -3710.7 a 95.999999,96 0 0 1 96,96 v 96 a 95.999999,96 0 0 1 -96,95.9999 z"
       style="fill:none;stroke:#000000;stroke-width:3.77952756;stroke-miterlimit:4;stroke-dasharray:none"
       id="path206" />
    <path
       d="m 1481.4,-3006.0803 a 95.999999,96 0 0 1 -96,-96 v -1152 a 95.999999,96 0 0 1 96,-96 h 1152 a 95.999999,96 0 0 1 96,96 v 1152 a 95.999999,96 0 0 1 -96,96 z"
       style="fill:none;stroke:#000000;stroke-width:3.77952756;stroke-miterlimit:4;stroke-dasharray:none"
       id="path208" />
    <path
       d="M -804.59999,-4350.0803 H 347.4 a 95.999999,96 0 0 1 96,96 v 1152 a 95.999999,96 0 0 1 -96,96 H -804.59999 a 95.999999,96 0 0 1 -96,-96 v -1152 a 95.999999,96 0 0 1 96,-96 z"
       style="fill:none;stroke:#000000;stroke-width:3.77952756;stroke-miterlimit:4;stroke-dasharray:none"
       id="path210" />
    <path
       d="m 8373.5999,1012.7197 a 144,144.00002 0 0 1 -288,0 V -139.28027 a 144,144.00002 0 0 1 288,0 z"
       style="fill:none;stroke:#000000;stroke-width:3.77952756;stroke-miterlimit:4;stroke-dasharray:none"
       id="path212" />
    <path
       d="M 6414.6,-139.28027 V 1012.7197 a 95.999999,96 0 0 0 96,95.9999 h 1151.9999 a 95.999999,96 0 0 0 96,-95.9999 V -139.28027 a 95.999999,96 0 0 0 -96,-95.99999 H 6510.6 a 95.999999,96 0 0 0 -96,95.99999 z"
       style="fill:none;stroke:#000000;stroke-width:3.77952756;stroke-miterlimit:4;stroke-dasharray:none"
       id="path214" />
    <path
       d="m 7326.036,-720.12867 a 95.999999,96 0 0 1 -92.9521,-95.95159 V -1968.0803 a 95.999999,96 0 0 1 92.9521,-95.9516 28.8,28.800001 0 0 0 27.8855,-28.7855 v -63.615 a 95.999999,96 0 0 1 96,-96 h 542.8609 a 95.999999,96 0 0 1 96,96 v 63.5521 a 28.8,28.800001 0 0 0 28.7999,28.8 h 1595.6352 a 28.8,28.800001 0 0 0 28.8,-28.8 v -63.5521 a 95.999999,96 0 0 1 96,-96 h 542.8605 a 95.999999,96 0 0 1 96,96 v 63.615 a 28.8,28.800001 0 0 0 27.886,28.7855 95.999999,96 0 0 1 92.952,95.9516 v 1152.00004 a 95.999999,96 0 0 1 -92.952,95.95159 28.8,28.800001 0 0 0 -27.886,28.7855 v 63.61482 a 95.999999,96 0 0 1 -96,96 h -542.8605 a 95.999999,96 0 0 1 -96,-96 v -63.55195 a 28.8,28.800001 0 0 0 -28.8,-28.79997 H 8117.5823 a 28.8,28.800001 0 0 0 -28.7999,28.79997 v 63.55195 a 95.999999,96 0 0 1 -96,96 h -542.8609 a 95.999999,96 0 0 1 -96,-96 v -63.61482 a 28.8,28.800001 0 0 0 -27.8855,-28.7855 z"
       style="fill:none;stroke:#000000;stroke-width:3.77952756;stroke-miterlimit:4;stroke-dasharray:none"
       id="path216" />
    <path
       d="M -10044.6,-139.28027 V 1012.7197 a 95.999999,96 0 0 0 96.0001,95.9999 h 1152 a 95.999999,96 0 0 0 96,-95.9999 V -139.28027 a 95.999999,96 0 0 0 -96,-95.99999 h -1152 a 95.999999,96 0 0 0 -96.0001,95.99999 z"
       style="fill:none;stroke:#000000;stroke-width:3.77952756;stroke-miterlimit:4;stroke-dasharray:none"
       id="path218" />
    <path
       d="M 109.79999,-720.08027 A 95.999999,96 0 0 1 13.8,-816.08026 V -1968.0803 a 95.999999,96 0 0 1 95.99999,-96 H 1261.8 a 95.999999,96 0 0 1 96,96 v 1152.00004 a 95.999999,96 0 0 1 -96,95.99999 z"
       style="fill:none;stroke:#000000;stroke-width:3.77952756;stroke-miterlimit:4;stroke-dasharray:none"
       id="path220" />
    <path
       d="m -347.4,2937.5197 a 95.999999,96 0 0 1 -96,-96 V 1689.5196 a 95.999999,96 0 0 1 96,-96 H 804.59999 a 95.999999,96 0 0 1 96,96 v 1152.0001 a 95.999999,96 0 0 1 -96,96 z"
       style="fill:none;stroke:#000000;stroke-width:3.77952756;stroke-miterlimit:4;stroke-dasharray:none"
       id="path222" />
    <path
       d="m 6967.7999,-3006.0803 a 95.999999,96 0 0 1 -96,-96 v -1152 a 95.999999,96 0 0 1 96,-96 h 1152 a 95.999999,96 0 0 1 96.0001,96 v 1152 a 95.999999,96 0 0 1 -96.0001,96 z"
       style="fill:none;stroke:#000000;stroke-width:3.77952756;stroke-miterlimit:4;stroke-dasharray:none"
       id="path224" />
    <path
       d="m 16002,3518.3197 v 1152 a 192,192 0 0 1 -384,0 v -1152 a 192,192 0 0 1 384,0 z"
       style="fill:none;stroke:#000000;stroke-width:3.77952756;stroke-miterlimit:4;stroke-dasharray:none"
       id="path226" />
    <path
       d="m -6967.7999,-235.28026 a 95.999999,96 0 0 1 96,95.99999 V 1012.7197 a 95.999999,96 0 0 1 -96,95.9999 h -1152 A 95.999999,96 0 0 1 -8215.8,1012.7197 V -139.28027 a 95.999999,96 0 0 1 96.0001,-95.99999 z"
       style="fill:none;stroke:#000000;stroke-width:3.77952756;stroke-miterlimit:4;stroke-dasharray:none"
       id="path228" />
    <path
       d="m 15101.4,-4254.0803 a 95.999999,96 0 0 1 96,-96 h 1152 a 95.999999,96 0 0 1 95.999,96 v 1152 a 95.999999,96 0 0 1 -95.999,96 h -1152 a 95.999999,96 0 0 1 -96,-96 z"
       style="fill:none;stroke:#000000;stroke-width:3.77952756;stroke-miterlimit:4;stroke-dasharray:none"
       id="path230" />
    <path
       d="m 13368.6,4766.3197 a 95.999999,96 0 0 1 -96,-96 v -1152 a 95.999999,96 0 0 1 96,-96 h 1152 a 95.999999,96 0 0 1 96,96 v 1152 a 95.999999,96 0 0 1 -96,96 z"
       style="fill:none;stroke:#000000;stroke-width:3.77952756;stroke-miterlimit:4;stroke-dasharray:none"
       id="path232" />
    <path
       d="m -10405.8,-3006.0803 a 95.999999,96 0 0 1 -96,-96 v -1152 a 95.999999,96 0 0 1 96,-96 h 1152.0001 a 95.999999,96 0 0 1 96,96 v 1152 a 95.999999,96 0 0 1 -96,96 z"
       style="fill:none;stroke:#000000;stroke-width:3.77952756;stroke-miterlimit:4;stroke-dasharray:none"
       id="path234" />
    <path
       d="M -3214.2,-2391.0803 H -6387 a 143.99999,144 0 0 1 0,-287.9999 h 3172.8 a 143.99999,144 0 0 1 0,287.9999 z"
       style="fill:none;stroke:#000000;stroke-width:3.77952756;stroke-miterlimit:4;stroke-dasharray:none"
       id="path236" />
    <path
       d="m -9034.1999,-720.08027 a 95.999999,96 0 0 1 -96,-95.99999 V -1968.0803 a 95.999999,96 0 0 1 96,-96 h 1152 a 95.999999,96 0 0 1 96,96 v 1152.00004 a 95.999999,96 0 0 1 -96,95.99999 z"
       style="fill:none;stroke:#000000;stroke-width:3.77952756;stroke-miterlimit:4;stroke-dasharray:none"
       id="path238" />
    <path
       d="m 14520.6,-2064.0803 a 95.999999,96 0 0 1 96,96 v 1152.00004 a 95.999999,96 0 0 1 -96,95.99999 h -1152 a 95.999999,96 0 0 1 -96,-95.99999 V -1968.0803 a 95.999999,96 0 0 1 96,-96 z"
       style="fill:none;stroke:#000000;stroke-width:3.77952756;stroke-miterlimit:4;stroke-dasharray:none"
       id="path240" />
    <path
       d="m 16325.4,2416.4835 a 115.2,115.2 0 0 1 115.199,115.2 v 9.5999 A 115.2,115.2 0 0 1 16325.4,2656.4835 H 15307.799 A 115.2,115.2 0 0 1 15192.6,2541.2834 v -9.5999 a 115.2,115.2 0 0 1 115.199,-115.2 z"
       style="fill:none;stroke:#000000;stroke-width:3.77952756;stroke-miterlimit:4;stroke-dasharray:none"
       id="path242" />
    <path
       d="m -12330.6,-3102.0803 v -1152 a 95.999999,96 0 0 1 96,-96 h 1152 a 95.999999,96 0 0 1 96,96 v 1152 a 95.999999,96 0 0 1 -96,96 h -1152 a 95.999999,96 0 0 1 -96,-96 z"
       style="fill:none;stroke:#000000;stroke-width:3.77952756;stroke-miterlimit:4;stroke-dasharray:none"
       id="path244" />
    <path
       d="m 567,4766.3197 a 95.999999,96 0 0 1 -96.00001,-96 v -1152 a 95.999999,96 0 0 1 96.00001,-96 h 1152 a 95.999999,96 0 0 1 96,96 v 1152 a 95.999999,96 0 0 1 -96,96 z"
       style="fill:none;stroke:#000000;stroke-width:3.77952756;stroke-miterlimit:4;stroke-dasharray:none"
       id="path246" />
    <path
       d="m 5138.9999,-3006.0803 a 95.999999,96 0 0 1 -96,-96 v -1152 a 95.999999,96 0 0 1 96,-96 H 6291 a 95.999999,96 0 0 1 96,96 v 1152 a 95.999999,96 0 0 1 -96,96 z"
       style="fill:none;stroke:#000000;stroke-width:3.77952756;stroke-miterlimit:4;stroke-dasharray:none"
       id="path248" />
    <path
       d="M 3186.6,-816.08026 V -1968.0803 a 95.999999,96 0 0 0 -96,-96 h -1152 a 95.999999,96 0 0 0 -96,96 v 1152.00004 a 95.999999,96 0 0 0 96,95.99999 h 1152 a 95.999999,96 0 0 0 96,-95.99999 z"
       style="fill:none;stroke:#000000;stroke-width:3.77952756;stroke-miterlimit:4;stroke-dasharray:none"
       id="path250" />
    <path
       d="m 6021.7017,3518.3197 a 144,144.00002 0 0 1 288,0 v 1152 a 144,144.00002 0 0 1 -288,0 z"
       style="fill:none;stroke:#000000;stroke-width:3.77952756;stroke-miterlimit:4;stroke-dasharray:none"
       id="path252" />
    <path
       d="m 2832.5904,6643.1196 a 47.999999,48.000001 0 0 1 48,-48 h 763.2095 a 95.999999,96 0 0 0 96,-95.9999 v -1152 a 95.999999,96 0 0 0 -96,-96 h -763.2095 a 47.999999,48.000001 0 0 1 -48,-48 v -48 a 95.999999,96 0 0 0 -96,-95.9999 h -446.8608 a 95.999999,96 0 0 0 -96,95.9999 v 48 a 47.999999,48.000001 0 0 1 -48,48 h -74.4077 a 95.999999,96 0 0 0 -96,96 v 1152 a 95.999999,96 0 0 0 96,95.9999 h 74.4077 a 47.999999,48.000001 0 0 1 48,48 v 19.2001 a 95.999999,96 0 0 0 96,96 h 446.8608 a 95.999999,96 0 0 0 96,-96 z"
       style="fill:none;stroke:#000000;stroke-width:3.77952756;stroke-miterlimit:4;stroke-dasharray:none"
       id="path254" />
    <path
       d="m 11887.2,3518.3197 a 192,192 0 0 1 384,0 v 1152 a 192,192 0 0 1 -384,0 z"
       style="fill:none;stroke:#000000;stroke-width:3.77952756;stroke-miterlimit:4;stroke-dasharray:none"
       id="path256" />
    <path
       d="m 12173.399,-4782.0803 a 95.999999,96 0 0 1 96.001,96 v 96 a 95.999999,96 0 0 1 -96.001,96 H 11789.4 a 95.999999,96 0 0 1 -96.001,-96 v -96 a 95.999999,96 0 0 1 96.001,-96 z"
       style="fill:none;stroke:#000000;stroke-width:3.77952756;stroke-miterlimit:4;stroke-dasharray:none"
       id="path258" />
    <path
       d="m 252.35998,5155.1055 a 95.999999,96 0 0 1 96,-96 H 1404.36 a 95.999999,96 0 0 1 96,96 v 1507.2 a 95.999999,96 0 0 1 -96,96 H 348.35998 a 95.999999,96 0 0 1 -96,-96 z"
       style="fill:none;stroke:#000000;stroke-width:3.77952756;stroke-miterlimit:4;stroke-dasharray:none"
       id="path260" />
    <path
       d="m -11981.4,-4686.0803 a 95.999999,96 0 0 1 96,-96 h 384 a 95.999999,96 0 0 1 96,96 v 96 a 95.999999,96 0 0 1 -96,96 h -384 a 95.999999,96 0 0 1 -96,-96 z"
       style="fill:none;stroke:#000000;stroke-width:3.77952756;stroke-miterlimit:4;stroke-dasharray:none"
       id="path262" />
    <path
       d="m -3310.2,-4350.0803 a 95.999999,96 0 0 1 96,96 v 1152 a 95.999999,96 0 0 1 -96,96 h -1151.9999 a 95.999999,96 0 0 1 -96,-96 v -1152 a 95.999999,96 0 0 1 96,-96 z"
       style="fill:none;stroke:#000000;stroke-width:3.77952756;stroke-miterlimit:4;stroke-dasharray:none"
       id="path264" />
    <path
       d="m -7248.24,6662.3197 a 95.999999,96 0 0 1 -96,96 h -287.9999 a 95.999999,96 0 0 1 -96,-96 v -1507.2 a 95.999999,96 0 0 1 96,-95.9999 h 287.9999 a 95.999999,96 0 0 1 96,95.9999 z"
       style="fill:none;stroke:#000000;stroke-width:3.77952756;stroke-miterlimit:4;stroke-dasharray:none"
       id="path266" />
    <path
       d="m -2395.8,-720.08027 h -1151.9999 a 95.999999,96 0 0 1 -96,-95.99999 V -1968.0803 a 95.999999,96 0 0 1 96,-96 H -2395.8 a 95.999999,96 0 0 1 96,96 v 1152.00004 a 95.999999,96 0 0 1 -96,95.99999 z"
       style="fill:none;stroke:#000000;stroke-width:3.77952756;stroke-miterlimit:4;stroke-dasharray:none"
       id="path268" />
    <path
       d="m -9456.2399,5155.1197 a 95.999999,96 0 0 1 96,-95.9999 h 1344 a 95.999999,96 0 0 1 96,95.9999 v 1507.2 a 95.999999,96 0 0 1 -96,96 h -1344 a 95.999999,96 0 0 1 -96,-96 z"
       style="fill:none;stroke:#000000;stroke-width:3.77952756;stroke-miterlimit:4;stroke-dasharray:none"
       id="path270" />
    <path
       d="m -576,-4974.0803 h -6653.3999 a 95.999999,96 0 0 1 0,-192 H -576 a 95.999999,96 0 0 1 0,192 z"
       style="fill:none;stroke:#000000;stroke-width:3.77952756;stroke-miterlimit:4;stroke-dasharray:none"
       id="path272" />
    <path
       d="m 12691.8,-235.28026 a 95.999999,96 0 0 1 96,95.99999 V 1012.7197 a 95.999999,96 0 0 1 -96,95.9999 h -1152 a 95.999999,96 0 0 1 -96,-95.9999 V -139.28027 a 95.999999,96 0 0 1 96,-95.99999 z"
       style="fill:none;stroke:#000000;stroke-width:3.77952756;stroke-miterlimit:4;stroke-dasharray:none"
       id="path274" />
    <path
       d="m 16349.4,-2064.0803 a 95.999999,96 0 0 1 95.999,96 v 1152.00004 a 95.999999,96 0 0 1 -95.999,95.99999 h -1152 a 95.999999,96 0 0 1 -96,-95.99999 V -1968.0803 a 95.999999,96 0 0 1 96,-96 z"
       style="fill:none;stroke:#000000;stroke-width:3.77952756;stroke-miterlimit:4;stroke-dasharray:none"
       id="path276" />
    <path
       d="m 16325.4,2896.4835 a 115.2,115.2 0 0 1 115.199,115.2 v 9.6 a 115.2,115.2 0 0 1 -115.199,115.2001 h -2937.6 a 115.2,115.2 0 0 1 -115.2,-115.2001 v -9.6 a 115.2,115.2 0 0 1 115.2,-115.2 z"
       style="fill:none;stroke:#000000;stroke-width:3.77952756;stroke-miterlimit:4;stroke-dasharray:none"
       id="path278" />
    <path
       d="m -15005.399,7411.1197 a 95.999999,96 0 0 1 0,-192 H -8381.4 a 95.999999,96 0 0 1 0,192 z"
       style="fill:none;stroke:#000000;stroke-width:3.77952756;stroke-miterlimit:4;stroke-dasharray:none"
       id="path280" />
    <path
       d="m 14520.6,1108.7196 h -1152 a 95.999999,96 0 0 1 -96,-95.9999 V -139.28027 a 95.999999,96 0 0 1 96,-95.99999 h 1152 a 95.999999,96 0 0 1 96,95.99999 V 1012.7197 a 95.999999,96 0 0 1 -96,95.9999 z"
       style="fill:none;stroke:#000000;stroke-width:3.77952756;stroke-miterlimit:4;stroke-dasharray:none"
       id="path282" />
    <path
       d="m -14159.4,-2679.0802 h 3172.8 a 143.99999,144 0 0 1 0,287.9999 h -3172.8 a 143.99999,144 0 0 1 0,-287.9999 z"
       style="fill:none;stroke:#000000;stroke-width:3.77952756;stroke-miterlimit:4;stroke-dasharray:none"
       id="path284" />
    <path
       d="m 14525.399,-5166.0803 a 95.999999,96 0 0 1 0,192 h -2977.38 a 95.999999,96 0 0 0 -96,96 v 240 a 192,192 0 0 1 -192,192 h -575.486 a 192,192 0 0 1 -192,-192 v -240 a 95.999999,96 0 0 0 -96,-96 H 8381.4 a 95.999999,96 0 0 1 0,-192 z"
       style="fill:none;stroke:#000000;stroke-width:3.77952756;stroke-miterlimit:4;stroke-dasharray:none"
       id="path286" />
    <path
       d="m -288,-4926.0803 v -95.4 a 143.99999,144 0 0 1 144.00001,-144 h 287.99998 a 143.99999,144 0 0 1 144.00001,144 v 95.4 a 143.99999,144 0 0 0 143.99999,144 H 2846.7 a 95.999999,96 0 0 1 0,192 h -5693.4 a 95.999999,96 0 0 1 0,-192 h 2414.70001 a 143.99999,144 0 0 0 143.99999,-144 z"
       style="fill:none;stroke:#000000;stroke-width:3.77952756;stroke-miterlimit:4;stroke-dasharray:none"
       id="path288" />
    <path
       d="M 4558.1999,-2391.0803 H 1385.4 a 143.99999,144 0 0 1 0,-287.9999 h 3172.7999 a 143.99999,144 0 0 1 0,287.9999 z"
       style="fill:none;stroke:#000000;stroke-width:3.77952756;stroke-miterlimit:4;stroke-dasharray:none"
       id="path290" />
    <path
       d="m -7229.3999,7411.1197 a 95.999999,96 0 0 1 0,-192 H -576 a 95.999999,96 0 0 1 0,192 z"
       style="fill:none;stroke:#000000;stroke-width:3.77952756;stroke-miterlimit:4;stroke-dasharray:none"
       id="path292" />
    <path
       d="M 7229.3999,-5166.0803 H 576 a 95.999999,96 0 0 0 0,192 h 6653.3999 a 95.999999,96 0 0 0 0,-192 z"
       style="fill:none;stroke:#000000;stroke-width:3.77952756;stroke-miterlimit:4;stroke-dasharray:none"
       id="path294" />
    <path
       d="m -5816.3779,5329.5776 a 144.00001,144.00002 0 0 0 -166.8743,234.7274"
       style="fill:none;stroke:#000000;stroke-width:3.77952756;stroke-miterlimit:4;stroke-dasharray:none"
       id="path296" />
    <path
       d="m -5281.6792,5709.7099 -534.6987,-380.1323"
       style="fill:none;stroke:#000000;stroke-width:3.77952756;stroke-miterlimit:4;stroke-dasharray:none"
       id="path298" />
    <path
       d="m -5983.2522,5564.305 534.6987,380.1323"
       style="fill:none;stroke:#000000;stroke-width:3.77952756;stroke-miterlimit:4;stroke-dasharray:none"
       id="path300" />
    <path
       d="m -5448.5535,5944.4373 a 143.99999,144 0 0 0 166.8743,-234.7274"
       style="fill:none;stroke:#000000;stroke-width:3.77952756;stroke-miterlimit:4;stroke-dasharray:none"
       id="path302" />
    <path
       d="m -5596.2,3422.3197 h -1151.9999 a 95.999999,96 0 0 0 -96,96 v 1152 a 95.999999,96 0 0 0 96,96 H -5596.2 a 95.999999,96 0 0 0 96,-96 v -1152 a 95.999999,96 0 0 0 -96,-96 z"
       style="fill:none;stroke:#000000;stroke-width:3.77952756;stroke-miterlimit:4;stroke-dasharray:none"
       id="path304" />
    <path
       d="m -6989.0955,5580.1166 1512.7295,1075.442"
       style="fill:none;stroke:#000000;stroke-width:3.77952756;stroke-miterlimit:4;stroke-dasharray:none"
       id="path306" />
    <path
       d="m -6766.5965,5267.1467 a 192.00002,192.00003 0 0 0 -222.499,312.9699"
       style="fill:none;stroke:#000000;stroke-width:3.77952756;stroke-miterlimit:4;stroke-dasharray:none"
       id="path308" />
    <path
       d="m -5476.366,6655.5586 a 192.00001,192.00001 0 0 0 222.4992,-312.9698"
       style="fill:none;stroke:#000000;stroke-width:3.77952756;stroke-miterlimit:4;stroke-dasharray:none"
       id="path310" />
    <path
       d="M -5253.8668,6342.5888 -6766.5965,5267.1467"
       style="fill:none;stroke:#000000;stroke-width:3.77952756;stroke-miterlimit:4;stroke-dasharray:none"
       id="path312" />
    <path
       d="m -6794.4088,5978.268 a 144.00002,144.00003 0 0 0 -166.8743,234.7275"
       style="fill:none;stroke:#000000;stroke-width:3.77952756;stroke-miterlimit:4;stroke-dasharray:none"
       id="path314" />
    <path
       d="M -6259.7102,6358.4004 -6794.4088,5978.268"
       style="fill:none;stroke:#000000;stroke-width:3.77952756;stroke-miterlimit:4;stroke-dasharray:none"
       id="path316" />
    <path
       d="m -6961.2831,6212.9955 534.6986,380.1322"
       style="fill:none;stroke:#000000;stroke-width:3.77952756;stroke-miterlimit:4;stroke-dasharray:none"
       id="path318" />
    <path
       d="m -6426.5845,6593.1277 a 143.99999,144 0 0 0 166.8743,-234.7273"
       style="fill:none;stroke:#000000;stroke-width:3.77952756;stroke-miterlimit:4;stroke-dasharray:none"
       id="path320" />
    <path
       d="m 6318.6,5347.1197 v 1152 a 95.999999,96 0 0 0 96,95.9999 h 1572.4781 a 95.999999,96 0 0 0 96,-95.9999 v -1152 a 95.999999,96 0 0 0 -96,-96 H 6414.6 a 95.999999,96 0 0 0 -96,96 z"
       style="fill:none;stroke:#000000;stroke-width:3.77952756;stroke-miterlimit:4;stroke-dasharray:none"
       id="path322" />
    <path
       d="m 11116.8,-3198.0803 a 144.0005,144.00052 0 0 1 -288.001,0 v -960 a 144.0005,144.00052 0 0 1 288.001,0 z"
       style="fill:none;stroke:#000000;stroke-width:3.77952756;stroke-miterlimit:4;stroke-dasharray:none"
       id="path324" />
    <path
       d="M -1835.0495,6342.5888 -322.31996,5267.1467 a 192.00003,192.00003 0 0 1 222.499086,312.9699 L -1612.5505,6655.5586 a 192,192 0 0 1 -222.499,-312.9698 z"
       style="fill:none;stroke:#000000;stroke-width:3.77952756;stroke-miterlimit:4;stroke-dasharray:none"
       id="path326" />
    <path
       d="m 4919.4,-2064.0803 a 95.999999,96 0 0 1 96,96 v 1152.00004 a 95.999999,96 0 0 1 -96,95.99999 H 3767.3999 a 95.999999,96 0 0 1 -96,-95.99999 V -1968.0803 a 95.999999,96 0 0 1 96,-96 z"
       style="fill:none;stroke:#000000;stroke-width:3.77952756;stroke-miterlimit:4;stroke-dasharray:none"
       id="path328" />
    <path
       d="m -15101.4,-3102.0803 a 95.999999,96 0 0 1 -96,96 h -1152 a 95.999999,96 0 0 1 -95.999,-96 v -1152 a 95.999999,96 0 0 1 95.999,-96 h 1152 a 95.999999,96 0 0 1 96,96 z"
       style="fill:none;stroke:#000000;stroke-width:3.77952756;stroke-miterlimit:4;stroke-dasharray:none"
       id="path330" />
    <path
       d="m 12511.2,4382.3198 v -576.0001 a 144.0003,144.00032 0 0 1 288,0 v 576.0001 a 144.0003,144.00032 0 0 1 -288,0 z"
       style="fill:none;stroke:#000000;stroke-width:3.77952756;stroke-miterlimit:4;stroke-dasharray:none"
       id="path332" />
    <path
       d="m 5138.9999,2937.5197 a 95.999999,96 0 0 1 -96,-96 V 1689.5196 a 95.999999,96 0 0 1 96,-96 H 6291 a 95.999999,96 0 0 1 96,96 v 1152.0001 a 95.999999,96 0 0 1 -96,96 z"
       style="fill:none;stroke:#000000;stroke-width:3.77952756;stroke-miterlimit:4;stroke-dasharray:none"
       id="path334" />
    <path
       d="M 6748.1999,-720.08027 H 5596.2 a 95.999999,96 0 0 1 -96,-95.99999 V -1968.0803 a 95.999999,96 0 0 1 96,-96 h 1151.9999 a 95.999999,96 0 0 1 96,96 v 1152.00004 a 95.999999,96 0 0 1 -96,95.99999 z"
       style="fill:none;stroke:#000000;stroke-width:3.77952756;stroke-miterlimit:4;stroke-dasharray:none"
       id="path336" />
    <path
       d="m 11359.2,4382.3198 v -576.0001 a 144,144.00001 0 0 1 288,0 v 576.0001 a 144,144.00001 0 0 1 -288,0 z"
       style="fill:none;stroke:#000000;stroke-width:3.77952756;stroke-miterlimit:4;stroke-dasharray:none"
       id="path338" />
    <path
       d="m 8700.5999,6595.1196 a 95.999999,96 0 0 1 -96,-95.9999 v -1152 a 95.999999,96 0 0 1 96,-96 h 1572.4781 a 95.999999,96 0 0 1 96,96 v 1152 a 95.999999,96 0 0 1 -96,95.9999 z"
       style="fill:none;stroke:#000000;stroke-width:3.77952756;stroke-miterlimit:4;stroke-dasharray:none"
       id="path340" />
    <path
       d="m -11539.8,-2064.0803 a 95.999999,96 0 0 1 96,96 v 1152.00004 a 95.999999,96 0 0 1 -96,95.99999 h -1152 a 95.999999,96 0 0 1 -96,-95.99999 V -1968.0803 a 95.999999,96 0 0 1 96,-96 z"
       style="fill:none;stroke:#000000;stroke-width:3.77952756;stroke-miterlimit:4;stroke-dasharray:none"
       id="path342" />
    <path
       d="M 4585.8,-139.28027 V 1012.7197 a 95.999999,96 0 0 0 96,95.9999 h 1151.9999 a 95.999999,96 0 0 0 96,-95.9999 V -139.28027 a 95.999999,96 0 0 0 -96,-95.99999 H 4681.8 a 95.999999,96 0 0 0 -96,95.99999 z"
       style="fill:none;stroke:#000000;stroke-width:3.77952756;stroke-miterlimit:4;stroke-dasharray:none"
       id="path344" />
    <path
       d="m -5957.3999,-816.08026 a 95.999999,96 0 0 1 -96,95.99999 H -7205.4 a 95.999999,96 0 0 1 -96,-95.99999 V -1968.0803 a 95.999999,96 0 0 1 96,-96 h 1152.0001 a 95.999999,96 0 0 1 96,96 z"
       style="fill:none;stroke:#000000;stroke-width:3.77952756;stroke-miterlimit:4;stroke-dasharray:none"
       id="path346" />
    <path
       d="M 6707.5017,2841.5197 V 1689.5196 a 144,144.00002 0 0 1 288,0 v 1152.0001 a 144,144.00002 0 0 1 -288,0 z"
       style="fill:none;stroke:#000000;stroke-width:3.77952756;stroke-miterlimit:4;stroke-dasharray:none"
       id="path348" />
    <path
       d="m 14405.4,1696.4835 h -1017.6 a 115.2,115.2 0 0 1 -115.2,-115.2 v -9.5999 a 115.2,115.2 0 0 1 115.2,-115.2 h 1017.6 a 115.2,115.2 0 0 1 115.2,115.2 v 9.5999 a 115.2,115.2 0 0 1 -115.2,115.2 z"
       style="fill:none;stroke:#000000;stroke-width:3.77952756;stroke-miterlimit:4;stroke-dasharray:none"
       id="path350" />
    <path
       d="M -2729.4,1012.7197 V -139.28027 a 95.999999,96 0 0 1 96,-95.99999 h 1152 a 95.999999,96 0 0 1 96,95.99999 V 1012.7197 a 95.999999,96 0 0 1 -96,95.9999 h -1152 a 95.999999,96 0 0 1 -96,-95.9999 z"
       style="fill:none;stroke:#000000;stroke-width:3.77952756;stroke-miterlimit:4;stroke-dasharray:none"
       id="path352" />
    <path
       d="m 1058.4,-4158.0803 v 960 a 144,144.00002 0 0 1 -288.00001,0 v -960 a 144,144.00002 0 0 1 288.00001,0 z"
       style="fill:none;stroke:#000000;stroke-width:3.77952756;stroke-miterlimit:4;stroke-dasharray:none"
       id="path354" />
    <path
       d="m 11539.8,-3006.0803 a 95.999999,96 0 0 1 -96,-96 v -1152 a 95.999999,96 0 0 1 96,-96 h 1152 a 95.999999,96 0 0 1 96,96 v 1152 a 95.999999,96 0 0 1 -96,96 z"
       style="fill:none;stroke:#000000;stroke-width:3.77952756;stroke-miterlimit:4;stroke-dasharray:none"
       id="path356" />
    <path
       d="m 14520.6,-4350.0803 a 95.999999,96 0 0 1 96,96 v 1152 a 95.999999,96 0 0 1 -96,96 h -1152 a 95.999999,96 0 0 1 -96,-96 v -1152 a 95.999999,96 0 0 1 96,-96 z"
       style="fill:none;stroke:#000000;stroke-width:3.77952756;stroke-miterlimit:4;stroke-dasharray:none"
       id="path358" />
    <path
       d="m 14405.4,2656.4835 h -1017.6 a 115.2,115.2 0 0 1 -115.2,-115.2001 v -9.5999 a 115.2,115.2 0 0 1 115.2,-115.2 h 1017.6 a 115.2,115.2 0 0 1 115.2,115.2 v 9.5999 a 115.2,115.2 0 0 1 -115.2,115.2001 z"
       style="fill:none;stroke:#000000;stroke-width:3.77952756;stroke-miterlimit:4;stroke-dasharray:none"
       id="path360" />
    <path
       d="m -12234.6,4766.3197 a 95.999999,96 0 0 1 -96,-96 v -1152 a 95.999999,96 0 0 1 96,-96 h 1152 a 95.999999,96 0 0 1 96,96 v 1152 a 95.999999,96 0 0 1 -96,96 z"
       style="fill:none;stroke:#000000;stroke-width:3.77952756;stroke-miterlimit:4;stroke-dasharray:none"
       id="path362" />
    <path
       d="m -1261.8,4766.3197 a 95.999999,96 0 0 1 -96,-96 v -1152 a 95.999999,96 0 0 1 96,-96 h 1152.00001 a 95.999999,96 0 0 1 95.99999,96 v 1152 a 95.999999,96 0 0 1 -95.99999,96 z"
       style="fill:none;stroke:#000000;stroke-width:3.77952756;stroke-miterlimit:4;stroke-dasharray:none"
       id="path364" />
    <path
       d="m -3186.6,3518.3197 a 95.999999,96 0 0 1 96,-96 h 1152 a 95.999999,96 0 0 1 96,96 v 1152 a 95.999999,96 0 0 1 -96,96 h -1152 a 95.999999,96 0 0 1 -96,-96 z"
       style="fill:none;stroke:#000000;stroke-width:3.77952756;stroke-miterlimit:4;stroke-dasharray:none"
       id="path366" />
    <path
       d="m -13149,2937.5197 h 1152 a 95.999999,96 0 0 0 96.001,-96 V 1689.5196 a 95.999999,96 0 0 0 -96.001,-96 h -1152 a 95.999999,96 0 0 0 -96,96 v 1152.0001 a 95.999999,96 0 0 0 96,96 z"
       style="fill:none;stroke:#000000;stroke-width:3.77952756;stroke-miterlimit:4;stroke-dasharray:none"
       id="path368" />
    <path
       d="m 11981.4,6835.1198 v 96 a 95.999999,96 0 0 1 -96,95.9999 h -384 a 95.999999,96 0 0 1 -96,-95.9999 v -96 a 95.999999,96 0 0 1 96,-96 h 384 a 95.999999,96 0 0 1 96,96 z"
       style="fill:none;stroke:#000000;stroke-width:3.77952756;stroke-miterlimit:4;stroke-dasharray:none"
       id="path370" />
    <path
       d="m 11002.439,6499.1197 a 144,144.00001 0 0 1 -288,0 v -1152 a 144,144.00001 0 0 1 288,0 z"
       style="fill:none;stroke:#000000;stroke-width:3.77952756;stroke-miterlimit:4;stroke-dasharray:none"
       id="path372" />
    <path
       d="m 11539.8,6595.1196 a 95.999999,96 0 0 1 -96,-95.9999 v -1152 a 95.999999,96 0 0 1 96,-96 h 1152 a 95.999999,96 0 0 1 96,96 v 1152 a 95.999999,96 0 0 1 -96,95.9999 z"
       style="fill:none;stroke:#000000;stroke-width:3.77952756;stroke-miterlimit:4;stroke-dasharray:none"
       id="path374" />
    <path
       d="m -662.3319,6593.1277 a 143.99999,144 0 0 1 -166.87431,-234.7273 l 534.69865,-380.1324 a 144.00003,144.00003 0 0 1 166.8743,234.7275 z"
       style="fill:none;stroke:#000000;stroke-width:3.77952756;stroke-miterlimit:4;stroke-dasharray:none"
       id="path376" />
    <path
       d="m -13702.2,-139.28027 a 95.999999,96 0 0 1 96,-95.99999 h 1152.001 a 95.999999,96 0 0 1 95.999,95.99999 V 1012.7197 a 95.999999,96 0 0 1 -95.999,95.9999 H -13606.2 a 95.999999,96 0 0 1 -96,-95.9999 z"
       style="fill:none;stroke:#000000;stroke-width:3.77952756;stroke-miterlimit:4;stroke-dasharray:none"
       id="path378" />
    <path
       d="m -11740.678,5347.1197 v 1152 a 95.999999,96 0 0 0 96,95.9999 h 1572.479 a 95.999999,96 0 0 0 95.9991,-95.9999 v -1152 a 95.999999,96 0 0 0 -95.9991,-96 h -1572.479 a 95.999999,96 0 0 0 -96,96 z"
       style="fill:none;stroke:#000000;stroke-width:3.77952756;stroke-miterlimit:4;stroke-dasharray:none"
       id="path380" />
    <path
       d="m -14520.6,-2064.0803 h 1152 a 95.999999,96 0 0 1 96,96 v 1152.00004 a 95.999999,96 0 0 1 -96,95.99999 h -1152 a 95.999999,96 0 0 1 -96,-95.99999 V -1968.0803 a 95.999999,96 0 0 1 96,-96 z"
       style="fill:none;stroke:#000000;stroke-width:3.77952756;stroke-miterlimit:4;stroke-dasharray:none"
       id="path382" />
    <path
       d="m 4462.1999,1593.5196 a 95.999999,96 0 0 1 96,96 v 1152.0001 a 95.999999,96 0 0 1 -96,96 H 3310.2 a 95.999999,96 0 0 1 -96,-96 V 1689.5196 a 95.999999,96 0 0 1 96,-96 z"
       style="fill:none;stroke:#000000;stroke-width:3.77952756;stroke-miterlimit:4;stroke-dasharray:none"
       id="path384" />
    <path
       d="m 576,7219.1197 h 6653.3999 a 95.999999,96 0 0 1 0,192 H 576 a 95.999999,96 0 0 1 0,-192 z"
       style="fill:none;stroke:#000000;stroke-width:3.77952756;stroke-miterlimit:4;stroke-dasharray:none"
       id="path386" />
    <path
       d="m -8381.4,-4974.0803 h -6623.999 a 95.999999,96 0 0 1 0,-192 H -8381.4 a 95.999999,96 0 0 1 0,192 z"
       style="fill:none;stroke:#000000;stroke-width:3.77952756;stroke-miterlimit:4;stroke-dasharray:none"
       id="path388" />
    <path
       d="M -143.99999,7410.5197 A 143.99999,144 0 0 1 -288,7266.5197 v -95.4 a 143.99999,144 0 0 0 -143.99999,-144 H -2846.7 a 95.999999,96 0 0 1 0,-191.9999 h 5693.4 a 95.999999,96 0 0 1 0,191.9999 H 431.99999 A 143.99999,144 0 0 0 288,7171.1197 v 95.4 a 143.99999,144 0 0 1 -144.00001,144 z"
       style="fill:none;stroke:#000000;stroke-width:3.77952756;stroke-miterlimit:4;stroke-dasharray:none"
       id="path390" />
    <path
       d="m -10637.4,7027.1197 h 5678.7001 a 95.999999,96 0 0 0 0,-191.9999 H -10637.4 a 95.999999,96 0 0 0 0,191.9999 z"
       style="fill:none;stroke:#000000;stroke-width:3.77952756;stroke-miterlimit:4;stroke-dasharray:none"
       id="path392" />
    <path
       d="m 4958.6999,7027.1197 a 95.999999,96 0 0 1 0,-191.9999 H 10637.4 a 95.999999,96 0 0 1 0,191.9999 z"
       style="fill:none;stroke:#000000;stroke-width:3.77952756;stroke-miterlimit:4;stroke-dasharray:none"
       id="path394" />
    <path
       d="m 8381.4,7219.1197 h 6623.999 a 95.999999,96 0 0 1 0,192 H 8381.4 a 95.999999,96 0 0 1 0,-192 z"
       style="fill:none;stroke:#000000;stroke-width:3.77952756;stroke-miterlimit:4;stroke-dasharray:none"
       id="path396" />
    <path
       d="m 4958.6999,-4590.0803 h 5149.8331 a 95.999999,96 0 0 0 0,-192 H 4958.6999 a 95.999999,96 0 0 0 0,192 z"
       style="fill:none;stroke:#000000;stroke-width:3.77952756;stroke-miterlimit:4;stroke-dasharray:none"
       id="path398" />
    <path
       d="m -10637.4,-4590.0803 a 95.999999,96 0 0 1 0,-192 h 5678.7001 a 95.999999,96 0 0 1 0,192 z"
       style="fill:none;stroke:#000000;stroke-width:3.77952756;stroke-miterlimit:4;stroke-dasharray:none"
       id="path400" />
    <path
       d="M 8833.8713,1593.5196 H 7887.6644"
       style="fill:none;stroke:#000000;stroke-width:3.77952756;stroke-miterlimit:4;stroke-dasharray:none"
       id="path402" />
    <path
       d="m 7124.7235,3029.8717 a 95.999999,96 0 0 0 96,96"
       style="fill:none;stroke:#000000;stroke-width:3.77952756;stroke-miterlimit:4;stroke-dasharray:none"
       id="path404" />
  </g>
  <desc
     id="desc408">F1-88_SAM_GONDO_FR4_PLATE.dxf - scale = 25.400000, origin = (0.000000, 0.000000), method = file</desc>
</svg>
